%TF.GenerationSoftware,KiCad,Pcbnew,10.0.4*%
%TF.CreationDate,2026-07-10T22:34:02-07:00*%
%TF.ProjectId,pager,70616765-722e-46b6-9963-61645f706362,rev?*%
%TF.SameCoordinates,Original*%
%TF.FileFunction,Copper,L2,Bot*%
%TF.FilePolarity,Positive*%
%FSLAX46Y46*%
G04 Gerber Fmt 4.6, Leading zero omitted, Abs format (unit mm)*
G04 Created by KiCad (PCBNEW 10.0.4) date 2026-07-10 22:34:02*
%MOMM*%
%LPD*%
G01*
G04 APERTURE LIST*
%TA.AperFunction,ComponentPad*%
%ADD10O,1.000000X2.100000*%
%TD*%
%TA.AperFunction,ComponentPad*%
%ADD11O,1.000000X1.600000*%
%TD*%
%TA.AperFunction,HeatsinkPad*%
%ADD12C,0.600000*%
%TD*%
%TA.AperFunction,ViaPad*%
%ADD13C,0.500000*%
%TD*%
%TA.AperFunction,ViaPad*%
%ADD14C,0.600000*%
%TD*%
%TA.AperFunction,Conductor*%
%ADD15C,0.400000*%
%TD*%
%TA.AperFunction,Conductor*%
%ADD16C,0.200000*%
%TD*%
%TA.AperFunction,Conductor*%
%ADD17C,0.250000*%
%TD*%
G04 APERTURE END LIST*
D10*
%TO.P,USBC1,SH*%
%TO.N,GND*%
X143680000Y-93670000D03*
D11*
X143680000Y-97850000D03*
D10*
X152320000Y-93670000D03*
D11*
X152320000Y-97850000D03*
%TD*%
D12*
%TO.P,U401,41*%
%TO.N,GND*%
X111510000Y-81400000D03*
X112910000Y-81400000D03*
X110810000Y-80700000D03*
X112210000Y-80700000D03*
X113610000Y-80700000D03*
X111510000Y-80000000D03*
X112910000Y-80000000D03*
X110810000Y-79300000D03*
X112210000Y-79300000D03*
X113610000Y-79300000D03*
X111510000Y-78600000D03*
X112910000Y-78600000D03*
%TD*%
D13*
%TO.N,/power/VBUS*%
X145041000Y-91600300D03*
X137781000Y-79891300D03*
X137620300Y-84038400D03*
X119841700Y-95978300D03*
X115090000Y-92074300D03*
X140107600Y-91598400D03*
X104775000Y-93200000D03*
%TO.N,+3V3*%
X160309800Y-75409100D03*
X168881600Y-71500000D03*
X119178600Y-88391400D03*
X165710700Y-89705400D03*
X124533600Y-83736200D03*
%TO.N,I2C_SCL*%
X147797000Y-86612600D03*
X171025100Y-92623900D03*
%TO.N,I2C_SDA*%
X165558600Y-93444400D03*
X120940200Y-85276400D03*
%TO.N,GND*%
X181929000Y-74000000D03*
X116497800Y-89186000D03*
X185001200Y-79838000D03*
X189516600Y-75248800D03*
X186310500Y-66882900D03*
X180533500Y-87691500D03*
X193925600Y-82106000D03*
X180500000Y-91198100D03*
X110002900Y-74647900D03*
X180067800Y-98579700D03*
%TO.N,/power/VSYS*%
X155116100Y-91177400D03*
X143060800Y-79539000D03*
%TO.N,GNSS_EN*%
X123654000Y-66492200D03*
X179300000Y-68732500D03*
%TO.N,/epaper/EPD_VGH*%
X159391600Y-69726300D03*
X147012300Y-76917500D03*
%TO.N,GNSS_RX*%
X180855300Y-60883300D03*
X124471000Y-68538300D03*
%TO.N,VBAT_SENSE*%
X106262500Y-91000000D03*
X105760000Y-70892400D03*
X151214500Y-97867400D03*
X151910400Y-95918600D03*
%TO.N,/mcu/BUZ_GATE*%
X169579300Y-89946300D03*
X120339900Y-84683800D03*
%TO.N,/power/BAT_PLUS*%
X137979700Y-80523100D03*
X128578700Y-82135400D03*
X158122700Y-97825000D03*
X170332300Y-90528000D03*
X124557200Y-87207100D03*
%TO.N,/mcu/BTN_DOWN*%
X124140400Y-73858000D03*
X154121000Y-84683800D03*
%TO.N,/power/USB_DM_RAW*%
X140300000Y-94000000D03*
X147250000Y-95400000D03*
X148250000Y-95400000D03*
%TO.N,/power/USB_DP_RAW*%
X147750000Y-94300000D03*
X148750000Y-94300000D03*
D14*
%TO.N,USB_DP*%
X121000000Y-88600000D03*
D13*
X138000000Y-90650000D03*
D14*
%TO.N,USB_DM*%
X119730000Y-89300000D03*
D13*
X138000000Y-93000000D03*
%TO.N,/mcu/EN*%
X121096100Y-84202100D03*
X128542200Y-71656800D03*
X174700500Y-93438700D03*
X126680800Y-77114800D03*
%TO.N,/radio/GNSS_VBAT*%
X181928000Y-68676100D03*
X185500300Y-65334300D03*
%TO.N,/epaper/EPD_PUMP*%
X160000000Y-68066700D03*
X159350200Y-70924200D03*
%TO.N,/power/CHRG_LED*%
X116370000Y-91090000D03*
X113600000Y-91500000D03*
%TO.N,/power/DW01_OC*%
X121522200Y-93682300D03*
X128212000Y-91590600D03*
%TO.N,/power/BAT_MINUS*%
X152403400Y-87239000D03*
X132105100Y-93646300D03*
X145890000Y-89084400D03*
X159220600Y-80312600D03*
%TO.N,/mcu/BTN_UP*%
X133560600Y-81553700D03*
X143762300Y-85481400D03*
%TO.N,/power/STDBY_LED*%
X131412800Y-97832700D03*
X118351500Y-89865600D03*
%TO.N,/power/CC1*%
X141821900Y-94610000D03*
X143286000Y-95742300D03*
%TO.N,/epaper/EPD_GDR*%
X159374500Y-78111000D03*
X163849500Y-72661900D03*
%TO.N,/mcu/BOOT*%
X125442500Y-73899400D03*
X123388400Y-81209900D03*
%TO.N,/epaper/EPD_VGL*%
X146283200Y-77552600D03*
X152934100Y-67216500D03*
%TO.N,/epaper/EPD_VSL*%
X140324100Y-75301700D03*
X144514300Y-79491900D03*
%TO.N,SPI_MOSI*%
X117328800Y-81757200D03*
X105567800Y-58500000D03*
%TO.N,SPI_SCK*%
X105079000Y-59500000D03*
X118680100Y-82865500D03*
X111306900Y-82964900D03*
X150870100Y-77867800D03*
%TO.N,EPD_CS*%
X136353300Y-72020800D03*
X112471800Y-84856300D03*
X132408600Y-70263400D03*
X151885000Y-80022000D03*
%TO.N,EPD_DC*%
X113892600Y-85510500D03*
X151801100Y-77863100D03*
%TO.N,EPD_RST*%
X112543500Y-82407400D03*
X152750000Y-77840000D03*
X120233200Y-81275500D03*
X111295500Y-85683700D03*
%TO.N,EPD_BUSY*%
X151256500Y-80453100D03*
X111823100Y-86117000D03*
%TO.N,GNSS_TX*%
X174739200Y-61308100D03*
X124135700Y-69773800D03*
%TO.N,/mcu/VIB_GATE*%
X115116400Y-86112200D03*
X130111700Y-67186000D03*
%TO.N,RADIO_NSS*%
X106382800Y-62498400D03*
X117595300Y-85897100D03*
%TO.N,SPI_MISO*%
X117075500Y-80405000D03*
X106066800Y-56500000D03*
%TO.N,RADIO_BUSY*%
X121115300Y-77865000D03*
X120566800Y-53485200D03*
%TO.N,RADIO_DIO1*%
X123459600Y-56499900D03*
X123390600Y-76733100D03*
%TD*%
%TO.N,/power/VBUS*%
D15*
X145041000Y-91600300D02*
X145039100Y-91598400D01*
X105600000Y-92300000D02*
X104775000Y-93000000D01*
X145039100Y-91598400D02*
X140107600Y-91598400D01*
X140107600Y-91598400D02*
X137620300Y-89111100D01*
X137620300Y-84038400D02*
X137398000Y-83816100D01*
X137398000Y-80274300D02*
X137781000Y-79891300D01*
X104775000Y-93000000D02*
X104775000Y-93200000D01*
X137620300Y-89111100D02*
X137620300Y-84038400D01*
X112500000Y-92300000D02*
X105600000Y-92300000D01*
X118993900Y-95978200D02*
X119841700Y-95978200D01*
X137398000Y-83816100D02*
X137398000Y-80274300D01*
X115090000Y-92070000D02*
X112500000Y-92300000D01*
X115090000Y-92074300D02*
X118993900Y-95978200D01*
X119841700Y-95978200D02*
X119841700Y-95978300D01*
%TO.N,+3V3*%
X162641200Y-77740400D02*
X168881600Y-71500000D01*
X119178600Y-88391400D02*
X119878400Y-88391400D01*
X119878400Y-88391400D02*
X124533600Y-83736200D01*
X162641200Y-77740400D02*
X165710700Y-80810000D01*
X165710700Y-80810000D02*
X165710700Y-89705400D01*
X160309800Y-75409100D02*
X162641200Y-77740400D01*
%TO.N,I2C_SCL*%
D16*
X169978200Y-89452500D02*
X168826400Y-89452500D01*
X166240000Y-92038900D02*
X153276700Y-92038900D01*
X171025100Y-90499400D02*
X169978200Y-89452500D01*
X171025100Y-92623900D02*
X171025100Y-90499400D01*
X153276700Y-92038900D02*
X147850400Y-86612600D01*
X168826400Y-89452500D02*
X166240000Y-92038900D01*
X147850400Y-86612600D02*
X147797000Y-86612600D01*
%TO.N,I2C_SDA*%
X138345300Y-78726200D02*
X127490400Y-78726200D01*
X165558600Y-93444400D02*
X153742600Y-93444400D01*
X151611600Y-91992500D02*
X138345300Y-78726200D01*
X153742600Y-93444400D02*
X152290700Y-91992500D01*
X127490400Y-78726200D02*
X120940200Y-85276400D01*
X152290700Y-91992500D02*
X151611600Y-91992500D01*
%TO.N,/power/VSYS*%
D15*
X143477700Y-79539000D02*
X143060800Y-79539000D01*
X155116100Y-91177400D02*
X143477700Y-79539000D01*
%TO.N,GNSS_EN*%
D16*
X123963200Y-70302200D02*
X123654000Y-69993000D01*
X124288700Y-70302200D02*
X123963200Y-70302200D01*
X175927200Y-65359700D02*
X129231200Y-65359700D01*
X123654000Y-69993000D02*
X123654000Y-66492200D01*
X179300000Y-68732500D02*
X175927200Y-65359700D01*
X129231200Y-65359700D02*
X124288700Y-70302200D01*
%TO.N,/epaper/EPD_VGH*%
D15*
X159391600Y-69726300D02*
X154203500Y-69726300D01*
X154203500Y-69726300D02*
X147012300Y-76917500D01*
%TO.N,GNSS_RX*%
D16*
X180855300Y-60883300D02*
X180798400Y-60826400D01*
X132182900Y-60826400D02*
X124471000Y-68538300D01*
X180798400Y-60826400D02*
X132182900Y-60826400D01*
%TO.N,VBAT_SENSE*%
X137449500Y-79072300D02*
X138144100Y-79072300D01*
X127034700Y-81539100D02*
X128202600Y-81539100D01*
X125117500Y-81956000D02*
X125351800Y-81956000D01*
X119985900Y-86881000D02*
X120191000Y-86881000D01*
X134000400Y-81072000D02*
X134196700Y-80875700D01*
X151649500Y-96179500D02*
X151910400Y-95918600D01*
X132718800Y-81072000D02*
X134000400Y-81072000D01*
X106262500Y-91000000D02*
X115397800Y-91000000D01*
X116964900Y-90355800D02*
X117733500Y-89587200D01*
X138144100Y-79072300D02*
X139312700Y-80240900D01*
X125437000Y-81870800D02*
X126703000Y-81870800D01*
X144244000Y-85281800D02*
X144244000Y-85641300D01*
X115397800Y-91000000D02*
X116042000Y-90355800D01*
X150083300Y-94613400D02*
X151649500Y-96179500D01*
X134196700Y-80875700D02*
X135646100Y-80875700D01*
X132583400Y-81207400D02*
X132718800Y-81072000D01*
X151214500Y-96614500D02*
X151649500Y-96179500D01*
X150083300Y-91480600D02*
X150083300Y-94613400D01*
X135646100Y-80875700D02*
X137449500Y-79072300D01*
X117733500Y-89133400D02*
X119985900Y-86881000D01*
X116042000Y-90355800D02*
X116964900Y-90355800D01*
X106262500Y-91000000D02*
X105760000Y-90497500D01*
X123917600Y-83154400D02*
X123919100Y-83154400D01*
X139312700Y-80350500D02*
X144244000Y-85281800D01*
X126703000Y-81870800D02*
X127034700Y-81539100D01*
X105760000Y-90497500D02*
X105760000Y-70892400D01*
X123919100Y-83154400D02*
X125117500Y-81956000D01*
X144244000Y-85641300D02*
X150083300Y-91480600D01*
X120191000Y-86881000D02*
X123917600Y-83154400D01*
X151214500Y-97867400D02*
X151214500Y-96614500D01*
X117733500Y-89587200D02*
X117733500Y-89133400D01*
X139312700Y-80240900D02*
X139312700Y-80350500D01*
X125351800Y-81956000D02*
X125437000Y-81870800D01*
X128534300Y-81207400D02*
X132583400Y-81207400D01*
X128202600Y-81539100D02*
X128534300Y-81207400D01*
%TO.N,/mcu/BUZ_GATE*%
X152429500Y-91660800D02*
X153139300Y-92370600D01*
X167155000Y-92370600D02*
X169579300Y-89946300D01*
X153139300Y-92370600D02*
X167155000Y-92370600D01*
X120339900Y-83279700D02*
X125867300Y-77752300D01*
X151760800Y-91660800D02*
X152429500Y-91660800D01*
X124953800Y-74549300D02*
X124953800Y-73675300D01*
X125229800Y-73399300D02*
X133499300Y-73399300D01*
X125867300Y-75462800D02*
X124953800Y-74549300D01*
X120339900Y-84683800D02*
X120339900Y-83279700D01*
X124953800Y-73675300D02*
X125229800Y-73399300D01*
X133499300Y-73399300D02*
X151760800Y-91660800D01*
X125867300Y-77752300D02*
X125867300Y-75462800D01*
%TO.N,/power/BAT_PLUS*%
D15*
X158122700Y-97825000D02*
X156966000Y-98981700D01*
X163035300Y-97825000D02*
X170332300Y-90528000D01*
X124557200Y-87207100D02*
X128578700Y-83185600D01*
X156966000Y-98981700D02*
X151506200Y-98981700D01*
X145959300Y-88502700D02*
X137979700Y-80523100D01*
X151506200Y-98981700D02*
X149541400Y-97016900D01*
X146131000Y-88502700D02*
X145959300Y-88502700D01*
X149541400Y-91913100D02*
X146131000Y-88502700D01*
X128578700Y-83185600D02*
X128578700Y-82135400D01*
X149541400Y-97016900D02*
X149541400Y-91913100D01*
X158122700Y-97825000D02*
X163035300Y-97825000D01*
%TO.N,/mcu/BTN_DOWN*%
D16*
X145719100Y-79077100D02*
X151621400Y-79077100D01*
X137414700Y-70772700D02*
X145719100Y-79077100D01*
X124140400Y-73482500D02*
X126850200Y-70772700D01*
X126850200Y-70772700D02*
X137414700Y-70772700D01*
X124140400Y-73858000D02*
X124140400Y-73482500D01*
X151621400Y-79077100D02*
X154121000Y-81576700D01*
X154121000Y-81576700D02*
X154121000Y-84683800D01*
%TO.N,/power/USB_DM_RAW*%
D17*
X147250000Y-95400000D02*
X145400000Y-96300000D01*
X147250000Y-95400000D02*
X148250000Y-95400000D01*
X147250000Y-95400000D02*
X145400000Y-96300000D01*
X147250000Y-95400000D02*
X145400000Y-96300000D01*
X147250000Y-95400000D02*
X145400000Y-96300000D01*
X142900000Y-96300000D02*
X140300000Y-94000000D01*
X145400000Y-96300000D02*
X142900000Y-96300000D01*
%TO.N,/power/USB_DP_RAW*%
X147750000Y-94300000D02*
X148750000Y-94300000D01*
%TO.N,USB_DP*%
X122000000Y-88600000D02*
X121000000Y-88600000D01*
X122000000Y-88600000D02*
X121000000Y-88600000D01*
X122000000Y-88600000D02*
X121000000Y-88600000D01*
X138000000Y-90650000D02*
X122000000Y-88600000D01*
%TO.N,USB_DM*%
X124000000Y-90100000D02*
X119730000Y-89300000D01*
X138000000Y-93000000D02*
X124000000Y-90100000D01*
X124000000Y-90100000D02*
X119730000Y-89300000D01*
X124000000Y-90100000D02*
X119730000Y-89300000D01*
%TO.N,/mcu/EN*%
D16*
X165371600Y-91660700D02*
X153532300Y-91660700D01*
X121096100Y-84202100D02*
X126680800Y-78617400D01*
X174700500Y-93438700D02*
X170317900Y-89056100D01*
X126680800Y-78617400D02*
X126680800Y-77114800D01*
X133528400Y-71656800D02*
X128542200Y-71656800D01*
X170317900Y-89056100D02*
X167976200Y-89056100D01*
X153532300Y-91660700D02*
X133528400Y-71656800D01*
X167976200Y-89056100D02*
X165371600Y-91660700D01*
%TO.N,/radio/GNSS_VBAT*%
X185269800Y-65334300D02*
X185500300Y-65334300D01*
X181928000Y-68676100D02*
X185269800Y-65334300D01*
%TO.N,/epaper/EPD_PUMP*%
X160000000Y-70274400D02*
X160000000Y-68066700D01*
X159350200Y-70924200D02*
X160000000Y-70274400D01*
%TO.N,/power/CHRG_LED*%
X114000000Y-91500000D02*
X113600000Y-91500000D01*
X115900000Y-91500000D02*
X114000000Y-91500000D01*
X116370000Y-91090000D02*
X115900000Y-91500000D01*
X116370000Y-91090000D02*
X115900000Y-91500000D01*
%TO.N,/power/DW01_OC*%
X121522200Y-93682300D02*
X126206100Y-98366200D01*
X126206100Y-98366200D02*
X131642100Y-98366200D01*
X131642100Y-98366200D02*
X131907200Y-98101100D01*
X131907200Y-95285800D02*
X128212000Y-91590600D01*
X131907200Y-98101100D02*
X131907200Y-95285800D01*
%TO.N,/power/BAT_MINUS*%
D15*
X138993700Y-93646300D02*
X132105100Y-93646300D01*
X159220600Y-80312600D02*
X159220600Y-80421800D01*
X145890000Y-91617400D02*
X145273300Y-92234100D01*
X159220600Y-80421800D02*
X152403400Y-87239000D01*
X145273300Y-92234100D02*
X140405900Y-92234100D01*
X145890000Y-89084400D02*
X145890000Y-91617400D01*
X140405900Y-92234100D02*
X138993700Y-93646300D01*
%TO.N,/mcu/BTN_UP*%
D16*
X133560600Y-81553700D02*
X135437200Y-81553700D01*
X137586900Y-79404000D02*
X138006700Y-79404000D01*
X138864200Y-80583300D02*
X143762300Y-85481400D01*
X138864200Y-80261500D02*
X138864200Y-80583300D01*
X138006700Y-79404000D02*
X138864200Y-80261500D01*
X135437200Y-81553700D02*
X137586900Y-79404000D01*
%TO.N,/power/STDBY_LED*%
X126353800Y-97832600D02*
X118386800Y-89865600D01*
X131412800Y-97832700D02*
X131412800Y-97832600D01*
X131412800Y-97832600D02*
X126353800Y-97832600D01*
X118386800Y-89865600D02*
X118351500Y-89865600D01*
%TO.N,/power/CC1*%
X143286000Y-95742300D02*
X142153700Y-94610000D01*
X142153700Y-94610000D02*
X141821900Y-94610000D01*
%TO.N,/epaper/EPD_GDR*%
X159374500Y-75584000D02*
X159374500Y-78111000D01*
X162296600Y-72661900D02*
X159374500Y-75584000D01*
X163849500Y-72661900D02*
X162296600Y-72661900D01*
%TO.N,/mcu/BOOT*%
X126199000Y-78399300D02*
X126199000Y-74655900D01*
X126199000Y-74655900D02*
X125442500Y-73899400D01*
X123388400Y-81209900D02*
X126199000Y-78399300D01*
%TO.N,/epaper/EPD_VGL*%
D15*
X152934100Y-67216500D02*
X146283200Y-73867400D01*
X146283200Y-73867400D02*
X146283200Y-77552600D01*
%TO.N,/epaper/EPD_VSL*%
D16*
X140324100Y-75301700D02*
X144514300Y-79491900D01*
%TO.N,SPI_MOSI*%
X110484600Y-74448300D02*
X110484600Y-74913000D01*
X105495700Y-69459400D02*
X110484600Y-74448300D01*
X110484600Y-74913000D02*
X117328800Y-81757200D01*
X105567800Y-58500000D02*
X105567800Y-60755000D01*
X105495700Y-60827100D02*
X105495700Y-69459400D01*
X105567800Y-60755000D02*
X105495700Y-60827100D01*
%TO.N,SPI_SCK*%
X124204000Y-76161100D02*
X124204000Y-77070100D01*
X150324200Y-78413700D02*
X145993900Y-78413700D01*
X118680100Y-82147400D02*
X118680100Y-82865500D01*
X124204000Y-77070100D02*
X120480300Y-80793800D01*
X105079000Y-59500000D02*
X105079000Y-69522000D01*
X109025900Y-73468900D02*
X109025900Y-80683900D01*
X120480300Y-80793800D02*
X120033700Y-80793800D01*
X109025900Y-80683900D02*
X111306900Y-82964900D01*
X129506000Y-66023100D02*
X122617000Y-72912100D01*
X145993900Y-78413700D02*
X133603300Y-66023100D01*
X120033700Y-80793800D02*
X118680100Y-82147400D01*
X150870100Y-77867800D02*
X150324200Y-78413700D01*
X133603300Y-66023100D02*
X129506000Y-66023100D01*
X122617000Y-74574100D02*
X124204000Y-76161100D01*
X122617000Y-72912100D02*
X122617000Y-74574100D01*
X105079000Y-69522000D02*
X109025900Y-73468900D01*
%TO.N,EPD_CS*%
X119177600Y-83034700D02*
X124872200Y-77340100D01*
X123326900Y-74329700D02*
X123326900Y-73143900D01*
X130345900Y-66686500D02*
X132408600Y-68749200D01*
X124872200Y-75875000D02*
X123326900Y-74329700D01*
X116690100Y-89692400D02*
X117002400Y-89380100D01*
X117002400Y-88714500D02*
X114592200Y-86304300D01*
X136353300Y-72020800D02*
X137724600Y-72020800D01*
X117002400Y-89380100D02*
X117002400Y-88714500D01*
X116300200Y-89692400D02*
X116690100Y-89692400D01*
X123326900Y-73143900D02*
X129784300Y-66686500D01*
X117959200Y-86736900D02*
X119177600Y-85518500D01*
X112471800Y-84856300D02*
X112471800Y-85864000D01*
X146641800Y-80938000D02*
X151488900Y-80938000D01*
X137724600Y-72020800D02*
X146641800Y-80938000D01*
X124872200Y-77340100D02*
X124872200Y-75875000D01*
X114592200Y-85891800D02*
X114891000Y-85593000D01*
X119177600Y-85518500D02*
X119177600Y-83034700D01*
X114891000Y-85593000D02*
X115706300Y-85593000D01*
X114592200Y-86304300D02*
X114592200Y-85891800D01*
X115706300Y-85593000D02*
X116850200Y-86736900D01*
X151885000Y-80541900D02*
X151885000Y-80022000D01*
X112471800Y-85864000D02*
X116300200Y-89692400D01*
X151488900Y-80938000D02*
X151885000Y-80541900D01*
X132408600Y-68749200D02*
X132408600Y-70263400D01*
X129784300Y-66686500D02*
X130345900Y-66686500D01*
X116850200Y-86736900D02*
X117959200Y-86736900D01*
%TO.N,EPD_DC*%
X117417700Y-86403000D02*
X117770700Y-86403000D01*
X123872300Y-76932700D02*
X123872300Y-76444400D01*
X123872300Y-76444400D02*
X122285300Y-74857400D01*
X146131300Y-78082000D02*
X149645600Y-78082000D01*
X150358900Y-77368700D02*
X151306700Y-77368700D01*
X120342900Y-80462100D02*
X123872300Y-76932700D01*
X113892600Y-85510500D02*
X114224300Y-85178800D01*
X133740700Y-65691400D02*
X146131300Y-78082000D01*
X118198400Y-82160000D02*
X119896300Y-80462100D01*
X149645600Y-78082000D02*
X150358900Y-77368700D01*
X129368600Y-65691400D02*
X133740700Y-65691400D01*
X116193500Y-85178800D02*
X117417700Y-86403000D01*
X122285300Y-74857400D02*
X122285300Y-72774700D01*
X114224300Y-85178800D02*
X116193500Y-85178800D01*
X151306700Y-77368700D02*
X151801100Y-77863100D01*
X122285300Y-72774700D02*
X129368600Y-65691400D01*
X119896300Y-80462100D02*
X120342900Y-80462100D01*
X118198400Y-85975300D02*
X118198400Y-82160000D01*
X117770700Y-86403000D02*
X118198400Y-85975300D01*
%TO.N,EPD_RST*%
X133465900Y-66354800D02*
X145856500Y-78745400D01*
X129643400Y-66354800D02*
X133465900Y-66354800D01*
X151844600Y-78745400D02*
X152750000Y-77840000D01*
X120467700Y-81275500D02*
X124540500Y-77202700D01*
X111295500Y-84753900D02*
X112543500Y-83505900D01*
X124540500Y-77202700D02*
X124540500Y-76012400D01*
X120233200Y-81275500D02*
X120467700Y-81275500D01*
X124540500Y-76012400D02*
X122970700Y-74442600D01*
X112543500Y-83505900D02*
X112543500Y-82407400D01*
X122970700Y-73027500D02*
X129643400Y-66354800D01*
X111295500Y-85683700D02*
X111295500Y-84753900D01*
X122970700Y-74442600D02*
X122970700Y-73027500D01*
X145856500Y-78745400D02*
X151844600Y-78745400D01*
%TO.N,EPD_BUSY*%
X115730200Y-90024100D02*
X116827500Y-90024100D01*
X111823100Y-86117000D02*
X115730200Y-90024100D01*
X119841000Y-86541500D02*
X119841000Y-83309500D01*
X124622100Y-74686700D02*
X124622100Y-73537900D01*
X125535600Y-75600200D02*
X124622100Y-74686700D01*
X126985000Y-71175000D02*
X137347900Y-71175000D01*
X117401800Y-89449800D02*
X117401800Y-88980700D01*
X116827500Y-90024100D02*
X117401800Y-89449800D01*
X137347900Y-71175000D02*
X146626000Y-80453100D01*
X119841000Y-83309500D02*
X125535600Y-77614900D01*
X125535600Y-77614900D02*
X125535600Y-75600200D01*
X124622100Y-73537900D02*
X126985000Y-71175000D01*
X146626000Y-80453100D02*
X151256500Y-80453100D01*
X117401800Y-88980700D02*
X119841000Y-86541500D01*
%TO.N,GNSS_TX*%
X174739200Y-61308100D02*
X132601400Y-61308100D01*
X132601400Y-61308100D02*
X124135700Y-69773800D01*
%TO.N,/mcu/VIB_GATE*%
X129839200Y-67186000D02*
X130111700Y-67186000D01*
X119509300Y-83172100D02*
X125203900Y-77477500D01*
X125203900Y-75737600D02*
X123658600Y-74192300D01*
X116072800Y-87068600D02*
X118096600Y-87068600D01*
X123658600Y-73366600D02*
X129839200Y-67186000D01*
X118096600Y-87068600D02*
X119509300Y-85655900D01*
X115116400Y-86112200D02*
X116072800Y-87068600D01*
X125203900Y-77477500D02*
X125203900Y-75737600D01*
X123658600Y-74192300D02*
X123658600Y-73366600D01*
X119509300Y-85655900D02*
X119509300Y-83172100D01*
%TO.N,RADIO_NSS*%
X117826600Y-85665800D02*
X117595300Y-85897100D01*
X117826600Y-73942200D02*
X117826600Y-85665800D01*
X106382800Y-62498400D02*
X117826600Y-73942200D01*
%TO.N,SPI_MISO*%
X105892800Y-69222300D02*
X105892800Y-60899100D01*
X106066800Y-60725100D02*
X106066800Y-56500000D01*
X117075500Y-80405000D02*
X105892800Y-69222300D01*
X105892800Y-60899100D02*
X106066800Y-60725100D01*
%TO.N,RADIO_BUSY*%
X120566800Y-77316500D02*
X121115300Y-77865000D01*
X120566800Y-53485200D02*
X120566800Y-77316500D01*
%TO.N,RADIO_DIO1*%
X121930700Y-75273200D02*
X123390600Y-76733100D01*
X121930700Y-58028800D02*
X121930700Y-75273200D01*
X123459600Y-56499900D02*
X121930700Y-58028800D01*
%TD*%
M02*
