M48
; DRILL file KiCad 10.0.4 date 2026-07-10T22:34:03
; FORMAT={-:-/ absolute / metric / decimal}
; #@! TF.CreationDate,2026-07-10T22:34:03-07:00
; #@! TF.GenerationSoftware,Kicad,Pcbnew,10.0.4
; #@! TF.FileFunction,MixedPlating,1,2
FMAT,2
METRIC
; #@! TA.AperFunction,Plated,PTH,ViaDrill
T1C0.300
; #@! TA.AperFunction,Plated,PTH,ComponentDrill
T2C0.300
; #@! TA.AperFunction,Plated,PTH,ComponentDrill
T3C0.600
; #@! TA.AperFunction,NonPlated,NPTH,ComponentDrill
T4C0.650
; #@! TA.AperFunction,NonPlated,NPTH,ComponentDrill
T5C2.200
%
G90
G05
T1
X104.775Y-93.2
X105.079Y-59.5
X105.568Y-58.5
X105.76Y-70.892
X106.067Y-56.5
X106.262Y-91.0
X106.383Y-62.498
X110.003Y-74.648
X111.295Y-85.684
X111.307Y-82.965
X111.823Y-86.117
X112.472Y-84.856
X112.543Y-82.407
X113.6Y-91.5
X113.893Y-85.51
X115.09Y-92.074
X115.116Y-86.112
X116.37Y-91.09
X116.498Y-89.186
X117.075Y-80.405
X117.329Y-81.757
X117.595Y-85.897
X118.352Y-89.866
X118.68Y-82.865
X119.179Y-88.391
X119.73Y-89.3
X119.842Y-95.978
X120.233Y-81.275
X120.34Y-84.684
X120.567Y-53.485
X120.94Y-85.276
X121.0Y-88.6
X121.096Y-84.202
X121.115Y-77.865
X121.522Y-93.682
X123.388Y-81.21
X123.391Y-76.733
X123.46Y-56.5
X123.654Y-66.492
X124.136Y-69.774
X124.14Y-73.858
X124.471Y-68.538
X124.534Y-83.736
X124.557Y-87.207
X125.442Y-73.899
X126.681Y-77.115
X128.212Y-91.591
X128.542Y-71.657
X128.579Y-82.135
X130.112Y-67.186
X131.413Y-97.833
X132.105Y-93.646
X132.409Y-70.263
X133.561Y-81.554
X136.353Y-72.021
X137.62Y-84.038
X137.781Y-79.891
X137.98Y-80.523
X138.0Y-90.65
X138.0Y-93.0
X140.108Y-91.598
X140.3Y-94.0
X140.324Y-75.302
X141.822Y-94.61
X143.061Y-79.539
X143.286Y-95.742
X143.762Y-85.481
X144.514Y-79.492
X145.041Y-91.6
X145.89Y-89.084
X146.283Y-77.553
X147.012Y-76.917
X147.25Y-95.4
X147.75Y-94.3
X147.797Y-86.613
X148.25Y-95.4
X148.75Y-94.3
X150.87Y-77.868
X151.214Y-97.867
X151.256Y-80.453
X151.801Y-77.863
X151.885Y-80.022
X151.91Y-95.919
X152.403Y-87.239
X152.75Y-77.84
X152.934Y-67.216
X154.121Y-84.684
X155.116Y-91.177
X158.123Y-97.825
X159.221Y-80.313
X159.35Y-70.924
X159.374Y-78.111
X159.392Y-69.726
X160.0Y-68.067
X160.31Y-75.409
X163.85Y-72.662
X165.559Y-93.444
X165.711Y-89.705
X168.882Y-71.5
X169.579Y-89.946
X170.332Y-90.528
X171.025Y-92.624
X174.701Y-93.439
X174.739Y-61.308
X179.3Y-68.733
X180.068Y-98.58
X180.5Y-91.198
X180.534Y-87.691
X180.855Y-60.883
X181.928Y-68.676
X181.929Y-74.0
X185.001Y-79.838
X185.5Y-65.334
X186.31Y-66.883
X189.517Y-75.249
X193.926Y-82.106
T2
X110.81Y-79.3
X110.81Y-80.7
X111.51Y-78.6
X111.51Y-80.0
X111.51Y-81.4
X112.21Y-79.3
X112.21Y-80.7
X112.91Y-78.6
X112.91Y-80.0
X112.91Y-81.4
X113.61Y-79.3
X113.61Y-80.7
T4
X145.11Y-94.2
X150.89Y-94.2
T5
X110.0Y-97.0
X125.0Y-54.0
X192.0Y-54.0
X192.0Y-96.0
T3
X143.68Y-93.12G85X143.68Y-94.22
G05
X143.68Y-97.55G85X143.68Y-98.15
G05
X152.32Y-93.12G85X152.32Y-94.22
G05
X152.32Y-97.55G85X152.32Y-98.15
G05
M30
