%TF.GenerationSoftware,KiCad,Pcbnew,10.0.4*%
%TF.CreationDate,2026-07-11T05:23:01-07:00*%
%TF.ProjectId,pager,70616765-722e-46b6-9963-61645f706362,B*%
%TF.SameCoordinates,Original*%
%TF.FileFunction,Soldermask,Top*%
%TF.FilePolarity,Negative*%
%FSLAX46Y46*%
G04 Gerber Fmt 4.6, Leading zero omitted, Abs format (unit mm)*
G04 Created by KiCad (PCBNEW 10.0.4) date 2026-07-11 05:23:01*
%MOMM*%
%LPD*%
G01*
G04 APERTURE LIST*
G04 Aperture macros list*
%AMRoundRect*
0 Rectangle with rounded corners*
0 $1 Rounding radius*
0 $2 $3 $4 $5 $6 $7 $8 $9 X,Y pos of 4 corners*
0 Add a 4 corners polygon primitive as box body*
4,1,4,$2,$3,$4,$5,$6,$7,$8,$9,$2,$3,0*
0 Add four circle primitives for the rounded corners*
1,1,$1+$1,$2,$3*
1,1,$1+$1,$4,$5*
1,1,$1+$1,$6,$7*
1,1,$1+$1,$8,$9*
0 Add four rect primitives between the rounded corners*
20,1,$1+$1,$2,$3,$4,$5,0*
20,1,$1+$1,$4,$5,$6,$7,0*
20,1,$1+$1,$6,$7,$8,$9,0*
20,1,$1+$1,$8,$9,$2,$3,0*%
G04 Aperture macros list end*
%ADD10RoundRect,0.200000X-0.200000X-0.275000X0.200000X-0.275000X0.200000X0.275000X-0.200000X0.275000X0*%
%ADD11C,3.000000*%
%ADD12RoundRect,0.175000X-0.175000X-1.675000X0.175000X-1.675000X0.175000X1.675000X-0.175000X1.675000X0*%
%ADD13RoundRect,0.250001X-0.499999X-0.899999X0.499999X-0.899999X0.499999X0.899999X-0.499999X0.899999X0*%
%ADD14RoundRect,0.225000X-0.225000X-0.250000X0.225000X-0.250000X0.225000X0.250000X-0.225000X0.250000X0*%
%ADD15RoundRect,0.250000X0.475000X-0.250000X0.475000X0.250000X-0.475000X0.250000X-0.475000X-0.250000X0*%
%ADD16R,1.500000X1.500000*%
%ADD17RoundRect,0.150000X-0.587500X-0.150000X0.587500X-0.150000X0.587500X0.150000X-0.587500X0.150000X0*%
%ADD18RoundRect,0.225000X-0.225000X-0.375000X0.225000X-0.375000X0.225000X0.375000X-0.225000X0.375000X0*%
%ADD19RoundRect,0.175000X-1.675000X0.175000X-1.675000X-0.175000X1.675000X-0.175000X1.675000X0.175000X0*%
%ADD20RoundRect,0.250001X-0.899999X0.499999X-0.899999X-0.499999X0.899999X-0.499999X0.899999X0.499999X0*%
%ADD21RoundRect,0.250000X-0.250000X0.275000X-0.250000X-0.275000X0.250000X-0.275000X0.250000X0.275000X0*%
%ADD22RoundRect,0.250000X-0.275000X0.850000X-0.275000X-0.850000X0.275000X-0.850000X0.275000X0.850000X0*%
%ADD23RoundRect,0.250000X-1.000000X-0.650000X1.000000X-0.650000X1.000000X0.650000X-1.000000X0.650000X0*%
%ADD24RoundRect,0.200000X0.275000X-0.200000X0.275000X0.200000X-0.275000X0.200000X-0.275000X-0.200000X0*%
%ADD25RoundRect,0.250000X-0.250000X-0.475000X0.250000X-0.475000X0.250000X0.475000X-0.250000X0.475000X0*%
%ADD26C,2.200000*%
%ADD27R,1.000000X0.750000*%
%ADD28RoundRect,0.150000X0.512500X0.150000X-0.512500X0.150000X-0.512500X-0.150000X0.512500X-0.150000X0*%
%ADD29RoundRect,0.225000X0.250000X-0.225000X0.250000X0.225000X-0.250000X0.225000X-0.250000X-0.225000X0*%
%ADD30R,1.600000X3.900000*%
%ADD31R,2.400000X2.400000*%
%ADD32RoundRect,0.218750X0.218750X0.256250X-0.218750X0.256250X-0.218750X-0.256250X0.218750X-0.256250X0*%
%ADD33RoundRect,0.250000X0.450000X-0.262500X0.450000X0.262500X-0.450000X0.262500X-0.450000X-0.262500X0*%
%ADD34RoundRect,0.150000X-0.512500X-0.150000X0.512500X-0.150000X0.512500X0.150000X-0.512500X0.150000X0*%
%ADD35RoundRect,0.218750X-0.218750X-0.256250X0.218750X-0.256250X0.218750X0.256250X-0.218750X0.256250X0*%
%ADD36R,0.600000X1.200000*%
%ADD37R,3.300000X2.400000*%
%ADD38R,1.100000X0.600000*%
%ADD39C,0.650000*%
%ADD40RoundRect,0.150000X-0.150000X-0.575000X0.150000X-0.575000X0.150000X0.575000X-0.150000X0.575000X0*%
%ADD41RoundRect,0.075000X-0.075000X-0.650000X0.075000X-0.650000X0.075000X0.650000X-0.075000X0.650000X0*%
%ADD42O,1.000000X2.100000*%
%ADD43O,1.000000X1.600000*%
%ADD44RoundRect,0.147500X0.147500X0.172500X-0.147500X0.172500X-0.147500X-0.172500X0.147500X-0.172500X0*%
%ADD45RoundRect,0.250000X1.500000X-0.250000X1.500000X0.250000X-1.500000X0.250000X-1.500000X-0.250000X0*%
%ADD46RoundRect,0.250001X1.449999X-0.499999X1.449999X0.499999X-1.449999X0.499999X-1.449999X-0.499999X0*%
%ADD47R,0.250000X1.000000*%
%ADD48R,0.600000X1.000000*%
%ADD49O,1.773000X0.700000*%
%ADD50RoundRect,0.250000X-0.275000X-0.250000X0.275000X-0.250000X0.275000X0.250000X-0.275000X0.250000X0*%
%ADD51RoundRect,0.250000X-0.850000X-0.275000X0.850000X-0.275000X0.850000X0.275000X-0.850000X0.275000X0*%
%ADD52R,0.900000X1.500000*%
%ADD53R,1.500000X0.900000*%
%ADD54C,0.600000*%
%ADD55R,3.900000X3.900000*%
%ADD56R,2.000000X1.200000*%
G04 APERTURE END LIST*
%TO.C,ANT2*%
G36*
X191560000Y-79610000D02*
G01*
X193440000Y-79610000D01*
X193440000Y-81700000D01*
X191560000Y-81700000D01*
X191560000Y-79610000D01*
G37*
%TO.C,ANT1*%
G36*
X125010000Y-66560000D02*
G01*
X127100000Y-66560000D01*
X127100000Y-68440000D01*
X125010000Y-68440000D01*
X125010000Y-66560000D01*
G37*
%TD*%
D10*
%TO.C,R105*%
X127175000Y-98500000D03*
X128825000Y-98500000D03*
%TD*%
D11*
%TO.C,FID2*%
X150500000Y-51800000D03*
%TD*%
D10*
%TO.C,R408*%
X170175000Y-92000000D03*
X171825000Y-92000000D03*
%TD*%
D12*
%TO.C,I2C1*%
X167750000Y-97200000D03*
X169250000Y-97200000D03*
X170750000Y-97200000D03*
X172250000Y-97200000D03*
D13*
X165700000Y-95100000D03*
X174300000Y-95100000D03*
%TD*%
D10*
%TO.C,R407*%
X166175000Y-92000000D03*
X167825000Y-92000000D03*
%TD*%
D14*
%TO.C,C307*%
X146225000Y-73500000D03*
X147775000Y-73500000D03*
%TD*%
D10*
%TO.C,R404*%
X179675000Y-91500000D03*
X181325000Y-91500000D03*
%TD*%
D15*
%TO.C,C104*%
X159500000Y-94450000D03*
X159500000Y-92550000D03*
%TD*%
%TO.C,C201*%
X125500000Y-59450000D03*
X125500000Y-57550000D03*
%TD*%
D10*
%TO.C,R102*%
X137775000Y-98850000D03*
X139425000Y-98850000D03*
%TD*%
D16*
%TO.C,TP2*%
X104600000Y-91000000D03*
%TD*%
D17*
%TO.C,Q201*%
X178562500Y-68050000D03*
X178562500Y-69950000D03*
X180437500Y-69000000D03*
%TD*%
D18*
%TO.C,D303*%
X160850000Y-70500000D03*
X164150000Y-70500000D03*
%TD*%
D19*
%TO.C,VIB1*%
X191300000Y-60250000D03*
X191300000Y-61750000D03*
D20*
X193400000Y-58200000D03*
X193400000Y-63800000D03*
%TD*%
D10*
%TO.C,R406*%
X147175000Y-81500000D03*
X148825000Y-81500000D03*
%TD*%
D14*
%TO.C,C405*%
X146725000Y-70900000D03*
X148275000Y-70900000D03*
%TD*%
D16*
%TO.C,TP6*%
X187300000Y-59900000D03*
%TD*%
D21*
%TO.C,ANT2*%
X192500000Y-79075000D03*
D22*
X193975000Y-80600000D03*
X191025000Y-80600000D03*
%TD*%
D23*
%TO.C,D401*%
X178500000Y-81800000D03*
X182500000Y-81800000D03*
%TD*%
D24*
%TO.C,R109*%
X159000000Y-97825000D03*
X159000000Y-96175000D03*
%TD*%
D14*
%TO.C,C205*%
X178725000Y-76500000D03*
X180275000Y-76500000D03*
%TD*%
D25*
%TO.C,C204*%
X178550000Y-74000000D03*
X180450000Y-74000000D03*
%TD*%
D10*
%TO.C,R103*%
X116375000Y-98900000D03*
X118025000Y-98900000D03*
%TD*%
D16*
%TO.C,TP1*%
X133600000Y-69800000D03*
%TD*%
D10*
%TO.C,R402*%
X179675000Y-89000000D03*
X181325000Y-89000000D03*
%TD*%
D15*
%TO.C,C401*%
X126500000Y-79950000D03*
X126500000Y-78050000D03*
%TD*%
D26*
%TO.C,H2*%
X192000000Y-54000000D03*
%TD*%
D25*
%TO.C,C102*%
X115550000Y-89500000D03*
X117450000Y-89500000D03*
%TD*%
D26*
%TO.C,H4*%
X192000000Y-96000000D03*
%TD*%
D27*
%TO.C,SW404*%
X157000000Y-85650000D03*
X163000000Y-85650000D03*
X157000000Y-89350000D03*
X163000000Y-89350000D03*
%TD*%
D17*
%TO.C,Q401*%
X179562500Y-85050000D03*
X179562500Y-86950000D03*
X181437500Y-86000000D03*
%TD*%
D15*
%TO.C,C105*%
X162500000Y-94450000D03*
X162500000Y-92550000D03*
%TD*%
D28*
%TO.C,U101*%
X141337500Y-92550000D03*
X141337500Y-91600000D03*
X141337500Y-90650000D03*
X139062500Y-90650000D03*
X139062500Y-91600000D03*
X139062500Y-92550000D03*
%TD*%
D29*
%TO.C,C403*%
X126500000Y-76275000D03*
X126500000Y-74725000D03*
%TD*%
D25*
%TO.C,C301*%
X165850000Y-68000000D03*
X167750000Y-68000000D03*
%TD*%
D23*
%TO.C,D402*%
X176500000Y-53000000D03*
X180500000Y-53000000D03*
%TD*%
D30*
%TO.C,L301*%
X161500000Y-76000000D03*
X164500000Y-76000000D03*
%TD*%
D15*
%TO.C,C203*%
X186500000Y-64450000D03*
X186500000Y-62550000D03*
%TD*%
D25*
%TO.C,C302*%
X156550000Y-70500000D03*
X158450000Y-70500000D03*
%TD*%
D29*
%TO.C,C107*%
X162000000Y-97775000D03*
X162000000Y-96225000D03*
%TD*%
D14*
%TO.C,C304*%
X142725000Y-73500000D03*
X144275000Y-73500000D03*
%TD*%
D10*
%TO.C,R106*%
X122175000Y-89500000D03*
X123825000Y-89500000D03*
%TD*%
D14*
%TO.C,C303*%
X156725000Y-73500000D03*
X158275000Y-73500000D03*
%TD*%
D16*
%TO.C,TP3*%
X107400000Y-91000000D03*
%TD*%
D11*
%TO.C,FID3*%
X188000000Y-98300000D03*
%TD*%
D10*
%TO.C,R201*%
X178675000Y-71500000D03*
X180325000Y-71500000D03*
%TD*%
D18*
%TO.C,D302*%
X155850000Y-68000000D03*
X159150000Y-68000000D03*
%TD*%
D14*
%TO.C,C306*%
X149725000Y-73500000D03*
X151275000Y-73500000D03*
%TD*%
D10*
%TO.C,R202*%
X178675000Y-66500000D03*
X180325000Y-66500000D03*
%TD*%
D24*
%TO.C,R401*%
X126500000Y-72825000D03*
X126500000Y-71175000D03*
%TD*%
D31*
%TO.C,BZ1*%
X167900000Y-89100000D03*
X175100000Y-89100000D03*
X175100000Y-81900000D03*
X167900000Y-81900000D03*
%TD*%
D24*
%TO.C,R107*%
X139000000Y-83325000D03*
X139000000Y-81675000D03*
%TD*%
D11*
%TO.C,FID1*%
X104500000Y-51500000D03*
%TD*%
D23*
%TO.C,D101*%
X134000000Y-78500000D03*
X138000000Y-78500000D03*
%TD*%
D32*
%TO.C,LED101*%
X109687500Y-93700000D03*
X108112500Y-93700000D03*
%TD*%
D17*
%TO.C,Q101*%
X134562500Y-81050000D03*
X134562500Y-82950000D03*
X136437500Y-82000000D03*
%TD*%
D33*
%TO.C,R302*%
X170500000Y-76912500D03*
X170500000Y-75087500D03*
%TD*%
D27*
%TO.C,SW401*%
X176000000Y-94450000D03*
X182000000Y-94450000D03*
X176000000Y-98150000D03*
X182000000Y-98150000D03*
%TD*%
D34*
%TO.C,U103*%
X121862500Y-91050000D03*
X121862500Y-92000000D03*
X121862500Y-92950000D03*
X124137500Y-92950000D03*
X124137500Y-92000000D03*
X124137500Y-91050000D03*
%TD*%
D18*
%TO.C,D201*%
X180350000Y-64500000D03*
X183650000Y-64500000D03*
%TD*%
D10*
%TO.C,R405*%
X173675000Y-59500000D03*
X175325000Y-59500000D03*
%TD*%
D27*
%TO.C,SW403*%
X145000000Y-85650000D03*
X151000000Y-85650000D03*
X145000000Y-89350000D03*
X151000000Y-89350000D03*
%TD*%
D29*
%TO.C,C202*%
X125500000Y-62775000D03*
X125500000Y-61225000D03*
%TD*%
D10*
%TO.C,R104*%
X104775000Y-93700000D03*
X106425000Y-93700000D03*
%TD*%
D35*
%TO.C,LED102*%
X130712500Y-98500000D03*
X132287500Y-98500000D03*
%TD*%
D24*
%TO.C,R101*%
X137000000Y-96325000D03*
X137000000Y-94675000D03*
%TD*%
D36*
%TO.C,U102*%
X115090000Y-96910000D03*
X116370000Y-96910000D03*
X117640000Y-96910000D03*
X118910000Y-96910000D03*
X118910000Y-91090000D03*
X117640000Y-91090000D03*
X116370000Y-91090000D03*
X115090000Y-91090000D03*
D37*
X117000000Y-94000000D03*
%TD*%
D10*
%TO.C,R301*%
X165675000Y-70500000D03*
X167325000Y-70500000D03*
%TD*%
D27*
%TO.C,SW402*%
X133000000Y-85650000D03*
X139000000Y-85650000D03*
X133000000Y-89350000D03*
X139000000Y-89350000D03*
%TD*%
D18*
%TO.C,D301*%
X160850000Y-68000000D03*
X164150000Y-68000000D03*
%TD*%
D14*
%TO.C,C310*%
X132225000Y-73500000D03*
X133775000Y-73500000D03*
%TD*%
%TO.C,C309*%
X135725000Y-73500000D03*
X137275000Y-73500000D03*
%TD*%
D38*
%TO.C,U104*%
X131850000Y-92950000D03*
X131850000Y-92000000D03*
X131850000Y-91050000D03*
X129150000Y-91050000D03*
X129150000Y-92000000D03*
X129150000Y-92950000D03*
%TD*%
D39*
%TO.C,USBC1*%
X145110000Y-94200000D03*
X150890000Y-94200000D03*
D40*
X144750000Y-92755000D03*
X145550000Y-92755000D03*
D41*
X146750000Y-92755000D03*
X147750000Y-92755000D03*
X148250000Y-92755000D03*
X149250000Y-92755000D03*
D40*
X150450000Y-92755000D03*
X151250000Y-92755000D03*
X151250000Y-92755000D03*
X150450000Y-92755000D03*
D41*
X149750000Y-92755000D03*
X148750000Y-92755000D03*
X147250000Y-92755000D03*
X146250000Y-92755000D03*
D40*
X145550000Y-92755000D03*
X144750000Y-92755000D03*
D42*
X143680000Y-93670000D03*
D43*
X143680000Y-97850000D03*
D42*
X152320000Y-93670000D03*
D43*
X152320000Y-97850000D03*
%TD*%
D44*
%TO.C,L201*%
X188785000Y-79050000D03*
X187815000Y-79050000D03*
%TD*%
D17*
%TO.C,Q301*%
X166562500Y-75050000D03*
X166562500Y-76950000D03*
X168437500Y-76000000D03*
%TD*%
D24*
%TO.C,R108*%
X156000000Y-97825000D03*
X156000000Y-96175000D03*
%TD*%
D14*
%TO.C,C308*%
X139225000Y-73500000D03*
X140775000Y-73500000D03*
%TD*%
D17*
%TO.C,Q402*%
X177062500Y-56050000D03*
X177062500Y-57950000D03*
X178937500Y-57000000D03*
%TD*%
D29*
%TO.C,C402*%
X126500000Y-83275000D03*
X126500000Y-81725000D03*
%TD*%
D35*
%TO.C,LED401*%
X147212500Y-84000000D03*
X148787500Y-84000000D03*
%TD*%
D29*
%TO.C,C106*%
X126500000Y-92775000D03*
X126500000Y-91225000D03*
%TD*%
D45*
%TO.C,BATT1*%
X187650000Y-89000000D03*
X187650000Y-87000000D03*
D46*
X193400000Y-91350000D03*
X193400000Y-84650000D03*
%TD*%
D47*
%TO.C,EPD1*%
X145750000Y-78750000D03*
X146250000Y-78750000D03*
X146750000Y-78750000D03*
X147250000Y-78750000D03*
X147750000Y-78750000D03*
X148250000Y-78750000D03*
X148750000Y-78750000D03*
X149250000Y-78750000D03*
X149750000Y-78750000D03*
X150250000Y-78750000D03*
X150750000Y-78750000D03*
X151250000Y-78750000D03*
X151750000Y-78750000D03*
X152250000Y-78750000D03*
X152750000Y-78750000D03*
X153250000Y-78750000D03*
X153750000Y-78750000D03*
X154250000Y-78750000D03*
X154750000Y-78750000D03*
X155250000Y-78750000D03*
X155750000Y-78750000D03*
X156250000Y-78750000D03*
X156750000Y-78750000D03*
X157250000Y-78750000D03*
D48*
X158250000Y-76250000D03*
X144750000Y-76250000D03*
%TD*%
D26*
%TO.C,H3*%
X110000000Y-97000000D03*
%TD*%
D49*
%TO.C,U202*%
X183690000Y-68600000D03*
X183690000Y-69700000D03*
X183690000Y-70800000D03*
X183690000Y-71900000D03*
X183690000Y-73000000D03*
X183690000Y-74100000D03*
X183690000Y-75200000D03*
X183690000Y-76300000D03*
X183690000Y-77400000D03*
X193310000Y-77400000D03*
X193310000Y-76300000D03*
X193310000Y-75200000D03*
X193310000Y-74100000D03*
X193310000Y-73000000D03*
X193310000Y-71900000D03*
X193310000Y-70800000D03*
X193310000Y-69700000D03*
X193310000Y-68600000D03*
%TD*%
D16*
%TO.C,TP5*%
X184300000Y-59900000D03*
%TD*%
D14*
%TO.C,C404*%
X151825000Y-83200000D03*
X153375000Y-83200000D03*
%TD*%
D26*
%TO.C,H1*%
X125000000Y-54000000D03*
%TD*%
D14*
%TO.C,C305*%
X153225000Y-73500000D03*
X154775000Y-73500000D03*
%TD*%
D25*
%TO.C,C101*%
X154550000Y-89500000D03*
X156450000Y-89500000D03*
%TD*%
D50*
%TO.C,ANT1*%
X124475000Y-67500000D03*
D51*
X126000000Y-66025000D03*
X126000000Y-68975000D03*
%TD*%
D52*
%TO.C,U401*%
X104490000Y-87250000D03*
X105760000Y-87250000D03*
X107030000Y-87250000D03*
X108300000Y-87250000D03*
X109570000Y-87250000D03*
X110840000Y-87250000D03*
X112110000Y-87250000D03*
X113380000Y-87250000D03*
X114650000Y-87250000D03*
X115920000Y-87250000D03*
X117190000Y-87250000D03*
X118460000Y-87250000D03*
X119730000Y-87250000D03*
X121000000Y-87250000D03*
D53*
X122250000Y-85485000D03*
X122250000Y-84215000D03*
X122250000Y-82945000D03*
X122250000Y-81675000D03*
X122250000Y-80405000D03*
X122250000Y-79135000D03*
X122250000Y-77865000D03*
X122250000Y-76595000D03*
X122250000Y-75325000D03*
X122250000Y-74055000D03*
X122250000Y-72785000D03*
X122250000Y-71515000D03*
D52*
X121000000Y-69750000D03*
X119730000Y-69750000D03*
X118460000Y-69750000D03*
X117190000Y-69750000D03*
X115920000Y-69750000D03*
X114650000Y-69750000D03*
X113380000Y-69750000D03*
X112110000Y-69750000D03*
X110840000Y-69750000D03*
X109570000Y-69750000D03*
X108300000Y-69750000D03*
X107030000Y-69750000D03*
X105760000Y-69750000D03*
X104490000Y-69750000D03*
D54*
X111510000Y-81400000D03*
X112910000Y-81400000D03*
X110810000Y-80700000D03*
X112210000Y-80700000D03*
X113610000Y-80700000D03*
X111510000Y-80000000D03*
D55*
X112210000Y-80000000D03*
D54*
X112910000Y-80000000D03*
X110810000Y-79300000D03*
X112210000Y-79300000D03*
X113610000Y-79300000D03*
X111510000Y-78600000D03*
X112910000Y-78600000D03*
%TD*%
D10*
%TO.C,R403*%
X172175000Y-55000000D03*
X173825000Y-55000000D03*
%TD*%
D16*
%TO.C,TP4*%
X141100000Y-78400000D03*
%TD*%
D34*
%TO.C,U105*%
X154862500Y-92550000D03*
X154862500Y-93500000D03*
X154862500Y-94450000D03*
X157137500Y-94450000D03*
X157137500Y-92550000D03*
%TD*%
D56*
%TO.C,U201*%
X106500000Y-53500000D03*
X106500000Y-55500000D03*
X106500000Y-57500000D03*
X106500000Y-59500000D03*
X106500000Y-61500000D03*
X106500000Y-63500000D03*
X106500000Y-65500000D03*
X106500000Y-67500000D03*
X122500000Y-67500000D03*
X122500000Y-65500000D03*
X122500000Y-63500000D03*
X122500000Y-61500000D03*
X122500000Y-59500000D03*
X122500000Y-57500000D03*
X122500000Y-55500000D03*
X122500000Y-53500000D03*
%TD*%
M02*
