M48
; DRILL file KiCad 10.0.4 date 2026-07-11T05:23:01
; FORMAT={-:-/ absolute / metric / decimal}
; #@! TF.CreationDate,2026-07-11T05:23:01-07:00
; #@! TF.GenerationSoftware,Kicad,Pcbnew,10.0.4
; #@! TF.FileFunction,MixedPlating,1,2
FMAT,2
METRIC
; #@! TA.AperFunction,Plated,PTH,ViaDrill
T1C0.300
; #@! TA.AperFunction,Plated,PTH,ComponentDrill
T2C0.300
; #@! TA.AperFunction,Plated,PTH,ComponentDrill
T3C0.600
; #@! TA.AperFunction,NonPlated,NPTH,ComponentDrill
T4C0.650
; #@! TA.AperFunction,NonPlated,NPTH,ComponentDrill
T5C2.200
%
G90
G05
T1
X104.4Y-68.3
X104.775Y-93.2
X105.059Y-59.5
X105.554Y-58.486
X105.746Y-70.907
X106.059Y-56.482
X106.262Y-91.0
X106.403Y-62.498
X109.957Y-74.629
X110.0Y-55.0
X111.296Y-85.714
X111.307Y-82.965
X111.823Y-86.117
X112.472Y-84.856
X112.543Y-82.407
X113.6Y-91.52
X113.878Y-85.496
X115.09Y-92.074
X115.116Y-86.112
X115.7Y-93.85
X115.7Y-94.8
X115.92Y-68.55
X116.49Y-89.168
X116.6Y-94.85
X116.88Y-91.3
X117.075Y-80.405
X117.283Y-81.868
X117.35Y-93.15
X117.595Y-85.897
X118.3Y-93.3
X118.3Y-94.25
X118.352Y-89.866
X118.46Y-68.55
X118.7Y-82.865
X119.193Y-88.406
X119.73Y-68.55
X119.73Y-89.3
X119.842Y-95.978
X120.233Y-81.275
X120.351Y-84.712
X120.567Y-53.485
X120.94Y-85.276
X121.0Y-88.6
X121.096Y-84.202
X121.115Y-77.865
X121.508Y-93.696
X123.361Y-76.733
X123.4Y-81.182
X123.46Y-56.5
X123.8Y-69.85
X123.95Y-66.15
X124.14Y-73.858
X124.554Y-83.736
X124.557Y-87.207
X125.442Y-73.899
X126.701Y-77.115
X128.212Y-91.591
X128.496Y-71.676
X128.579Y-82.135
X130.13Y-67.194
X131.413Y-97.833
X132.0Y-58.0
X132.105Y-93.646
X132.409Y-70.263
X133.561Y-81.554
X135.0Y-53.3
X136.353Y-72.021
X137.62Y-84.038
X137.781Y-79.891
X137.98Y-80.523
X138.0Y-90.65
X138.0Y-93.0
X140.108Y-91.598
X140.25Y-75.271
X140.3Y-94.0
X141.802Y-94.61
X143.061Y-79.539
X143.286Y-95.742
X143.762Y-85.481
X144.514Y-79.492
X145.041Y-91.6
X145.909Y-89.131
X146.297Y-77.538
X147.012Y-76.917
X147.25Y-95.4
X147.75Y-94.3
X147.783Y-86.627
X148.25Y-95.4
X148.75Y-94.3
X151.115Y-77.917
X151.229Y-97.853
X151.256Y-80.433
X151.801Y-77.843
X151.839Y-80.003
X151.91Y-95.919
X152.403Y-87.239
X152.75Y-77.84
X152.934Y-67.216
X154.107Y-84.67
X155.116Y-91.157
X158.123Y-97.825
X159.221Y-80.313
X159.35Y-70.924
X159.375Y-78.141
X159.392Y-69.726
X160.0Y-53.4
X160.0Y-68.067
X160.31Y-75.409
X163.864Y-72.648
X165.573Y-93.459
X165.711Y-89.705
X168.882Y-71.5
X169.579Y-89.966
X170.332Y-90.528
X171.025Y-92.624
X174.701Y-93.439
X174.785Y-61.327
X179.3Y-68.713
X180.068Y-98.58
X180.5Y-91.198
X180.534Y-87.691
X180.855Y-60.883
X181.928Y-68.706
X181.929Y-74.0
X185.001Y-79.838
X185.5Y-65.334
X186.31Y-66.883
X189.517Y-75.249
X193.926Y-82.106
T2
X110.81Y-79.3
X110.81Y-80.7
X111.51Y-78.6
X111.51Y-80.0
X111.51Y-81.4
X112.21Y-79.3
X112.21Y-80.7
X112.91Y-78.6
X112.91Y-80.0
X112.91Y-81.4
X113.61Y-79.3
X113.61Y-80.7
T4
X145.11Y-94.2
X150.89Y-94.2
T5
X110.0Y-97.0
X125.0Y-54.0
X192.0Y-54.0
X192.0Y-96.0
T3
X143.68Y-93.12G85X143.68Y-94.22
G05
X143.68Y-97.55G85X143.68Y-98.15
G05
X152.32Y-93.12G85X152.32Y-94.22
G05
X152.32Y-97.55G85X152.32Y-98.15
G05
M30
