%TF.GenerationSoftware,KiCad,Pcbnew,10.0.4*%
%TF.CreationDate,2026-07-10T22:34:03-07:00*%
%TF.ProjectId,pager,70616765-722e-46b6-9963-61645f706362,rev?*%
%TF.SameCoordinates,Original*%
%TF.FileFunction,Other,User*%
%FSLAX46Y46*%
G04 Gerber Fmt 4.6, Leading zero omitted, Abs format (unit mm)*
G04 Created by KiCad (PCBNEW 10.0.4) date 2026-07-10 22:34:03*
%MOMM*%
%LPD*%
G01*
G04 APERTURE LIST*
%ADD10C,0.050000*%
G04 APERTURE END LIST*
%TO.C,R105*%
D10*
X126520000Y-97770000D02*
X129480000Y-97770000D01*
X129480000Y-99230000D01*
X126520000Y-99230000D01*
X126520000Y-97770000D01*
%TO.C,FID2*%
X152250000Y-51800000D02*
G75*
G02*
X148750000Y-51800000I-1750000J0D01*
G01*
X148750000Y-51800000D02*
G75*
G02*
X152250000Y-51800000I1750000J0D01*
G01*
%TO.C,R408*%
X169520000Y-91270000D02*
X172480000Y-91270000D01*
X172480000Y-92730000D01*
X169520000Y-92730000D01*
X169520000Y-91270000D01*
%TO.C,I2C1*%
X164450000Y-93450000D02*
X165000000Y-93450000D01*
X164450000Y-96750000D02*
X164450000Y-93450000D01*
X165000000Y-92850000D02*
X175000000Y-92850000D01*
X165000000Y-93450000D02*
X165000000Y-92850000D01*
X165000000Y-96750000D02*
X164450000Y-96750000D01*
X165000000Y-97550000D02*
X165000000Y-96750000D01*
X166900000Y-97550000D02*
X165000000Y-97550000D01*
X166900000Y-99550000D02*
X166900000Y-97550000D01*
X173100000Y-97550000D02*
X173100000Y-99550000D01*
X173100000Y-99550000D02*
X166900000Y-99550000D01*
X175000000Y-92850000D02*
X175000000Y-93450000D01*
X175000000Y-93450000D02*
X175550000Y-93450000D01*
X175000000Y-96750000D02*
X175000000Y-97550000D01*
X175000000Y-97550000D02*
X173100000Y-97550000D01*
X175550000Y-93450000D02*
X175550000Y-96750000D01*
X175550000Y-96750000D02*
X175000000Y-96750000D01*
%TO.C,R407*%
X165520000Y-91270000D02*
X168480000Y-91270000D01*
X168480000Y-92730000D01*
X165520000Y-92730000D01*
X165520000Y-91270000D01*
%TO.C,C307*%
X145520000Y-72770000D02*
X148480000Y-72770000D01*
X148480000Y-74230000D01*
X145520000Y-74230000D01*
X145520000Y-72770000D01*
%TO.C,R404*%
X179020000Y-90770000D02*
X181980000Y-90770000D01*
X181980000Y-92230000D01*
X179020000Y-92230000D01*
X179020000Y-90770000D01*
%TO.C,C104*%
X158520000Y-91800000D02*
X160480000Y-91800000D01*
X160480000Y-95200000D01*
X158520000Y-95200000D01*
X158520000Y-91800000D01*
%TO.C,C201*%
X124520000Y-56800000D02*
X126480000Y-56800000D01*
X126480000Y-60200000D01*
X124520000Y-60200000D01*
X124520000Y-56800000D01*
%TO.C,R102*%
X137120000Y-98120000D02*
X140080000Y-98120000D01*
X140080000Y-99580000D01*
X137120000Y-99580000D01*
X137120000Y-98120000D01*
%TO.C,TP2*%
X103350000Y-89750000D02*
X103350000Y-92250000D01*
X103350000Y-89750000D02*
X105850000Y-89750000D01*
X105850000Y-92250000D02*
X103350000Y-92250000D01*
X105850000Y-92250000D02*
X105850000Y-89750000D01*
%TO.C,Q201*%
X177570000Y-67500000D02*
X178600000Y-67500000D01*
X177570000Y-68610000D02*
X177570000Y-67500000D01*
X177570000Y-69390000D02*
X178600000Y-69390000D01*
X177570000Y-70500000D02*
X177570000Y-69390000D01*
X178600000Y-67300000D02*
X180400000Y-67300000D01*
X178600000Y-67500000D02*
X178600000Y-67300000D01*
X178600000Y-68610000D02*
X177570000Y-68610000D01*
X178600000Y-69390000D02*
X178600000Y-68610000D01*
X178600000Y-70500000D02*
X177570000Y-70500000D01*
X178600000Y-70700000D02*
X178600000Y-70500000D01*
X180400000Y-67300000D02*
X180400000Y-68450000D01*
X180400000Y-68450000D02*
X181430000Y-68450000D01*
X180400000Y-69550000D02*
X180400000Y-70700000D01*
X180400000Y-70700000D02*
X178600000Y-70700000D01*
X181430000Y-68450000D02*
X181430000Y-69550000D01*
X181430000Y-69550000D02*
X180400000Y-69550000D01*
%TO.C,D303*%
X160150000Y-69350000D02*
X160150000Y-71650000D01*
X160150000Y-69350000D02*
X164850000Y-69350000D01*
X164850000Y-69350000D02*
X164850000Y-71650000D01*
X164850000Y-71650000D02*
X160150000Y-71650000D01*
%TO.C,VIB1*%
X188950000Y-59400000D02*
X190950000Y-59400000D01*
X188950000Y-62600000D02*
X188950000Y-59400000D01*
X190950000Y-57500000D02*
X191750000Y-57500000D01*
X190950000Y-59400000D02*
X190950000Y-57500000D01*
X190950000Y-62600000D02*
X188950000Y-62600000D01*
X190950000Y-64500000D02*
X190950000Y-62600000D01*
X191750000Y-56950000D02*
X195050000Y-56950000D01*
X191750000Y-57500000D02*
X191750000Y-56950000D01*
X191750000Y-64500000D02*
X190950000Y-64500000D01*
X191750000Y-65050000D02*
X191750000Y-64500000D01*
X195050000Y-56950000D02*
X195050000Y-57500000D01*
X195050000Y-57500000D02*
X195650000Y-57500000D01*
X195050000Y-64500000D02*
X195050000Y-65050000D01*
X195050000Y-65050000D02*
X191750000Y-65050000D01*
X195650000Y-57500000D02*
X195650000Y-64500000D01*
X195650000Y-64500000D02*
X195050000Y-64500000D01*
%TO.C,R406*%
X146520000Y-80770000D02*
X149480000Y-80770000D01*
X149480000Y-82230000D01*
X146520000Y-82230000D01*
X146520000Y-80770000D01*
%TO.C,C405*%
X146020000Y-70170000D02*
X148980000Y-70170000D01*
X148980000Y-71630000D01*
X146020000Y-71630000D01*
X146020000Y-70170000D01*
%TO.C,TP6*%
X186050000Y-58650000D02*
X186050000Y-61150000D01*
X186050000Y-58650000D02*
X188550000Y-58650000D01*
X188550000Y-61150000D02*
X186050000Y-61150000D01*
X188550000Y-61150000D02*
X188550000Y-58650000D01*
%TO.C,ANT2*%
X194300000Y-82200000D02*
X194300000Y-82400000D01*
X190700000Y-82400000D01*
X190700000Y-82200000D01*
X190000000Y-82200000D01*
X190000000Y-79000000D01*
X190700000Y-79000000D01*
X190700000Y-78800000D01*
X191500000Y-78800000D01*
X191500000Y-78050000D01*
X193500000Y-78050000D01*
X193500000Y-78800000D01*
X194300000Y-78800000D01*
X194300000Y-79000000D01*
X195000000Y-79000000D01*
X195000000Y-82200000D01*
X194300000Y-82200000D01*
%TO.C,D401*%
X177000000Y-80050000D02*
X184000000Y-80050000D01*
X177000000Y-83550000D02*
X177000000Y-80050000D01*
X184000000Y-80050000D02*
X184000000Y-83550000D01*
X184000000Y-83550000D02*
X177000000Y-83550000D01*
%TO.C,R109*%
X158270000Y-95520000D02*
X159730000Y-95520000D01*
X159730000Y-98480000D01*
X158270000Y-98480000D01*
X158270000Y-95520000D01*
%TO.C,C205*%
X178020000Y-75770000D02*
X180980000Y-75770000D01*
X180980000Y-77230000D01*
X178020000Y-77230000D01*
X178020000Y-75770000D01*
%TO.C,C204*%
X177800000Y-73020000D02*
X181200000Y-73020000D01*
X181200000Y-74980000D01*
X177800000Y-74980000D01*
X177800000Y-73020000D01*
%TO.C,R103*%
X115720000Y-98170000D02*
X118680000Y-98170000D01*
X118680000Y-99630000D01*
X115720000Y-99630000D01*
X115720000Y-98170000D01*
%TO.C,TP1*%
X132350000Y-68550000D02*
X132350000Y-71050000D01*
X132350000Y-68550000D02*
X134850000Y-68550000D01*
X134850000Y-71050000D02*
X132350000Y-71050000D01*
X134850000Y-71050000D02*
X134850000Y-68550000D01*
%TO.C,R402*%
X179020000Y-88270000D02*
X181980000Y-88270000D01*
X181980000Y-89730000D01*
X179020000Y-89730000D01*
X179020000Y-88270000D01*
%TO.C,C401*%
X125520000Y-77300000D02*
X127480000Y-77300000D01*
X127480000Y-80700000D01*
X125520000Y-80700000D01*
X125520000Y-77300000D01*
%TO.C,H2*%
X194450000Y-54000000D02*
G75*
G02*
X189550000Y-54000000I-2450000J0D01*
G01*
X189550000Y-54000000D02*
G75*
G02*
X194450000Y-54000000I2450000J0D01*
G01*
%TO.C,C102*%
X114800000Y-88520000D02*
X118200000Y-88520000D01*
X118200000Y-90480000D01*
X114800000Y-90480000D01*
X114800000Y-88520000D01*
%TO.C,H4*%
X194450000Y-96000000D02*
G75*
G02*
X189550000Y-96000000I-2450000J0D01*
G01*
X189550000Y-96000000D02*
G75*
G02*
X194450000Y-96000000I2450000J0D01*
G01*
%TO.C,SW404*%
X157450000Y-86200000D02*
X158700000Y-84950000D01*
X157450000Y-88800000D02*
X157450000Y-86200000D01*
X158700000Y-84950000D02*
X161300000Y-84950000D01*
X158700000Y-90050000D02*
X157450000Y-88800000D01*
X161300000Y-84950000D02*
X162550000Y-86200000D01*
X161300000Y-90050000D02*
X158700000Y-90050000D01*
X162550000Y-86200000D02*
X162550000Y-88800000D01*
X162550000Y-88800000D02*
X161300000Y-90050000D01*
%TO.C,Q401*%
X178570000Y-84500000D02*
X179600000Y-84500000D01*
X178570000Y-85610000D02*
X178570000Y-84500000D01*
X178570000Y-86390000D02*
X179600000Y-86390000D01*
X178570000Y-87500000D02*
X178570000Y-86390000D01*
X179600000Y-84300000D02*
X181400000Y-84300000D01*
X179600000Y-84500000D02*
X179600000Y-84300000D01*
X179600000Y-85610000D02*
X178570000Y-85610000D01*
X179600000Y-86390000D02*
X179600000Y-85610000D01*
X179600000Y-87500000D02*
X178570000Y-87500000D01*
X179600000Y-87700000D02*
X179600000Y-87500000D01*
X181400000Y-84300000D02*
X181400000Y-85450000D01*
X181400000Y-85450000D02*
X182430000Y-85450000D01*
X181400000Y-86550000D02*
X181400000Y-87700000D01*
X181400000Y-87700000D02*
X179600000Y-87700000D01*
X182430000Y-85450000D02*
X182430000Y-86550000D01*
X182430000Y-86550000D02*
X181400000Y-86550000D01*
%TO.C,C105*%
X161520000Y-91800000D02*
X163480000Y-91800000D01*
X163480000Y-95200000D01*
X161520000Y-95200000D01*
X161520000Y-91800000D01*
%TO.C,U101*%
X138150000Y-90100000D02*
X139150000Y-90100000D01*
X138150000Y-93100000D02*
X138150000Y-90100000D01*
X139150000Y-89900000D02*
X141250000Y-89900000D01*
X139150000Y-90100000D02*
X139150000Y-89900000D01*
X139150000Y-93100000D02*
X138150000Y-93100000D01*
X139150000Y-93300000D02*
X139150000Y-93100000D01*
X141250000Y-89900000D02*
X141250000Y-90100000D01*
X141250000Y-90100000D02*
X142250000Y-90100000D01*
X141250000Y-93100000D02*
X141250000Y-93300000D01*
X141250000Y-93300000D02*
X139150000Y-93300000D01*
X142250000Y-90100000D02*
X142250000Y-93100000D01*
X142250000Y-93100000D02*
X141250000Y-93100000D01*
%TO.C,C403*%
X125770000Y-74020000D02*
X127230000Y-74020000D01*
X127230000Y-76980000D01*
X125770000Y-76980000D01*
X125770000Y-74020000D01*
%TO.C,C301*%
X165100000Y-67020000D02*
X168500000Y-67020000D01*
X168500000Y-68980000D01*
X165100000Y-68980000D01*
X165100000Y-67020000D01*
%TO.C,D402*%
X175000000Y-51250000D02*
X182000000Y-51250000D01*
X175000000Y-54750000D02*
X175000000Y-51250000D01*
X182000000Y-51250000D02*
X182000000Y-54750000D01*
X182000000Y-54750000D02*
X175000000Y-54750000D01*
%TO.C,L301*%
X161000000Y-74000000D02*
X165000000Y-74000000D01*
X161000000Y-78000000D02*
X161000000Y-74000000D01*
X165000000Y-74000000D02*
X165000000Y-78000000D01*
X165000000Y-78000000D02*
X161000000Y-78000000D01*
%TO.C,C203*%
X185520000Y-61800000D02*
X187480000Y-61800000D01*
X187480000Y-65200000D01*
X185520000Y-65200000D01*
X185520000Y-61800000D01*
%TO.C,C302*%
X155800000Y-69520000D02*
X159200000Y-69520000D01*
X159200000Y-71480000D01*
X155800000Y-71480000D01*
X155800000Y-69520000D01*
%TO.C,C107*%
X161270000Y-95520000D02*
X162730000Y-95520000D01*
X162730000Y-98480000D01*
X161270000Y-98480000D01*
X161270000Y-95520000D01*
%TO.C,C304*%
X142020000Y-72770000D02*
X144980000Y-72770000D01*
X144980000Y-74230000D01*
X142020000Y-74230000D01*
X142020000Y-72770000D01*
%TO.C,R106*%
X121520000Y-88770000D02*
X124480000Y-88770000D01*
X124480000Y-90230000D01*
X121520000Y-90230000D01*
X121520000Y-88770000D01*
%TO.C,C303*%
X156020000Y-72770000D02*
X158980000Y-72770000D01*
X158980000Y-74230000D01*
X156020000Y-74230000D01*
X156020000Y-72770000D01*
%TO.C,TP3*%
X106150000Y-89750000D02*
X106150000Y-92250000D01*
X106150000Y-89750000D02*
X108650000Y-89750000D01*
X108650000Y-92250000D02*
X106150000Y-92250000D01*
X108650000Y-92250000D02*
X108650000Y-89750000D01*
%TO.C,FID3*%
X189750000Y-98300000D02*
G75*
G02*
X186250000Y-98300000I-1750000J0D01*
G01*
X186250000Y-98300000D02*
G75*
G02*
X189750000Y-98300000I1750000J0D01*
G01*
%TO.C,R201*%
X178020000Y-70770000D02*
X180980000Y-70770000D01*
X180980000Y-72230000D01*
X178020000Y-72230000D01*
X178020000Y-70770000D01*
%TO.C,D302*%
X155150000Y-66850000D02*
X155150000Y-69150000D01*
X155150000Y-66850000D02*
X159850000Y-66850000D01*
X159850000Y-66850000D02*
X159850000Y-69150000D01*
X159850000Y-69150000D02*
X155150000Y-69150000D01*
%TO.C,C306*%
X149020000Y-72770000D02*
X151980000Y-72770000D01*
X151980000Y-74230000D01*
X149020000Y-74230000D01*
X149020000Y-72770000D01*
%TO.C,R202*%
X178020000Y-65770000D02*
X180980000Y-65770000D01*
X180980000Y-67230000D01*
X178020000Y-67230000D01*
X178020000Y-65770000D01*
%TO.C,R401*%
X125770000Y-70520000D02*
X127230000Y-70520000D01*
X127230000Y-73480000D01*
X125770000Y-73480000D01*
X125770000Y-70520000D01*
%TO.C,BZ1*%
X167250000Y-81250000D02*
X175750000Y-81250000D01*
X167250000Y-89750000D02*
X167250000Y-81250000D01*
X175750000Y-81250000D02*
X175750000Y-89750000D01*
X175750000Y-89750000D02*
X167250000Y-89750000D01*
%TO.C,R107*%
X138270000Y-81020000D02*
X139730000Y-81020000D01*
X139730000Y-83980000D01*
X138270000Y-83980000D01*
X138270000Y-81020000D01*
%TO.C,FID1*%
X106250000Y-51500000D02*
G75*
G02*
X102750000Y-51500000I-1750000J0D01*
G01*
X102750000Y-51500000D02*
G75*
G02*
X106250000Y-51500000I1750000J0D01*
G01*
%TO.C,D101*%
X132500000Y-76750000D02*
X139500000Y-76750000D01*
X132500000Y-80250000D02*
X132500000Y-76750000D01*
X139500000Y-76750000D02*
X139500000Y-80250000D01*
X139500000Y-80250000D02*
X132500000Y-80250000D01*
%TO.C,LED101*%
X107420000Y-92970000D02*
X110380000Y-92970000D01*
X110380000Y-94430000D01*
X107420000Y-94430000D01*
X107420000Y-92970000D01*
%TO.C,Q101*%
X133570000Y-80500000D02*
X134600000Y-80500000D01*
X133570000Y-81610000D02*
X133570000Y-80500000D01*
X133570000Y-82390000D02*
X134600000Y-82390000D01*
X133570000Y-83500000D02*
X133570000Y-82390000D01*
X134600000Y-80300000D02*
X136400000Y-80300000D01*
X134600000Y-80500000D02*
X134600000Y-80300000D01*
X134600000Y-81610000D02*
X133570000Y-81610000D01*
X134600000Y-82390000D02*
X134600000Y-81610000D01*
X134600000Y-83500000D02*
X133570000Y-83500000D01*
X134600000Y-83700000D02*
X134600000Y-83500000D01*
X136400000Y-80300000D02*
X136400000Y-81450000D01*
X136400000Y-81450000D02*
X137430000Y-81450000D01*
X136400000Y-82550000D02*
X136400000Y-83700000D01*
X136400000Y-83700000D02*
X134600000Y-83700000D01*
X137430000Y-81450000D02*
X137430000Y-82550000D01*
X137430000Y-82550000D02*
X136400000Y-82550000D01*
%TO.C,R302*%
X169550000Y-74320000D02*
X171450000Y-74320000D01*
X171450000Y-77680000D01*
X169550000Y-77680000D01*
X169550000Y-74320000D01*
%TO.C,SW401*%
X176450000Y-95000000D02*
X177700000Y-93750000D01*
X176450000Y-97600000D02*
X176450000Y-95000000D01*
X177700000Y-93750000D02*
X180300000Y-93750000D01*
X177700000Y-98850000D02*
X176450000Y-97600000D01*
X180300000Y-93750000D02*
X181550000Y-95000000D01*
X180300000Y-98850000D02*
X177700000Y-98850000D01*
X181550000Y-95000000D02*
X181550000Y-97600000D01*
X181550000Y-97600000D02*
X180300000Y-98850000D01*
%TO.C,U103*%
X120950000Y-90500000D02*
X121950000Y-90500000D01*
X120950000Y-93500000D02*
X120950000Y-90500000D01*
X121950000Y-90300000D02*
X124050000Y-90300000D01*
X121950000Y-90500000D02*
X121950000Y-90300000D01*
X121950000Y-93500000D02*
X120950000Y-93500000D01*
X121950000Y-93700000D02*
X121950000Y-93500000D01*
X124050000Y-90300000D02*
X124050000Y-90500000D01*
X124050000Y-90500000D02*
X125050000Y-90500000D01*
X124050000Y-93500000D02*
X124050000Y-93700000D01*
X124050000Y-93700000D02*
X121950000Y-93700000D01*
X125050000Y-90500000D02*
X125050000Y-93500000D01*
X125050000Y-93500000D02*
X124050000Y-93500000D01*
%TO.C,D201*%
X179650000Y-63350000D02*
X179650000Y-65650000D01*
X179650000Y-63350000D02*
X184350000Y-63350000D01*
X184350000Y-63350000D02*
X184350000Y-65650000D01*
X184350000Y-65650000D02*
X179650000Y-65650000D01*
%TO.C,R405*%
X173020000Y-58770000D02*
X175980000Y-58770000D01*
X175980000Y-60230000D01*
X173020000Y-60230000D01*
X173020000Y-58770000D01*
%TO.C,SW403*%
X145450000Y-86200000D02*
X146700000Y-84950000D01*
X145450000Y-88800000D02*
X145450000Y-86200000D01*
X146700000Y-84950000D02*
X149300000Y-84950000D01*
X146700000Y-90050000D02*
X145450000Y-88800000D01*
X149300000Y-84950000D02*
X150550000Y-86200000D01*
X149300000Y-90050000D02*
X146700000Y-90050000D01*
X150550000Y-86200000D02*
X150550000Y-88800000D01*
X150550000Y-88800000D02*
X149300000Y-90050000D01*
%TO.C,C202*%
X124770000Y-60520000D02*
X126230000Y-60520000D01*
X126230000Y-63480000D01*
X124770000Y-63480000D01*
X124770000Y-60520000D01*
%TO.C,R104*%
X104120000Y-92970000D02*
X107080000Y-92970000D01*
X107080000Y-94430000D01*
X104120000Y-94430000D01*
X104120000Y-92970000D01*
%TO.C,LED102*%
X130020000Y-97770000D02*
X132980000Y-97770000D01*
X132980000Y-99230000D01*
X130020000Y-99230000D01*
X130020000Y-97770000D01*
%TO.C,R101*%
X136270000Y-94020000D02*
X137730000Y-94020000D01*
X137730000Y-96980000D01*
X136270000Y-96980000D01*
X136270000Y-94020000D01*
%TO.C,U102*%
X114550000Y-92050000D02*
X119450000Y-92050000D01*
X114550000Y-95950000D02*
X114550000Y-92050000D01*
X119450000Y-92050000D02*
X119450000Y-95950000D01*
X119450000Y-95950000D02*
X114550000Y-95950000D01*
%TO.C,R301*%
X165020000Y-69770000D02*
X167980000Y-69770000D01*
X167980000Y-71230000D01*
X165020000Y-71230000D01*
X165020000Y-69770000D01*
%TO.C,SW402*%
X133450000Y-86200000D02*
X134700000Y-84950000D01*
X133450000Y-88800000D02*
X133450000Y-86200000D01*
X134700000Y-84950000D02*
X137300000Y-84950000D01*
X134700000Y-90050000D02*
X133450000Y-88800000D01*
X137300000Y-84950000D02*
X138550000Y-86200000D01*
X137300000Y-90050000D02*
X134700000Y-90050000D01*
X138550000Y-86200000D02*
X138550000Y-88800000D01*
X138550000Y-88800000D02*
X137300000Y-90050000D01*
%TO.C,D301*%
X160150000Y-66850000D02*
X160150000Y-69150000D01*
X160150000Y-66850000D02*
X164850000Y-66850000D01*
X164850000Y-66850000D02*
X164850000Y-69150000D01*
X164850000Y-69150000D02*
X160150000Y-69150000D01*
%TO.C,C310*%
X131520000Y-72770000D02*
X134480000Y-72770000D01*
X134480000Y-74230000D01*
X131520000Y-74230000D01*
X131520000Y-72770000D01*
%TO.C,C309*%
X135020000Y-72770000D02*
X137980000Y-72770000D01*
X137980000Y-74230000D01*
X135020000Y-74230000D01*
X135020000Y-72770000D01*
%TO.C,U104*%
X129700000Y-90550000D02*
X131300000Y-90550000D01*
X129700000Y-93450000D02*
X129700000Y-90550000D01*
X131300000Y-90550000D02*
X131300000Y-93450000D01*
X131300000Y-93450000D02*
X129700000Y-93450000D01*
%TO.C,USBC1*%
X142680000Y-91530000D02*
X142680000Y-100950000D01*
X142680000Y-91530000D02*
X153320000Y-91530000D01*
X142680000Y-100950000D02*
X153320000Y-100950000D01*
X153320000Y-91530000D02*
X153320000Y-100950000D01*
%TO.C,L201*%
X187370000Y-78580000D02*
X189230000Y-78580000D01*
X189230000Y-79520000D01*
X187370000Y-79520000D01*
X187370000Y-78580000D01*
%TO.C,Q301*%
X165570000Y-74500000D02*
X166600000Y-74500000D01*
X165570000Y-75610000D02*
X165570000Y-74500000D01*
X165570000Y-76390000D02*
X166600000Y-76390000D01*
X165570000Y-77500000D02*
X165570000Y-76390000D01*
X166600000Y-74300000D02*
X168400000Y-74300000D01*
X166600000Y-74500000D02*
X166600000Y-74300000D01*
X166600000Y-75610000D02*
X165570000Y-75610000D01*
X166600000Y-76390000D02*
X166600000Y-75610000D01*
X166600000Y-77500000D02*
X165570000Y-77500000D01*
X166600000Y-77700000D02*
X166600000Y-77500000D01*
X168400000Y-74300000D02*
X168400000Y-75450000D01*
X168400000Y-75450000D02*
X169430000Y-75450000D01*
X168400000Y-76550000D02*
X168400000Y-77700000D01*
X168400000Y-77700000D02*
X166600000Y-77700000D01*
X169430000Y-75450000D02*
X169430000Y-76550000D01*
X169430000Y-76550000D02*
X168400000Y-76550000D01*
%TO.C,R108*%
X155270000Y-95520000D02*
X156730000Y-95520000D01*
X156730000Y-98480000D01*
X155270000Y-98480000D01*
X155270000Y-95520000D01*
%TO.C,C308*%
X138520000Y-72770000D02*
X141480000Y-72770000D01*
X141480000Y-74230000D01*
X138520000Y-74230000D01*
X138520000Y-72770000D01*
%TO.C,Q402*%
X176070000Y-55500000D02*
X177100000Y-55500000D01*
X176070000Y-56610000D02*
X176070000Y-55500000D01*
X176070000Y-57390000D02*
X177100000Y-57390000D01*
X176070000Y-58500000D02*
X176070000Y-57390000D01*
X177100000Y-55300000D02*
X178900000Y-55300000D01*
X177100000Y-55500000D02*
X177100000Y-55300000D01*
X177100000Y-56610000D02*
X176070000Y-56610000D01*
X177100000Y-57390000D02*
X177100000Y-56610000D01*
X177100000Y-58500000D02*
X176070000Y-58500000D01*
X177100000Y-58700000D02*
X177100000Y-58500000D01*
X178900000Y-55300000D02*
X178900000Y-56450000D01*
X178900000Y-56450000D02*
X179930000Y-56450000D01*
X178900000Y-57550000D02*
X178900000Y-58700000D01*
X178900000Y-58700000D02*
X177100000Y-58700000D01*
X179930000Y-56450000D02*
X179930000Y-57550000D01*
X179930000Y-57550000D02*
X178900000Y-57550000D01*
%TO.C,C402*%
X125770000Y-81020000D02*
X127230000Y-81020000D01*
X127230000Y-83980000D01*
X125770000Y-83980000D01*
X125770000Y-81020000D01*
%TO.C,LED401*%
X146520000Y-83270000D02*
X149480000Y-83270000D01*
X149480000Y-84730000D01*
X146520000Y-84730000D01*
X146520000Y-83270000D01*
%TO.C,C106*%
X125770000Y-90520000D02*
X127230000Y-90520000D01*
X127230000Y-93480000D01*
X125770000Y-93480000D01*
X125770000Y-90520000D01*
%TO.C,BATT1*%
X185400000Y-86000000D02*
X186800000Y-86000000D01*
X185400000Y-90000000D02*
X185400000Y-86000000D01*
X186800000Y-83550000D02*
X191190000Y-83550000D01*
X186800000Y-86000000D02*
X186800000Y-83550000D01*
X186800000Y-90000000D02*
X185400000Y-90000000D01*
X186800000Y-92450000D02*
X186800000Y-90000000D01*
X191190000Y-83400000D02*
X195600000Y-83400000D01*
X191190000Y-83550000D02*
X191190000Y-83400000D01*
X191190000Y-92450000D02*
X186800000Y-92450000D01*
X191190000Y-92600000D02*
X191190000Y-92450000D01*
X195400000Y-85900000D02*
X195400000Y-90100000D01*
X195400000Y-90100000D02*
X195600000Y-90100000D01*
X195600000Y-83400000D02*
X195600000Y-85900000D01*
X195600000Y-85900000D02*
X195400000Y-85900000D01*
X195600000Y-90100000D02*
X195600000Y-92600000D01*
X195600000Y-92600000D02*
X191190000Y-92600000D01*
%TO.C,EPD1*%
X144490000Y-78850000D02*
X144810000Y-78850000D01*
X144500000Y-76750000D02*
X144500000Y-78840000D01*
X144500000Y-78840000D02*
X144490000Y-78850000D01*
X144750000Y-75750000D02*
X144750000Y-76750000D01*
X144750000Y-76750000D02*
X144500000Y-76750000D01*
X144810000Y-78850000D02*
X144810000Y-79540000D01*
X144810000Y-79540000D02*
X144830000Y-79560000D01*
X144830000Y-79560000D02*
X158180000Y-79560000D01*
X158180000Y-79560000D02*
X158200000Y-79540000D01*
X158200000Y-78840000D02*
X158500000Y-78840000D01*
X158200000Y-79540000D02*
X158200000Y-78840000D01*
X158240000Y-75750000D02*
X144750000Y-75750000D01*
X158260000Y-75770000D02*
X158240000Y-75750000D01*
X158260000Y-76740000D02*
X158260000Y-75770000D01*
X158500000Y-76750000D02*
X158510000Y-76740000D01*
X158500000Y-78840000D02*
X158500000Y-76750000D01*
X158510000Y-76740000D02*
X158260000Y-76740000D01*
%TO.C,H3*%
X112450000Y-97000000D02*
G75*
G02*
X107550000Y-97000000I-2450000J0D01*
G01*
X107550000Y-97000000D02*
G75*
G02*
X112450000Y-97000000I2450000J0D01*
G01*
%TO.C,U202*%
X183650000Y-67950000D02*
X193350000Y-67950000D01*
X183650000Y-78050000D02*
X183650000Y-67950000D01*
X193350000Y-67950000D02*
X193350000Y-78050000D01*
X193350000Y-78050000D02*
X183650000Y-78050000D01*
%TO.C,TP5*%
X183050000Y-58650000D02*
X183050000Y-61150000D01*
X183050000Y-58650000D02*
X185550000Y-58650000D01*
X185550000Y-61150000D02*
X183050000Y-61150000D01*
X185550000Y-61150000D02*
X185550000Y-58650000D01*
%TO.C,C404*%
X151120000Y-82470000D02*
X154080000Y-82470000D01*
X154080000Y-83930000D01*
X151120000Y-83930000D01*
X151120000Y-82470000D01*
%TO.C,H1*%
X127450000Y-54000000D02*
G75*
G02*
X122550000Y-54000000I-2450000J0D01*
G01*
X122550000Y-54000000D02*
G75*
G02*
X127450000Y-54000000I2450000J0D01*
G01*
%TO.C,C305*%
X152520000Y-72770000D02*
X155480000Y-72770000D01*
X155480000Y-74230000D01*
X152520000Y-74230000D01*
X152520000Y-72770000D01*
%TO.C,C101*%
X153800000Y-88520000D02*
X157200000Y-88520000D01*
X157200000Y-90480000D01*
X153800000Y-90480000D01*
X153800000Y-88520000D01*
%TO.C,ANT1*%
X127600000Y-65700000D02*
X127800000Y-65700000D01*
X127800000Y-69300000D01*
X127600000Y-69300000D01*
X127600000Y-70000000D01*
X124400000Y-70000000D01*
X124400000Y-69300000D01*
X124200000Y-69300000D01*
X124200000Y-68500000D01*
X123450000Y-68500000D01*
X123450000Y-66500000D01*
X124200000Y-66500000D01*
X124200000Y-65700000D01*
X124400000Y-65700000D01*
X124400000Y-65000000D01*
X127600000Y-65000000D01*
X127600000Y-65700000D01*
%TO.C,U401*%
X82000000Y-54500000D02*
X82000000Y-102500000D01*
X82000000Y-102500000D02*
X103000000Y-102500000D01*
X103000000Y-54500000D02*
X82000000Y-54500000D01*
X103000000Y-68750000D02*
X103000000Y-54500000D01*
X103000000Y-68750000D02*
X123200000Y-68750000D01*
X103000000Y-102500000D02*
X103000000Y-88250000D01*
X123200000Y-88250000D02*
X103000000Y-88250000D01*
X123200000Y-88250000D02*
X123200000Y-68750000D01*
%TO.C,R403*%
X171520000Y-54270000D02*
X174480000Y-54270000D01*
X174480000Y-55730000D01*
X171520000Y-55730000D01*
X171520000Y-54270000D01*
%TO.C,TP4*%
X139850000Y-77150000D02*
X139850000Y-79650000D01*
X139850000Y-77150000D02*
X142350000Y-77150000D01*
X142350000Y-79650000D02*
X139850000Y-79650000D01*
X142350000Y-79650000D02*
X142350000Y-77150000D01*
%TO.C,U105*%
X153950000Y-92000000D02*
X154950000Y-92000000D01*
X153950000Y-95000000D02*
X153950000Y-92000000D01*
X154950000Y-91800000D02*
X157050000Y-91800000D01*
X154950000Y-92000000D02*
X154950000Y-91800000D01*
X154950000Y-95000000D02*
X153950000Y-95000000D01*
X154950000Y-95200000D02*
X154950000Y-95000000D01*
X157050000Y-91800000D02*
X157050000Y-92000000D01*
X157050000Y-92000000D02*
X158050000Y-92000000D01*
X157050000Y-93110000D02*
X157050000Y-93890000D01*
X157050000Y-93890000D02*
X158050000Y-93890000D01*
X157050000Y-95000000D02*
X157050000Y-95200000D01*
X157050000Y-95200000D02*
X154950000Y-95200000D01*
X158050000Y-92000000D02*
X158050000Y-93110000D01*
X158050000Y-93110000D02*
X157050000Y-93110000D01*
X158050000Y-93890000D02*
X158050000Y-95000000D01*
X158050000Y-95000000D02*
X157050000Y-95000000D01*
%TO.C,U201*%
X106500000Y-52500000D02*
X122500000Y-52500000D01*
X106500000Y-68500000D02*
X106500000Y-52500000D01*
X122500000Y-52500000D02*
X122500000Y-68500000D01*
X122500000Y-68500000D02*
X106500000Y-68500000D01*
%TD*%
M02*
