%TF.GenerationSoftware,KiCad,Pcbnew,10.0.4*%
%TF.CreationDate,2026-07-10T22:34:02-07:00*%
%TF.ProjectId,pager,70616765-722e-46b6-9963-61645f706362,rev?*%
%TF.SameCoordinates,Original*%
%TF.FileFunction,Copper,L1,Top*%
%TF.FilePolarity,Positive*%
%FSLAX46Y46*%
G04 Gerber Fmt 4.6, Leading zero omitted, Abs format (unit mm)*
G04 Created by KiCad (PCBNEW 10.0.4) date 2026-07-10 22:34:02*
%MOMM*%
%LPD*%
G01*
G04 APERTURE LIST*
G04 Aperture macros list*
%AMRoundRect*
0 Rectangle with rounded corners*
0 $1 Rounding radius*
0 $2 $3 $4 $5 $6 $7 $8 $9 X,Y pos of 4 corners*
0 Add a 4 corners polygon primitive as box body*
4,1,4,$2,$3,$4,$5,$6,$7,$8,$9,$2,$3,0*
0 Add four circle primitives for the rounded corners*
1,1,$1+$1,$2,$3*
1,1,$1+$1,$4,$5*
1,1,$1+$1,$6,$7*
1,1,$1+$1,$8,$9*
0 Add four rect primitives between the rounded corners*
20,1,$1+$1,$2,$3,$4,$5,0*
20,1,$1+$1,$4,$5,$6,$7,0*
20,1,$1+$1,$6,$7,$8,$9,0*
20,1,$1+$1,$8,$9,$2,$3,0*%
G04 Aperture macros list end*
%TA.AperFunction,SMDPad,CuDef*%
%ADD10RoundRect,0.200000X-0.200000X-0.275000X0.200000X-0.275000X0.200000X0.275000X-0.200000X0.275000X0*%
%TD*%
%TA.AperFunction,SMDPad,CuDef*%
%ADD11C,1.000000*%
%TD*%
%TA.AperFunction,SMDPad,CuDef*%
%ADD12RoundRect,0.175000X-0.175000X-1.675000X0.175000X-1.675000X0.175000X1.675000X-0.175000X1.675000X0*%
%TD*%
%TA.AperFunction,SMDPad,CuDef*%
%ADD13RoundRect,0.250001X-0.499999X-0.899999X0.499999X-0.899999X0.499999X0.899999X-0.499999X0.899999X0*%
%TD*%
%TA.AperFunction,SMDPad,CuDef*%
%ADD14RoundRect,0.225000X-0.225000X-0.250000X0.225000X-0.250000X0.225000X0.250000X-0.225000X0.250000X0*%
%TD*%
%TA.AperFunction,SMDPad,CuDef*%
%ADD15RoundRect,0.250000X0.475000X-0.250000X0.475000X0.250000X-0.475000X0.250000X-0.475000X-0.250000X0*%
%TD*%
%TA.AperFunction,SMDPad,CuDef*%
%ADD16R,1.500000X1.500000*%
%TD*%
%TA.AperFunction,SMDPad,CuDef*%
%ADD17RoundRect,0.150000X-0.587500X-0.150000X0.587500X-0.150000X0.587500X0.150000X-0.587500X0.150000X0*%
%TD*%
%TA.AperFunction,SMDPad,CuDef*%
%ADD18RoundRect,0.225000X-0.225000X-0.375000X0.225000X-0.375000X0.225000X0.375000X-0.225000X0.375000X0*%
%TD*%
%TA.AperFunction,SMDPad,CuDef*%
%ADD19RoundRect,0.175000X-1.675000X0.175000X-1.675000X-0.175000X1.675000X-0.175000X1.675000X0.175000X0*%
%TD*%
%TA.AperFunction,SMDPad,CuDef*%
%ADD20RoundRect,0.250001X-0.899999X0.499999X-0.899999X-0.499999X0.899999X-0.499999X0.899999X0.499999X0*%
%TD*%
%TA.AperFunction,SMDPad,CuDef*%
%ADD21RoundRect,0.250000X-0.250000X0.275000X-0.250000X-0.275000X0.250000X-0.275000X0.250000X0.275000X0*%
%TD*%
%TA.AperFunction,SMDPad,CuDef*%
%ADD22RoundRect,0.250000X-0.275000X0.850000X-0.275000X-0.850000X0.275000X-0.850000X0.275000X0.850000X0*%
%TD*%
%TA.AperFunction,SMDPad,CuDef*%
%ADD23RoundRect,0.250000X-1.000000X-0.650000X1.000000X-0.650000X1.000000X0.650000X-1.000000X0.650000X0*%
%TD*%
%TA.AperFunction,SMDPad,CuDef*%
%ADD24RoundRect,0.200000X0.275000X-0.200000X0.275000X0.200000X-0.275000X0.200000X-0.275000X-0.200000X0*%
%TD*%
%TA.AperFunction,SMDPad,CuDef*%
%ADD25RoundRect,0.250000X-0.250000X-0.475000X0.250000X-0.475000X0.250000X0.475000X-0.250000X0.475000X0*%
%TD*%
%TA.AperFunction,SMDPad,CuDef*%
%ADD26R,1.000000X0.750000*%
%TD*%
%TA.AperFunction,SMDPad,CuDef*%
%ADD27RoundRect,0.150000X0.512500X0.150000X-0.512500X0.150000X-0.512500X-0.150000X0.512500X-0.150000X0*%
%TD*%
%TA.AperFunction,SMDPad,CuDef*%
%ADD28RoundRect,0.225000X0.250000X-0.225000X0.250000X0.225000X-0.250000X0.225000X-0.250000X-0.225000X0*%
%TD*%
%TA.AperFunction,SMDPad,CuDef*%
%ADD29R,1.600000X3.900000*%
%TD*%
%TA.AperFunction,SMDPad,CuDef*%
%ADD30R,2.400000X2.400000*%
%TD*%
%TA.AperFunction,SMDPad,CuDef*%
%ADD31RoundRect,0.218750X0.218750X0.256250X-0.218750X0.256250X-0.218750X-0.256250X0.218750X-0.256250X0*%
%TD*%
%TA.AperFunction,SMDPad,CuDef*%
%ADD32RoundRect,0.250000X0.450000X-0.262500X0.450000X0.262500X-0.450000X0.262500X-0.450000X-0.262500X0*%
%TD*%
%TA.AperFunction,SMDPad,CuDef*%
%ADD33RoundRect,0.150000X-0.512500X-0.150000X0.512500X-0.150000X0.512500X0.150000X-0.512500X0.150000X0*%
%TD*%
%TA.AperFunction,SMDPad,CuDef*%
%ADD34RoundRect,0.218750X-0.218750X-0.256250X0.218750X-0.256250X0.218750X0.256250X-0.218750X0.256250X0*%
%TD*%
%TA.AperFunction,SMDPad,CuDef*%
%ADD35R,0.600000X1.200000*%
%TD*%
%TA.AperFunction,SMDPad,CuDef*%
%ADD36R,3.300000X2.400000*%
%TD*%
%TA.AperFunction,SMDPad,CuDef*%
%ADD37R,1.100000X0.600000*%
%TD*%
%TA.AperFunction,SMDPad,CuDef*%
%ADD38RoundRect,0.150000X-0.150000X-0.575000X0.150000X-0.575000X0.150000X0.575000X-0.150000X0.575000X0*%
%TD*%
%TA.AperFunction,SMDPad,CuDef*%
%ADD39RoundRect,0.075000X-0.075000X-0.650000X0.075000X-0.650000X0.075000X0.650000X-0.075000X0.650000X0*%
%TD*%
%TA.AperFunction,ComponentPad*%
%ADD40O,1.000000X2.100000*%
%TD*%
%TA.AperFunction,ComponentPad*%
%ADD41O,1.000000X1.600000*%
%TD*%
%TA.AperFunction,SMDPad,CuDef*%
%ADD42RoundRect,0.147500X0.147500X0.172500X-0.147500X0.172500X-0.147500X-0.172500X0.147500X-0.172500X0*%
%TD*%
%TA.AperFunction,SMDPad,CuDef*%
%ADD43RoundRect,0.250000X1.500000X-0.250000X1.500000X0.250000X-1.500000X0.250000X-1.500000X-0.250000X0*%
%TD*%
%TA.AperFunction,SMDPad,CuDef*%
%ADD44RoundRect,0.250001X1.449999X-0.499999X1.449999X0.499999X-1.449999X0.499999X-1.449999X-0.499999X0*%
%TD*%
%TA.AperFunction,SMDPad,CuDef*%
%ADD45R,0.250000X1.000000*%
%TD*%
%TA.AperFunction,SMDPad,CuDef*%
%ADD46R,0.600000X1.000000*%
%TD*%
%TA.AperFunction,SMDPad,CuDef*%
%ADD47O,1.773000X0.700000*%
%TD*%
%TA.AperFunction,SMDPad,CuDef*%
%ADD48RoundRect,0.250000X-0.275000X-0.250000X0.275000X-0.250000X0.275000X0.250000X-0.275000X0.250000X0*%
%TD*%
%TA.AperFunction,SMDPad,CuDef*%
%ADD49RoundRect,0.250000X-0.850000X-0.275000X0.850000X-0.275000X0.850000X0.275000X-0.850000X0.275000X0*%
%TD*%
%TA.AperFunction,SMDPad,CuDef*%
%ADD50R,0.900000X1.500000*%
%TD*%
%TA.AperFunction,SMDPad,CuDef*%
%ADD51R,1.500000X0.900000*%
%TD*%
%TA.AperFunction,HeatsinkPad*%
%ADD52C,0.600000*%
%TD*%
%TA.AperFunction,HeatsinkPad*%
%ADD53R,3.900000X3.900000*%
%TD*%
%TA.AperFunction,SMDPad,CuDef*%
%ADD54R,2.000000X1.200000*%
%TD*%
%TA.AperFunction,ViaPad*%
%ADD55C,0.500000*%
%TD*%
%TA.AperFunction,ViaPad*%
%ADD56C,0.600000*%
%TD*%
%TA.AperFunction,Conductor*%
%ADD57C,0.400000*%
%TD*%
%TA.AperFunction,Conductor*%
%ADD58C,0.200000*%
%TD*%
%TA.AperFunction,Conductor*%
%ADD59C,0.500000*%
%TD*%
%TA.AperFunction,Conductor*%
%ADD60C,0.250000*%
%TD*%
%TA.AperFunction,Conductor*%
%ADD61C,0.300000*%
%TD*%
%TA.AperFunction,Conductor*%
%ADD62C,1.100000*%
%TD*%
G04 APERTURE END LIST*
D10*
%TO.P,R105,1*%
%TO.N,/power/VBUS*%
X127175000Y-98500000D03*
%TO.P,R105,2*%
%TO.N,Net-(LED102-A)*%
X128825000Y-98500000D03*
%TD*%
D11*
%TO.P,FID2,*%
%TO.N,*%
X150500000Y-51800000D03*
%TD*%
D10*
%TO.P,R408,1*%
%TO.N,+3V3*%
X170175000Y-92000000D03*
%TO.P,R408,2*%
%TO.N,I2C_SCL*%
X171825000Y-92000000D03*
%TD*%
D12*
%TO.P,I2C1,1*%
%TO.N,+3V3*%
X167750000Y-97200000D03*
%TO.P,I2C1,2*%
%TO.N,I2C_SDA*%
X169250000Y-97200000D03*
%TO.P,I2C1,3*%
%TO.N,I2C_SCL*%
X170750000Y-97200000D03*
%TO.P,I2C1,4*%
%TO.N,GND*%
X172250000Y-97200000D03*
D13*
%TO.P,I2C1,MP*%
%TO.N,N/C*%
X165700000Y-95100000D03*
X174300000Y-95100000D03*
%TD*%
D10*
%TO.P,R407,1*%
%TO.N,+3V3*%
X166175000Y-92000000D03*
%TO.P,R407,2*%
%TO.N,I2C_SDA*%
X167825000Y-92000000D03*
%TD*%
D14*
%TO.P,C307,1*%
%TO.N,/epaper/EPD_VSH1*%
X146225000Y-73500000D03*
%TO.P,C307,2*%
%TO.N,GND*%
X147775000Y-73500000D03*
%TD*%
D10*
%TO.P,R404,1*%
%TO.N,Net-(Q401-G)*%
X179675000Y-91500000D03*
%TO.P,R404,2*%
%TO.N,GND*%
X181325000Y-91500000D03*
%TD*%
D15*
%TO.P,C104,1*%
%TO.N,/power/VSYS*%
X159500000Y-94450000D03*
%TO.P,C104,2*%
%TO.N,GND*%
X159500000Y-92550000D03*
%TD*%
%TO.P,C201,1*%
%TO.N,+3V3*%
X125500000Y-59450000D03*
%TO.P,C201,2*%
%TO.N,GND*%
X125500000Y-57550000D03*
%TD*%
D10*
%TO.P,R102,1*%
%TO.N,/power/CC2*%
X137775000Y-98850000D03*
%TO.P,R102,2*%
%TO.N,GND*%
X139425000Y-98850000D03*
%TD*%
D16*
%TO.P,TP2,1*%
%TO.N,GND*%
X104600000Y-91000000D03*
%TD*%
D17*
%TO.P,Q201,1*%
%TO.N,GNSS_EN*%
X178562500Y-68050000D03*
%TO.P,Q201,2*%
%TO.N,+3V3*%
X178562500Y-69950000D03*
%TO.P,Q201,3*%
%TO.N,/radio/GNSS_VCC*%
X180437500Y-69000000D03*
%TD*%
D18*
%TO.P,D303,1*%
%TO.N,/epaper/EPD_VGH*%
X160850000Y-70500000D03*
%TO.P,D303,2*%
%TO.N,/epaper/EPD_SW*%
X164150000Y-70500000D03*
%TD*%
D19*
%TO.P,VIB1,1*%
%TO.N,+3V3*%
X191300000Y-60250000D03*
%TO.P,VIB1,2*%
%TO.N,Net-(D402-A)*%
X191300000Y-61750000D03*
D20*
%TO.P,VIB1,MP*%
%TO.N,N/C*%
X193400000Y-58200000D03*
X193400000Y-63800000D03*
%TD*%
D10*
%TO.P,R406,1*%
%TO.N,/mcu/LED_R*%
X147175000Y-81500000D03*
%TO.P,R406,2*%
%TO.N,Net-(LED401-A)*%
X148825000Y-81500000D03*
%TD*%
D14*
%TO.P,C405,1*%
%TO.N,+3V3*%
X146725000Y-70900000D03*
%TO.P,C405,2*%
%TO.N,GND*%
X148275000Y-70900000D03*
%TD*%
D16*
%TO.P,TP6,1*%
%TO.N,GNSS_RX*%
X187300000Y-59900000D03*
%TD*%
D21*
%TO.P,ANT2,1*%
%TO.N,/radio/GNSS_RF*%
X192500000Y-79075000D03*
D22*
%TO.P,ANT2,2*%
%TO.N,GND*%
X193975000Y-80600000D03*
X191025000Y-80600000D03*
%TD*%
D23*
%TO.P,D401,1*%
%TO.N,+3V3*%
X178500000Y-81800000D03*
%TO.P,D401,2*%
%TO.N,Net-(D401-A)*%
X182500000Y-81800000D03*
%TD*%
D24*
%TO.P,R109,1*%
%TO.N,VBAT_SENSE*%
X159000000Y-97825000D03*
%TO.P,R109,2*%
%TO.N,GND*%
X159000000Y-96175000D03*
%TD*%
D14*
%TO.P,C205,1*%
%TO.N,/radio/GNSS_VCC*%
X178725000Y-76500000D03*
%TO.P,C205,2*%
%TO.N,GND*%
X180275000Y-76500000D03*
%TD*%
D25*
%TO.P,C204,1*%
%TO.N,/radio/GNSS_VCC*%
X178550000Y-74000000D03*
%TO.P,C204,2*%
%TO.N,GND*%
X180450000Y-74000000D03*
%TD*%
D10*
%TO.P,R103,1*%
%TO.N,/power/PROG*%
X116375000Y-98900000D03*
%TO.P,R103,2*%
%TO.N,GND*%
X118025000Y-98900000D03*
%TD*%
D16*
%TO.P,TP1,1*%
%TO.N,+3V3*%
X133600000Y-69800000D03*
%TD*%
D10*
%TO.P,R402,1*%
%TO.N,/mcu/BUZ_GATE*%
X179675000Y-89000000D03*
%TO.P,R402,2*%
%TO.N,Net-(Q401-G)*%
X181325000Y-89000000D03*
%TD*%
D15*
%TO.P,C401,1*%
%TO.N,+3V3*%
X126500000Y-79950000D03*
%TO.P,C401,2*%
%TO.N,GND*%
X126500000Y-78050000D03*
%TD*%
D25*
%TO.P,C102,1*%
%TO.N,/power/BAT_PLUS*%
X115550000Y-89500000D03*
%TO.P,C102,2*%
%TO.N,GND*%
X117450000Y-89500000D03*
%TD*%
D26*
%TO.P,SW404,1*%
%TO.N,/mcu/BTN_DOWN*%
X157000000Y-85650000D03*
%TO.P,SW404,2*%
X163000000Y-85650000D03*
%TO.P,SW404,3*%
%TO.N,GND*%
X157000000Y-89350000D03*
%TO.P,SW404,4*%
X163000000Y-89350000D03*
%TD*%
D17*
%TO.P,Q401,1*%
%TO.N,Net-(Q401-G)*%
X179562500Y-85050000D03*
%TO.P,Q401,2*%
%TO.N,GND*%
X179562500Y-86950000D03*
%TO.P,Q401,3*%
%TO.N,Net-(D401-A)*%
X181437500Y-86000000D03*
%TD*%
D15*
%TO.P,C105,1*%
%TO.N,+3V3*%
X162500000Y-94450000D03*
%TO.P,C105,2*%
%TO.N,GND*%
X162500000Y-92550000D03*
%TD*%
D27*
%TO.P,U101,1*%
%TO.N,/power/USB_DM_RAW*%
X141337500Y-92550000D03*
%TO.P,U101,2*%
%TO.N,GND*%
X141337500Y-91600000D03*
%TO.P,U101,3*%
%TO.N,/power/USB_DP_RAW*%
X141337500Y-90650000D03*
%TO.P,U101,4*%
%TO.N,USB_DP*%
X139062500Y-90650000D03*
%TO.P,U101,5*%
%TO.N,/power/VBUS*%
X139062500Y-91600000D03*
%TO.P,U101,6*%
%TO.N,USB_DM*%
X139062500Y-92550000D03*
%TD*%
D28*
%TO.P,C403,1*%
%TO.N,/mcu/EN*%
X126500000Y-76275000D03*
%TO.P,C403,2*%
%TO.N,GND*%
X126500000Y-74725000D03*
%TD*%
D25*
%TO.P,C301,1*%
%TO.N,+3V3*%
X165850000Y-68000000D03*
%TO.P,C301,2*%
%TO.N,GND*%
X167750000Y-68000000D03*
%TD*%
D23*
%TO.P,D402,1*%
%TO.N,+3V3*%
X176500000Y-53000000D03*
%TO.P,D402,2*%
%TO.N,Net-(D402-A)*%
X180500000Y-53000000D03*
%TD*%
D29*
%TO.P,L301,1*%
%TO.N,+3V3*%
X161500000Y-76000000D03*
%TO.P,L301,2*%
%TO.N,/epaper/EPD_SW*%
X164500000Y-76000000D03*
%TD*%
D15*
%TO.P,C203,1*%
%TO.N,/radio/GNSS_VBAT*%
X186500000Y-64450000D03*
%TO.P,C203,2*%
%TO.N,GND*%
X186500000Y-62550000D03*
%TD*%
D25*
%TO.P,C302,1*%
%TO.N,/epaper/EPD_SW*%
X156550000Y-70500000D03*
%TO.P,C302,2*%
%TO.N,/epaper/EPD_PUMP*%
X158450000Y-70500000D03*
%TD*%
D28*
%TO.P,C107,1*%
%TO.N,VBAT_SENSE*%
X162000000Y-97775000D03*
%TO.P,C107,2*%
%TO.N,GND*%
X162000000Y-96225000D03*
%TD*%
D14*
%TO.P,C304,1*%
%TO.N,/epaper/EPD_VGH*%
X142725000Y-73500000D03*
%TO.P,C304,2*%
%TO.N,GND*%
X144275000Y-73500000D03*
%TD*%
D10*
%TO.P,R106,1*%
%TO.N,/power/BAT_PLUS*%
X122175000Y-89500000D03*
%TO.P,R106,2*%
%TO.N,/power/DW01_VCC*%
X123825000Y-89500000D03*
%TD*%
D14*
%TO.P,C303,1*%
%TO.N,/epaper/EPD_VSH2*%
X156725000Y-73500000D03*
%TO.P,C303,2*%
%TO.N,GND*%
X158275000Y-73500000D03*
%TD*%
D16*
%TO.P,TP3,1*%
%TO.N,VBAT_SENSE*%
X107400000Y-91000000D03*
%TD*%
D11*
%TO.P,FID3,*%
%TO.N,*%
X188000000Y-98300000D03*
%TD*%
D10*
%TO.P,R201,1*%
%TO.N,+3V3*%
X178675000Y-71500000D03*
%TO.P,R201,2*%
%TO.N,GNSS_EN*%
X180325000Y-71500000D03*
%TD*%
D18*
%TO.P,D302,1*%
%TO.N,GND*%
X155850000Y-68000000D03*
%TO.P,D302,2*%
%TO.N,/epaper/EPD_PUMP*%
X159150000Y-68000000D03*
%TD*%
D14*
%TO.P,C306,1*%
%TO.N,/epaper/EPD_VDD*%
X149725000Y-73500000D03*
%TO.P,C306,2*%
%TO.N,GND*%
X151275000Y-73500000D03*
%TD*%
D10*
%TO.P,R202,1*%
%TO.N,/radio/GNSS_VCC*%
X178675000Y-66500000D03*
%TO.P,R202,2*%
%TO.N,/radio/GNSS_ONOFF*%
X180325000Y-66500000D03*
%TD*%
D24*
%TO.P,R401,1*%
%TO.N,+3V3*%
X126500000Y-72825000D03*
%TO.P,R401,2*%
%TO.N,/mcu/EN*%
X126500000Y-71175000D03*
%TD*%
D30*
%TO.P,BZ1,1*%
%TO.N,+3V3*%
X167900000Y-89100000D03*
%TO.P,BZ1,2*%
%TO.N,Net-(D401-A)*%
X175100000Y-89100000D03*
%TO.P,BZ1,3*%
%TO.N,unconnected-(BZ1-Pad3)*%
X175100000Y-81900000D03*
%TO.P,BZ1,4*%
%TO.N,unconnected-(BZ1-Pad4)*%
X167900000Y-81900000D03*
%TD*%
D24*
%TO.P,R107,1*%
%TO.N,/power/VBUS*%
X139000000Y-83325000D03*
%TO.P,R107,2*%
%TO.N,GND*%
X139000000Y-81675000D03*
%TD*%
D11*
%TO.P,FID1,*%
%TO.N,*%
X104500000Y-51500000D03*
%TD*%
D23*
%TO.P,D101,1*%
%TO.N,/power/VSYS*%
X134000000Y-78500000D03*
%TO.P,D101,2*%
%TO.N,/power/VBUS*%
X138000000Y-78500000D03*
%TD*%
D31*
%TO.P,LED101,1*%
%TO.N,/power/CHRG_LED*%
X109687500Y-93700000D03*
%TO.P,LED101,2*%
%TO.N,Net-(LED101-A)*%
X108112500Y-93700000D03*
%TD*%
D17*
%TO.P,Q101,1*%
%TO.N,/power/VBUS*%
X134562500Y-81050000D03*
%TO.P,Q101,2*%
%TO.N,/power/VSYS*%
X134562500Y-82950000D03*
%TO.P,Q101,3*%
%TO.N,/power/BAT_PLUS*%
X136437500Y-82000000D03*
%TD*%
D32*
%TO.P,R302,1*%
%TO.N,/epaper/EPD_RESE*%
X170500000Y-76912500D03*
%TO.P,R302,2*%
%TO.N,GND*%
X170500000Y-75087500D03*
%TD*%
D26*
%TO.P,SW401,1*%
%TO.N,/mcu/EN*%
X176000000Y-94450000D03*
%TO.P,SW401,2*%
X182000000Y-94450000D03*
%TO.P,SW401,3*%
%TO.N,GND*%
X176000000Y-98150000D03*
%TO.P,SW401,4*%
X182000000Y-98150000D03*
%TD*%
D33*
%TO.P,U103,1*%
%TO.N,/power/DW01_OD*%
X121862500Y-91050000D03*
%TO.P,U103,2*%
%TO.N,GND*%
X121862500Y-92000000D03*
%TO.P,U103,3*%
%TO.N,/power/DW01_OC*%
X121862500Y-92950000D03*
%TO.P,U103,4*%
%TO.N,unconnected-(U103-TD-Pad4)*%
X124137500Y-92950000D03*
%TO.P,U103,5*%
%TO.N,/power/DW01_VCC*%
X124137500Y-92000000D03*
%TO.P,U103,6*%
%TO.N,/power/BAT_MINUS*%
X124137500Y-91050000D03*
%TD*%
D18*
%TO.P,D201,1*%
%TO.N,/radio/GNSS_VBAT*%
X180350000Y-64500000D03*
%TO.P,D201,2*%
%TO.N,+3V3*%
X183650000Y-64500000D03*
%TD*%
D10*
%TO.P,R405,1*%
%TO.N,Net-(Q402-G)*%
X173675000Y-59500000D03*
%TO.P,R405,2*%
%TO.N,GND*%
X175325000Y-59500000D03*
%TD*%
D26*
%TO.P,SW403,1*%
%TO.N,/mcu/BTN_UP*%
X145000000Y-85650000D03*
%TO.P,SW403,2*%
X151000000Y-85650000D03*
%TO.P,SW403,3*%
%TO.N,GND*%
X145000000Y-89350000D03*
%TO.P,SW403,4*%
X151000000Y-89350000D03*
%TD*%
D28*
%TO.P,C202,1*%
%TO.N,+3V3*%
X125500000Y-62775000D03*
%TO.P,C202,2*%
%TO.N,GND*%
X125500000Y-61225000D03*
%TD*%
D10*
%TO.P,R104,1*%
%TO.N,/power/VBUS*%
X104775000Y-93700000D03*
%TO.P,R104,2*%
%TO.N,Net-(LED101-A)*%
X106425000Y-93700000D03*
%TD*%
D34*
%TO.P,LED102,1*%
%TO.N,/power/STDBY_LED*%
X130712500Y-98500000D03*
%TO.P,LED102,2*%
%TO.N,Net-(LED102-A)*%
X132287500Y-98500000D03*
%TD*%
D24*
%TO.P,R101,1*%
%TO.N,/power/CC1*%
X137000000Y-96325000D03*
%TO.P,R101,2*%
%TO.N,GND*%
X137000000Y-94675000D03*
%TD*%
D35*
%TO.P,U102,1*%
%TO.N,GND*%
X115090000Y-96910000D03*
%TO.P,U102,2*%
%TO.N,/power/PROG*%
X116370000Y-96910000D03*
%TO.P,U102,3*%
%TO.N,GND*%
X117640000Y-96910000D03*
%TO.P,U102,4*%
%TO.N,/power/VBUS*%
X118910000Y-96910000D03*
%TO.P,U102,5*%
%TO.N,/power/BAT_PLUS*%
X118910000Y-91090000D03*
%TO.P,U102,6*%
%TO.N,/power/STDBY_LED*%
X117640000Y-91090000D03*
%TO.P,U102,7*%
%TO.N,/power/CHRG_LED*%
X116370000Y-91090000D03*
%TO.P,U102,8*%
%TO.N,/power/VBUS*%
X115090000Y-91090000D03*
D36*
%TO.P,U102,9*%
%TO.N,GND*%
X117000000Y-94000000D03*
%TD*%
D10*
%TO.P,R301,1*%
%TO.N,/epaper/EPD_GDR*%
X165675000Y-70500000D03*
%TO.P,R301,2*%
%TO.N,GND*%
X167325000Y-70500000D03*
%TD*%
D26*
%TO.P,SW402,1*%
%TO.N,/mcu/BOOT*%
X133000000Y-85650000D03*
%TO.P,SW402,2*%
X139000000Y-85650000D03*
%TO.P,SW402,3*%
%TO.N,GND*%
X133000000Y-89350000D03*
%TO.P,SW402,4*%
X139000000Y-89350000D03*
%TD*%
D18*
%TO.P,D301,1*%
%TO.N,/epaper/EPD_PUMP*%
X160850000Y-68000000D03*
%TO.P,D301,2*%
%TO.N,/epaper/EPD_VGL*%
X164150000Y-68000000D03*
%TD*%
D14*
%TO.P,C310,1*%
%TO.N,/epaper/EPD_VCOM*%
X132225000Y-73500000D03*
%TO.P,C310,2*%
%TO.N,GND*%
X133775000Y-73500000D03*
%TD*%
%TO.P,C309,1*%
%TO.N,/epaper/EPD_VGL*%
X135725000Y-73500000D03*
%TO.P,C309,2*%
%TO.N,GND*%
X137275000Y-73500000D03*
%TD*%
D37*
%TO.P,U104,1*%
%TO.N,/power/BAT_MINUS*%
X131850000Y-92950000D03*
%TO.P,U104,2*%
%TO.N,Net-(U104-D1/D2-Pad2)*%
X131850000Y-92000000D03*
%TO.P,U104,3*%
%TO.N,GND*%
X131850000Y-91050000D03*
%TO.P,U104,4*%
%TO.N,/power/DW01_OC*%
X129150000Y-91050000D03*
%TO.P,U104,5*%
%TO.N,Net-(U104-D1/D2-Pad2)*%
X129150000Y-92000000D03*
%TO.P,U104,6*%
%TO.N,/power/DW01_OD*%
X129150000Y-92950000D03*
%TD*%
D38*
%TO.P,USBC1,A1*%
%TO.N,GND*%
X144750000Y-92755000D03*
%TO.P,USBC1,A4*%
%TO.N,/power/VBUS*%
X145550000Y-92755000D03*
D39*
%TO.P,USBC1,A5*%
%TO.N,/power/CC1*%
X146750000Y-92755000D03*
%TO.P,USBC1,A6*%
%TO.N,/power/USB_DP_RAW*%
X147750000Y-92755000D03*
%TO.P,USBC1,A7*%
%TO.N,/power/USB_DM_RAW*%
X148250000Y-92755000D03*
%TO.P,USBC1,A8*%
%TO.N,unconnected-(USBC1-SBU1-PadA8)*%
X149250000Y-92755000D03*
D38*
%TO.P,USBC1,A9*%
%TO.N,/power/VBUS*%
X150450000Y-92755000D03*
%TO.P,USBC1,A12*%
%TO.N,GND*%
X151250000Y-92755000D03*
%TO.P,USBC1,B1*%
X151250000Y-92755000D03*
%TO.P,USBC1,B4*%
%TO.N,/power/VBUS*%
X150450000Y-92755000D03*
D39*
%TO.P,USBC1,B5*%
%TO.N,/power/CC2*%
X149750000Y-92755000D03*
%TO.P,USBC1,B6*%
%TO.N,/power/USB_DP_RAW*%
X148750000Y-92755000D03*
%TO.P,USBC1,B7*%
%TO.N,/power/USB_DM_RAW*%
X147250000Y-92755000D03*
%TO.P,USBC1,B8*%
%TO.N,unconnected-(USBC1-SBU2-PadB8)*%
X146250000Y-92755000D03*
D38*
%TO.P,USBC1,B9*%
%TO.N,/power/VBUS*%
X145550000Y-92755000D03*
%TO.P,USBC1,B12*%
%TO.N,GND*%
X144750000Y-92755000D03*
D40*
%TO.P,USBC1,SH*%
X143680000Y-93670000D03*
D41*
X143680000Y-97850000D03*
D40*
X152320000Y-93670000D03*
D41*
X152320000Y-97850000D03*
%TD*%
D42*
%TO.P,L201,1*%
%TO.N,/radio/GNSS_RF*%
X188785000Y-79050000D03*
%TO.P,L201,2*%
%TO.N,/radio/GNSS_VCCRF*%
X187815000Y-79050000D03*
%TD*%
D17*
%TO.P,Q301,1*%
%TO.N,/epaper/EPD_GDR*%
X166562500Y-75050000D03*
%TO.P,Q301,2*%
%TO.N,/epaper/EPD_RESE*%
X166562500Y-76950000D03*
%TO.P,Q301,3*%
%TO.N,/epaper/EPD_SW*%
X168437500Y-76000000D03*
%TD*%
D24*
%TO.P,R108,1*%
%TO.N,/power/BAT_PLUS*%
X156000000Y-97825000D03*
%TO.P,R108,2*%
%TO.N,VBAT_SENSE*%
X156000000Y-96175000D03*
%TD*%
D14*
%TO.P,C308,1*%
%TO.N,/epaper/EPD_VSL*%
X139225000Y-73500000D03*
%TO.P,C308,2*%
%TO.N,GND*%
X140775000Y-73500000D03*
%TD*%
D17*
%TO.P,Q402,1*%
%TO.N,Net-(Q402-G)*%
X177062500Y-56050000D03*
%TO.P,Q402,2*%
%TO.N,GND*%
X177062500Y-57950000D03*
%TO.P,Q402,3*%
%TO.N,Net-(D402-A)*%
X178937500Y-57000000D03*
%TD*%
D28*
%TO.P,C402,1*%
%TO.N,+3V3*%
X126500000Y-83275000D03*
%TO.P,C402,2*%
%TO.N,GND*%
X126500000Y-81725000D03*
%TD*%
D34*
%TO.P,LED401,1*%
%TO.N,GND*%
X147212500Y-84000000D03*
%TO.P,LED401,2*%
%TO.N,Net-(LED401-A)*%
X148787500Y-84000000D03*
%TD*%
D28*
%TO.P,C106,1*%
%TO.N,/power/DW01_VCC*%
X126500000Y-92775000D03*
%TO.P,C106,2*%
%TO.N,/power/BAT_MINUS*%
X126500000Y-91225000D03*
%TD*%
D43*
%TO.P,BATT1,1*%
%TO.N,/power/BAT_PLUS*%
X187650000Y-89000000D03*
%TO.P,BATT1,2*%
%TO.N,/power/BAT_MINUS*%
X187650000Y-87000000D03*
D44*
%TO.P,BATT1,MP*%
%TO.N,N/C*%
X193400000Y-91350000D03*
X193400000Y-84650000D03*
%TD*%
D45*
%TO.P,EPD1,1*%
%TO.N,/epaper/EPD_VCOM*%
X145750000Y-78750000D03*
%TO.P,EPD1,2*%
%TO.N,/epaper/EPD_VGL*%
X146250000Y-78750000D03*
%TO.P,EPD1,3*%
%TO.N,/epaper/EPD_VSL*%
X146750000Y-78750000D03*
%TO.P,EPD1,4*%
%TO.N,/epaper/EPD_VGH*%
X147250000Y-78750000D03*
%TO.P,EPD1,5*%
%TO.N,/epaper/EPD_VSH1*%
X147750000Y-78750000D03*
%TO.P,EPD1,6*%
%TO.N,unconnected-(EPD1-Pin_6-Pad6)*%
X148250000Y-78750000D03*
%TO.P,EPD1,7*%
%TO.N,/epaper/EPD_VDD*%
X148750000Y-78750000D03*
%TO.P,EPD1,8*%
%TO.N,GND*%
X149250000Y-78750000D03*
%TO.P,EPD1,9*%
%TO.N,+3V3*%
X149750000Y-78750000D03*
%TO.P,EPD1,10*%
X150250000Y-78750000D03*
%TO.P,EPD1,11*%
%TO.N,SPI_MOSI*%
X150750000Y-78750000D03*
%TO.P,EPD1,12*%
%TO.N,SPI_SCK*%
X151250000Y-78750000D03*
%TO.P,EPD1,13*%
%TO.N,EPD_CS*%
X151750000Y-78750000D03*
%TO.P,EPD1,14*%
%TO.N,EPD_DC*%
X152250000Y-78750000D03*
%TO.P,EPD1,15*%
%TO.N,EPD_RST*%
X152750000Y-78750000D03*
%TO.P,EPD1,16*%
%TO.N,EPD_BUSY*%
X153250000Y-78750000D03*
%TO.P,EPD1,17*%
%TO.N,GND*%
X153750000Y-78750000D03*
%TO.P,EPD1,18*%
%TO.N,unconnected-(EPD1-Pin_18-Pad18)*%
X154250000Y-78750000D03*
%TO.P,EPD1,19*%
%TO.N,unconnected-(EPD1-Pin_19-Pad19)*%
X154750000Y-78750000D03*
%TO.P,EPD1,20*%
%TO.N,/epaper/EPD_VSH2*%
X155250000Y-78750000D03*
%TO.P,EPD1,21*%
%TO.N,unconnected-(EPD1-Pin_21-Pad21)*%
X155750000Y-78750000D03*
%TO.P,EPD1,22*%
%TO.N,/epaper/EPD_RESE*%
X156250000Y-78750000D03*
%TO.P,EPD1,23*%
%TO.N,/epaper/EPD_GDR*%
X156750000Y-78750000D03*
%TO.P,EPD1,24*%
%TO.N,unconnected-(EPD1-Pin_24-Pad24)*%
X157250000Y-78750000D03*
D46*
%TO.P,EPD1,25*%
%TO.N,N/C*%
X158250000Y-76250000D03*
%TO.P,EPD1,26*%
X144750000Y-76250000D03*
%TD*%
D47*
%TO.P,U202,1*%
%TO.N,GND*%
X183690000Y-68600000D03*
%TO.P,U202,2*%
%TO.N,GNSS_RX*%
X183690000Y-69700000D03*
%TO.P,U202,3*%
%TO.N,GNSS_TX*%
X183690000Y-70800000D03*
%TO.P,U202,4*%
%TO.N,unconnected-(U202-1PPS-Pad4)*%
X183690000Y-71900000D03*
%TO.P,U202,5*%
%TO.N,/radio/GNSS_ONOFF*%
X183690000Y-73000000D03*
%TO.P,U202,6*%
%TO.N,/radio/GNSS_VBAT*%
X183690000Y-74100000D03*
%TO.P,U202,7*%
%TO.N,unconnected-(U202-NC-Pad7)*%
X183690000Y-75200000D03*
%TO.P,U202,8*%
%TO.N,/radio/GNSS_VCC*%
X183690000Y-76300000D03*
%TO.P,U202,9*%
%TO.N,unconnected-(U202-NRESET-Pad9)*%
X183690000Y-77400000D03*
%TO.P,U202,10*%
%TO.N,GND*%
X193310000Y-77400000D03*
%TO.P,U202,11*%
%TO.N,/radio/GNSS_RF*%
X193310000Y-76300000D03*
%TO.P,U202,12*%
%TO.N,GND*%
X193310000Y-75200000D03*
%TO.P,U202,13*%
%TO.N,unconnected-(U202-NC-Pad13)*%
X193310000Y-74100000D03*
%TO.P,U202,14*%
%TO.N,/radio/GNSS_VCCRF*%
X193310000Y-73000000D03*
%TO.P,U202,15*%
%TO.N,unconnected-(U202-Reserved-Pad15)*%
X193310000Y-71900000D03*
%TO.P,U202,16*%
%TO.N,unconnected-(U202-SDA-Pad16)*%
X193310000Y-70800000D03*
%TO.P,U202,17*%
%TO.N,unconnected-(U202-SCL-Pad17)*%
X193310000Y-69700000D03*
%TO.P,U202,18*%
%TO.N,unconnected-(U202-Reserved-Pad18)*%
X193310000Y-68600000D03*
%TD*%
D16*
%TO.P,TP5,1*%
%TO.N,GNSS_TX*%
X184300000Y-59900000D03*
%TD*%
D14*
%TO.P,C404,1*%
%TO.N,+3V3*%
X151825000Y-83200000D03*
%TO.P,C404,2*%
%TO.N,GND*%
X153375000Y-83200000D03*
%TD*%
%TO.P,C305,1*%
%TO.N,+3V3*%
X153225000Y-73500000D03*
%TO.P,C305,2*%
%TO.N,GND*%
X154775000Y-73500000D03*
%TD*%
D25*
%TO.P,C101,1*%
%TO.N,/power/VBUS*%
X154550000Y-89500000D03*
%TO.P,C101,2*%
%TO.N,GND*%
X156450000Y-89500000D03*
%TD*%
D48*
%TO.P,ANT1,1*%
%TO.N,/radio/RF_ANT*%
X124475000Y-67500000D03*
D49*
%TO.P,ANT1,2*%
%TO.N,GND*%
X126000000Y-66025000D03*
X126000000Y-68975000D03*
%TD*%
D50*
%TO.P,U401,1*%
%TO.N,GND*%
X104490000Y-87250000D03*
%TO.P,U401,2*%
%TO.N,+3V3*%
X105760000Y-87250000D03*
%TO.P,U401,3*%
%TO.N,/mcu/EN*%
X107030000Y-87250000D03*
%TO.P,U401,4*%
%TO.N,EPD_CS*%
X108300000Y-87250000D03*
%TO.P,U401,5*%
%TO.N,EPD_DC*%
X109570000Y-87250000D03*
%TO.P,U401,6*%
%TO.N,EPD_RST*%
X110840000Y-87250000D03*
%TO.P,U401,7*%
%TO.N,EPD_BUSY*%
X112110000Y-87250000D03*
%TO.P,U401,8*%
%TO.N,/mcu/BUZ_GATE*%
X113380000Y-87250000D03*
%TO.P,U401,9*%
%TO.N,/mcu/VIB_GATE*%
X114650000Y-87250000D03*
%TO.P,U401,10*%
%TO.N,I2C_SDA*%
X115920000Y-87250000D03*
%TO.P,U401,11*%
%TO.N,I2C_SCL*%
X117190000Y-87250000D03*
%TO.P,U401,12*%
%TO.N,RADIO_NSS*%
X118460000Y-87250000D03*
%TO.P,U401,13*%
%TO.N,USB_DM*%
X119730000Y-87250000D03*
%TO.P,U401,14*%
%TO.N,USB_DP*%
X121000000Y-87250000D03*
D51*
%TO.P,U401,15*%
%TO.N,unconnected-(U401-IO3-Pad15)*%
X122250000Y-85485000D03*
%TO.P,U401,16*%
%TO.N,unconnected-(U401-IO46-Pad16)*%
X122250000Y-84215000D03*
%TO.P,U401,17*%
%TO.N,SPI_SCK*%
X122250000Y-82945000D03*
%TO.P,U401,18*%
%TO.N,SPI_MOSI*%
X122250000Y-81675000D03*
%TO.P,U401,19*%
%TO.N,SPI_MISO*%
X122250000Y-80405000D03*
%TO.P,U401,20*%
%TO.N,RADIO_NRESET*%
X122250000Y-79135000D03*
%TO.P,U401,21*%
%TO.N,RADIO_BUSY*%
X122250000Y-77865000D03*
%TO.P,U401,22*%
%TO.N,RADIO_DIO1*%
X122250000Y-76595000D03*
%TO.P,U401,23*%
%TO.N,/mcu/BTN_UP*%
X122250000Y-75325000D03*
%TO.P,U401,24*%
%TO.N,/mcu/BTN_DOWN*%
X122250000Y-74055000D03*
%TO.P,U401,25*%
%TO.N,/mcu/LED_R*%
X122250000Y-72785000D03*
%TO.P,U401,26*%
%TO.N,unconnected-(U401-IO45-Pad26)*%
X122250000Y-71515000D03*
D50*
%TO.P,U401,27*%
%TO.N,/mcu/BOOT*%
X121000000Y-69750000D03*
%TO.P,U401,28*%
%TO.N,GNSS_TX*%
X119730000Y-69750000D03*
%TO.P,U401,29*%
%TO.N,GNSS_RX*%
X118460000Y-69750000D03*
%TO.P,U401,30*%
%TO.N,unconnected-(U401-IO37-Pad30)*%
X117190000Y-69750000D03*
%TO.P,U401,31*%
%TO.N,GNSS_EN*%
X115920000Y-69750000D03*
%TO.P,U401,32*%
%TO.N,unconnected-(U401-IO39-Pad32)*%
X114650000Y-69750000D03*
%TO.P,U401,33*%
%TO.N,unconnected-(U401-IO40-Pad33)*%
X113380000Y-69750000D03*
%TO.P,U401,34*%
%TO.N,unconnected-(U401-IO41-Pad34)*%
X112110000Y-69750000D03*
%TO.P,U401,35*%
%TO.N,unconnected-(U401-IO42-Pad35)*%
X110840000Y-69750000D03*
%TO.P,U401,36*%
%TO.N,unconnected-(U401-RXD0-Pad36)*%
X109570000Y-69750000D03*
%TO.P,U401,37*%
%TO.N,unconnected-(U401-TXD0-Pad37)*%
X108300000Y-69750000D03*
%TO.P,U401,38*%
%TO.N,unconnected-(U401-IO2-Pad38)*%
X107030000Y-69750000D03*
%TO.P,U401,39*%
%TO.N,VBAT_SENSE*%
X105760000Y-69750000D03*
%TO.P,U401,40*%
%TO.N,GND*%
X104490000Y-69750000D03*
D52*
%TO.P,U401,41*%
X111510000Y-81400000D03*
X112910000Y-81400000D03*
X110810000Y-80700000D03*
X112210000Y-80700000D03*
X113610000Y-80700000D03*
X111510000Y-80000000D03*
D53*
X112210000Y-80000000D03*
D52*
X112910000Y-80000000D03*
X110810000Y-79300000D03*
X112210000Y-79300000D03*
X113610000Y-79300000D03*
X111510000Y-78600000D03*
X112910000Y-78600000D03*
%TD*%
D10*
%TO.P,R403,1*%
%TO.N,/mcu/VIB_GATE*%
X172175000Y-55000000D03*
%TO.P,R403,2*%
%TO.N,Net-(Q402-G)*%
X173825000Y-55000000D03*
%TD*%
D16*
%TO.P,TP4,1*%
%TO.N,/power/VSYS*%
X141100000Y-78400000D03*
%TD*%
D33*
%TO.P,U105,1*%
%TO.N,/power/VSYS*%
X154862500Y-92550000D03*
%TO.P,U105,2*%
%TO.N,GND*%
X154862500Y-93500000D03*
%TO.P,U105,3*%
%TO.N,/power/VSYS*%
X154862500Y-94450000D03*
%TO.P,U105,4*%
%TO.N,unconnected-(U105-NC-Pad4)*%
X157137500Y-94450000D03*
%TO.P,U105,5*%
%TO.N,+3V3*%
X157137500Y-92550000D03*
%TD*%
D54*
%TO.P,U201,1*%
%TO.N,GND*%
X106500000Y-53500000D03*
%TO.P,U201,2*%
%TO.N,SPI_MISO*%
X106500000Y-55500000D03*
%TO.P,U201,3*%
%TO.N,SPI_MOSI*%
X106500000Y-57500000D03*
%TO.P,U201,4*%
%TO.N,SPI_SCK*%
X106500000Y-59500000D03*
%TO.P,U201,5*%
%TO.N,RADIO_NSS*%
X106500000Y-61500000D03*
%TO.P,U201,6*%
%TO.N,RADIO_NRESET*%
X106500000Y-63500000D03*
%TO.P,U201,7*%
%TO.N,unconnected-(U201-NC-Pad7)*%
X106500000Y-65500000D03*
%TO.P,U201,8*%
%TO.N,GND*%
X106500000Y-67500000D03*
%TO.P,U201,9*%
%TO.N,/radio/RF_ANT*%
X122500000Y-67500000D03*
%TO.P,U201,10*%
%TO.N,GND*%
X122500000Y-65500000D03*
%TO.P,U201,11*%
%TO.N,unconnected-(U201-DIO3-Pad11)*%
X122500000Y-63500000D03*
%TO.P,U201,12*%
%TO.N,unconnected-(U201-NC-Pad12)*%
X122500000Y-61500000D03*
%TO.P,U201,13*%
%TO.N,+3V3*%
X122500000Y-59500000D03*
%TO.P,U201,14*%
%TO.N,unconnected-(U201-NC-Pad14)*%
X122500000Y-57500000D03*
%TO.P,U201,15*%
%TO.N,RADIO_DIO1*%
X122500000Y-55500000D03*
%TO.P,U201,16*%
%TO.N,RADIO_BUSY*%
X122500000Y-53500000D03*
%TD*%
D55*
%TO.N,/power/VBUS*%
X145041000Y-91600300D03*
X137781000Y-79891300D03*
X137620300Y-84038400D03*
X119841700Y-95978300D03*
X115090000Y-92074300D03*
X140107600Y-91598400D03*
X104775000Y-93200000D03*
%TO.N,+3V3*%
X160309800Y-75409100D03*
X168881600Y-71500000D03*
X119178600Y-88391400D03*
X165710700Y-89705400D03*
X124533600Y-83736200D03*
%TO.N,I2C_SCL*%
X147797000Y-86612600D03*
X171025100Y-92623900D03*
%TO.N,I2C_SDA*%
X165558600Y-93444400D03*
X120940200Y-85276400D03*
%TO.N,GND*%
X181929000Y-74000000D03*
X116497800Y-89186000D03*
X185001200Y-79838000D03*
X189516600Y-75248800D03*
X186310500Y-66882900D03*
X180533500Y-87691500D03*
X193925600Y-82106000D03*
X180500000Y-91198100D03*
X110002900Y-74647900D03*
X180067800Y-98579700D03*
%TO.N,/power/VSYS*%
X155116100Y-91177400D03*
X143060800Y-79539000D03*
%TO.N,GNSS_EN*%
X123654000Y-66492200D03*
X179300000Y-68732500D03*
%TO.N,/epaper/EPD_VGH*%
X159391600Y-69726300D03*
X147012300Y-76917500D03*
%TO.N,GNSS_RX*%
X180855300Y-60883300D03*
X124471000Y-68538300D03*
%TO.N,VBAT_SENSE*%
X106262500Y-91000000D03*
X105760000Y-70892400D03*
X151214500Y-97867400D03*
X151910400Y-95918600D03*
%TO.N,/mcu/BUZ_GATE*%
X169579300Y-89946300D03*
X120339900Y-84683800D03*
%TO.N,/power/BAT_PLUS*%
X137979700Y-80523100D03*
X128578700Y-82135400D03*
X158122700Y-97825000D03*
X170332300Y-90528000D03*
X124557200Y-87207100D03*
%TO.N,/mcu/BTN_DOWN*%
X124140400Y-73858000D03*
X154121000Y-84683800D03*
%TO.N,/power/USB_DM_RAW*%
X140300000Y-94000000D03*
X147250000Y-95400000D03*
X148250000Y-95400000D03*
%TO.N,/power/USB_DP_RAW*%
X147750000Y-94300000D03*
X148750000Y-94300000D03*
D56*
%TO.N,USB_DP*%
X121000000Y-88600000D03*
D55*
X138000000Y-90650000D03*
D56*
%TO.N,USB_DM*%
X119730000Y-89300000D03*
D55*
X138000000Y-93000000D03*
%TO.N,/mcu/EN*%
X121096100Y-84202100D03*
X128542200Y-71656800D03*
X174700500Y-93438700D03*
X126680800Y-77114800D03*
%TO.N,/radio/GNSS_VBAT*%
X181928000Y-68676100D03*
X185500300Y-65334300D03*
%TO.N,/epaper/EPD_PUMP*%
X160000000Y-68066700D03*
X159350200Y-70924200D03*
%TO.N,/power/CHRG_LED*%
X116370000Y-91090000D03*
X113600000Y-91500000D03*
%TO.N,/power/DW01_OC*%
X121522200Y-93682300D03*
X128212000Y-91590600D03*
%TO.N,/power/BAT_MINUS*%
X152403400Y-87239000D03*
X132105100Y-93646300D03*
X145890000Y-89084400D03*
X159220600Y-80312600D03*
%TO.N,/mcu/BTN_UP*%
X133560600Y-81553700D03*
X143762300Y-85481400D03*
%TO.N,/power/STDBY_LED*%
X131412800Y-97832700D03*
X118351500Y-89865600D03*
%TO.N,/power/CC1*%
X141821900Y-94610000D03*
X143286000Y-95742300D03*
%TO.N,/epaper/EPD_GDR*%
X159374500Y-78111000D03*
X163849500Y-72661900D03*
%TO.N,/mcu/BOOT*%
X125442500Y-73899400D03*
X123388400Y-81209900D03*
%TO.N,/epaper/EPD_VGL*%
X146283200Y-77552600D03*
X152934100Y-67216500D03*
%TO.N,/epaper/EPD_VSL*%
X140324100Y-75301700D03*
X144514300Y-79491900D03*
%TO.N,SPI_MOSI*%
X117328800Y-81757200D03*
X105567800Y-58500000D03*
%TO.N,SPI_SCK*%
X105079000Y-59500000D03*
X118680100Y-82865500D03*
X111306900Y-82964900D03*
X150870100Y-77867800D03*
%TO.N,EPD_CS*%
X136353300Y-72020800D03*
X112471800Y-84856300D03*
X132408600Y-70263400D03*
X151885000Y-80022000D03*
%TO.N,EPD_DC*%
X113892600Y-85510500D03*
X151801100Y-77863100D03*
%TO.N,EPD_RST*%
X112543500Y-82407400D03*
X152750000Y-77840000D03*
X120233200Y-81275500D03*
X111295500Y-85683700D03*
%TO.N,EPD_BUSY*%
X151256500Y-80453100D03*
X111823100Y-86117000D03*
%TO.N,GNSS_TX*%
X174739200Y-61308100D03*
X124135700Y-69773800D03*
%TO.N,/mcu/VIB_GATE*%
X115116400Y-86112200D03*
X130111700Y-67186000D03*
%TO.N,RADIO_NSS*%
X106382800Y-62498400D03*
X117595300Y-85897100D03*
%TO.N,SPI_MISO*%
X117075500Y-80405000D03*
X106066800Y-56500000D03*
%TO.N,RADIO_BUSY*%
X121115300Y-77865000D03*
X120566800Y-53485200D03*
%TO.N,RADIO_DIO1*%
X123459600Y-56499900D03*
X123390600Y-76733100D03*
%TD*%
%TO.N,/power/VBUS*%
D57*
X150450000Y-91694700D02*
X145550000Y-91694700D01*
X140106000Y-91600000D02*
X140107600Y-91598400D01*
X118910000Y-95980000D02*
X119840000Y-95980000D01*
X137720200Y-78779800D02*
X137720200Y-79830500D01*
X152355300Y-91694700D02*
X154550000Y-89500000D01*
X139000000Y-83325000D02*
X138333700Y-83325000D01*
X127175000Y-97667000D02*
X121008000Y-97667000D01*
X145135400Y-91694700D02*
X145041000Y-91600300D01*
X118910000Y-95980000D02*
X119840000Y-95980000D01*
X150450000Y-91694700D02*
X152355300Y-91694700D01*
X145550000Y-91694700D02*
X145135400Y-91694700D01*
X118910000Y-95978300D02*
X119841700Y-95978300D01*
X104775000Y-93200000D02*
X104775000Y-93700000D01*
X121010000Y-97670000D02*
X120300000Y-96600000D01*
X136822900Y-91600000D02*
X130755900Y-97667000D01*
X115090000Y-92074300D02*
X115090000Y-91090000D01*
X138333700Y-83325000D02*
X137620300Y-84038400D01*
X134562500Y-81050000D02*
X135782000Y-79830500D01*
X135782000Y-79830500D02*
X137720200Y-79830500D01*
X137720200Y-79830500D02*
X137781000Y-79891300D01*
X130755900Y-97667000D02*
X127175000Y-97667000D01*
X118910000Y-96910000D02*
X118910000Y-95980000D01*
X120300000Y-96600000D02*
X119840000Y-95980000D01*
X127175000Y-97667000D02*
X127175000Y-98500000D01*
X118910000Y-95980000D02*
X119840000Y-95980000D01*
X138000000Y-78500000D02*
X137720200Y-78779800D01*
X139062500Y-91600000D02*
X140106000Y-91600000D01*
X139062500Y-91600000D02*
X136822900Y-91600000D01*
X150450000Y-91694700D02*
X150450000Y-92755000D01*
X145550000Y-92755000D02*
X145550000Y-91694700D01*
%TO.N,Net-(LED102-A)*%
D58*
X132287500Y-98500000D02*
X131574600Y-99212900D01*
X129537900Y-99212900D02*
X128825000Y-98500000D01*
X131574600Y-99212900D02*
X129537900Y-99212900D01*
%TO.N,+3V3*%
D57*
X150250000Y-79581700D02*
X149750000Y-79581700D01*
X161500000Y-73718300D02*
X159924200Y-72142500D01*
X161654200Y-93604200D02*
X162500000Y-94450000D01*
X149750000Y-78750000D02*
X149750000Y-79581700D01*
X159924200Y-72142500D02*
X154582500Y-72142500D01*
X150250000Y-76475000D02*
X153225000Y-73500000D01*
X160368300Y-75467600D02*
X160368300Y-76000000D01*
X126038800Y-83736200D02*
X126500000Y-83275000D01*
X128050400Y-84825400D02*
X126500000Y-83275000D01*
X157137500Y-92550000D02*
X158191700Y-93604200D01*
X176856100Y-66880100D02*
X176856100Y-63520400D01*
X150250000Y-79581700D02*
X150250000Y-81625000D01*
X176856100Y-68556500D02*
X176856100Y-66880100D01*
X172864900Y-60256400D02*
X176128900Y-63520400D01*
X163725000Y-94450000D02*
X163725000Y-95390700D01*
X125644400Y-82419400D02*
X126500000Y-83275000D01*
X154582500Y-72142500D02*
X153225000Y-73500000D01*
X172864900Y-57541400D02*
X172864900Y-60256400D01*
X125644400Y-80805600D02*
X125644400Y-82419400D01*
X171200000Y-89100000D02*
X167900000Y-89100000D01*
X167900000Y-89100000D02*
X167900000Y-89705400D01*
X167900000Y-90631700D02*
X167543300Y-90631700D01*
X150250000Y-78750000D02*
X150250000Y-79581700D01*
X176500000Y-53000000D02*
X174573000Y-53000000D01*
X124533600Y-83736200D02*
X126038800Y-83736200D01*
X133600000Y-69800000D02*
X134681700Y-69800000D01*
X166969900Y-66880100D02*
X176856100Y-66880100D01*
X105760000Y-87250000D02*
X105760000Y-88331700D01*
X167900000Y-89865800D02*
X167900000Y-90631700D01*
X129525000Y-66800000D02*
X129525000Y-69624100D01*
X178249600Y-69950000D02*
X176856100Y-68556500D01*
X137980000Y-66501700D02*
X164351700Y-66501700D01*
X126500000Y-79950000D02*
X125644400Y-80805600D01*
X126339100Y-61935900D02*
X126339100Y-60289100D01*
X172944000Y-57462300D02*
X172864900Y-57541400D01*
X126339100Y-60289100D02*
X125500000Y-59450000D01*
X161500000Y-76000000D02*
X160368300Y-76000000D01*
X174573000Y-53000000D02*
X172944000Y-54629000D01*
X164351700Y-66501700D02*
X165850000Y-68000000D01*
X172944000Y-54629000D02*
X172944000Y-57462300D01*
X125450000Y-59500000D02*
X125500000Y-59450000D01*
X163725000Y-95390700D02*
X165534300Y-97200000D01*
X105760000Y-88331700D02*
X119118900Y-88331700D01*
X134681700Y-69800000D02*
X137980000Y-66501700D01*
X153225000Y-73500000D02*
X151626800Y-71901800D01*
X165534300Y-97200000D02*
X167750000Y-97200000D01*
X151825000Y-83200000D02*
X150199600Y-84825400D01*
X176856100Y-63520400D02*
X181143000Y-63520400D01*
X176128900Y-63520400D02*
X176856100Y-63520400D01*
X128196700Y-72825000D02*
X126500000Y-72825000D01*
X119118900Y-88331700D02*
X119178600Y-88391400D01*
X162500000Y-94450000D02*
X163725000Y-94450000D01*
X129525000Y-69624100D02*
X129525000Y-71496700D01*
X177810200Y-51689800D02*
X176500000Y-53000000D01*
X150250000Y-78750000D02*
X150250000Y-76475000D01*
X167900000Y-89865800D02*
X168040800Y-89865800D01*
X167900000Y-89705400D02*
X165710700Y-89705400D01*
X167900000Y-89705400D02*
X167900000Y-89865800D01*
X129525000Y-71496700D02*
X128196700Y-72825000D01*
X178675000Y-70062500D02*
X178562500Y-69950000D01*
X165850000Y-68000000D02*
X166969900Y-66880100D01*
X150250000Y-81625000D02*
X151825000Y-83200000D01*
X151626800Y-71901800D02*
X147726800Y-71901800D01*
X161500000Y-76000000D02*
X161500000Y-73718300D01*
X133600000Y-69800000D02*
X133424100Y-69624100D01*
X125500000Y-62775000D02*
X129525000Y-66800000D01*
X122500000Y-59500000D02*
X125450000Y-59500000D01*
X168040800Y-89865800D02*
X170175000Y-92000000D01*
X182122600Y-64500000D02*
X183650000Y-64500000D01*
X158191700Y-93604200D02*
X161654200Y-93604200D01*
X181143000Y-63520400D02*
X182122600Y-64500000D01*
X147726800Y-71901800D02*
X146725000Y-70900000D01*
X178500000Y-81800000D02*
X171200000Y-89100000D01*
X191300000Y-60250000D02*
X182739800Y-51689800D01*
X163725000Y-94450000D02*
X166175000Y-92000000D01*
X178675000Y-71500000D02*
X168881600Y-71500000D01*
X182739800Y-51689800D02*
X177810200Y-51689800D01*
X178675000Y-71500000D02*
X178675000Y-70062500D01*
X167543300Y-90631700D02*
X166175000Y-92000000D01*
X133424100Y-69624100D02*
X129525000Y-69624100D01*
X125500000Y-62775000D02*
X126339100Y-61935900D01*
X178562500Y-69950000D02*
X178249600Y-69950000D01*
X160309800Y-75409100D02*
X160368300Y-75467600D01*
X150199600Y-84825400D02*
X128050400Y-84825400D01*
%TO.N,I2C_SCL*%
D58*
X117113600Y-85697600D02*
X117113600Y-86191900D01*
X117190000Y-87250000D02*
X117190000Y-86268300D01*
X117794900Y-85415400D02*
X117395800Y-85415400D01*
X119457200Y-85617400D02*
X117996900Y-85617400D01*
X125734000Y-86612600D02*
X125288100Y-86166700D01*
X170750000Y-92899000D02*
X171025100Y-92623900D01*
X117113600Y-86191900D02*
X117190000Y-86268300D01*
X117996900Y-85617400D02*
X117794900Y-85415400D01*
X120006500Y-86166700D02*
X119457200Y-85617400D01*
X147797000Y-86612600D02*
X125734000Y-86612600D01*
X117395800Y-85415400D02*
X117113600Y-85697600D01*
X125288100Y-86166700D02*
X120006500Y-86166700D01*
X170750000Y-97200000D02*
X170750000Y-92899000D01*
X171825000Y-92000000D02*
X171201100Y-92623900D01*
X171201100Y-92623900D02*
X171025100Y-92623900D01*
%TO.N,I2C_SDA*%
X117932300Y-85083700D02*
X117104600Y-85083700D01*
X118125000Y-85276400D02*
X117932300Y-85083700D01*
X117104600Y-85083700D02*
X115920000Y-86268300D01*
X115920000Y-87250000D02*
X115920000Y-86268300D01*
X167825000Y-93444400D02*
X167825000Y-92000000D01*
X167825000Y-93444400D02*
X165558600Y-93444400D01*
X169250000Y-97200000D02*
X169250000Y-94869400D01*
X169250000Y-94869400D02*
X167825000Y-93444400D01*
X120940200Y-85276400D02*
X118125000Y-85276400D01*
%TO.N,/epaper/EPD_VSH1*%
X147750000Y-78750000D02*
X147750000Y-75025000D01*
X147750000Y-75025000D02*
X146225000Y-73500000D01*
%TO.N,Net-(Q401-G)*%
X181325000Y-87324900D02*
X181325000Y-89000000D01*
X179562500Y-85050000D02*
X179562500Y-85562400D01*
X181325000Y-89000000D02*
X179675000Y-90650000D01*
X179562500Y-85562400D02*
X181325000Y-87324900D01*
X179675000Y-90650000D02*
X179675000Y-91500000D01*
%TO.N,/power/VSYS*%
D57*
X140018300Y-79539000D02*
X143060800Y-79539000D01*
X155116100Y-92296400D02*
X155116100Y-91177400D01*
X135277800Y-77222200D02*
X139245500Y-77222200D01*
X134562500Y-82950000D02*
X136975000Y-82950000D01*
X155516200Y-94219500D02*
X155900200Y-93835500D01*
X136975000Y-82950000D02*
X137629900Y-82295100D01*
X154862500Y-92550000D02*
X155116100Y-92296400D01*
X141100000Y-78400000D02*
X140018300Y-78400000D01*
X139245500Y-77222200D02*
X140018300Y-77995000D01*
X155261600Y-92550000D02*
X154862500Y-92550000D01*
X156407400Y-95110800D02*
X155516200Y-94219500D01*
X159500000Y-94450000D02*
X158839200Y-95110800D01*
X158839200Y-95110800D02*
X156407400Y-95110800D01*
X140018300Y-77995000D02*
X140018300Y-78400000D01*
X155900200Y-93835500D02*
X155900200Y-93188600D01*
X140018300Y-79539000D02*
X140018300Y-78400000D01*
X137629900Y-81767900D02*
X139858800Y-79539000D01*
X154862500Y-94450000D02*
X155285700Y-94450000D01*
X137629900Y-82295100D02*
X137629900Y-81767900D01*
X155285700Y-94450000D02*
X155516200Y-94219500D01*
X155900200Y-93188600D02*
X155261600Y-92550000D01*
X139858800Y-79539000D02*
X140018300Y-79539000D01*
X134000000Y-78500000D02*
X135277800Y-77222200D01*
%TO.N,/power/CC2*%
D58*
X149750000Y-92755000D02*
X149750000Y-93850000D01*
X136350000Y-98850000D02*
X137775000Y-98850000D01*
X150100000Y-94350000D02*
X150100000Y-97350000D01*
X149750000Y-93850000D02*
X150100000Y-94350000D01*
X143000000Y-96820000D02*
X142850000Y-97350000D01*
X142850000Y-97350000D02*
X136350000Y-97350000D01*
X144750000Y-97350000D02*
X144300000Y-96820000D01*
X150100000Y-97350000D02*
X144750000Y-97350000D01*
X144300000Y-96820000D02*
X143000000Y-96820000D01*
X136350000Y-97350000D02*
X136350000Y-98850000D01*
%TO.N,GNSS_EN*%
X120113700Y-67951500D02*
X121573000Y-66492200D01*
X178894900Y-68050000D02*
X179300000Y-68455100D01*
X179300000Y-68455100D02*
X179300000Y-68732500D01*
X115920000Y-69750000D02*
X115920000Y-68768300D01*
X116736800Y-67951500D02*
X120113700Y-67951500D01*
X115920000Y-68768300D02*
X116736800Y-67951500D01*
X178562500Y-68050000D02*
X178894900Y-68050000D01*
X121573000Y-66492200D02*
X123654000Y-66492200D01*
X179300000Y-68455100D02*
X181182500Y-68455100D01*
X181425600Y-70399400D02*
X180325000Y-71500000D01*
X181425600Y-68698200D02*
X181425600Y-70399400D01*
X181182500Y-68455100D02*
X181425600Y-68698200D01*
%TO.N,/radio/GNSS_VCC*%
D57*
X180437500Y-69848800D02*
X179500000Y-70786300D01*
X179565800Y-75659200D02*
X181831000Y-75659200D01*
X181831000Y-75659200D02*
X182471800Y-76300000D01*
X179565800Y-75015800D02*
X178550000Y-74000000D01*
X183690000Y-76300000D02*
X182471800Y-76300000D01*
X177436500Y-67738500D02*
X177436500Y-68355500D01*
X178395200Y-69314200D02*
X180123300Y-69314200D01*
X180437500Y-69000000D02*
X180437500Y-69848800D01*
X177436500Y-68355500D02*
X178395200Y-69314200D01*
X178725000Y-76500000D02*
X179565800Y-75659200D01*
X179500000Y-73050000D02*
X178550000Y-74000000D01*
X179565800Y-75659200D02*
X179565800Y-75015800D01*
X179500000Y-70786300D02*
X179500000Y-73050000D01*
X180123300Y-69314200D02*
X180437500Y-69000000D01*
X178675000Y-66500000D02*
X177436500Y-67738500D01*
%TO.N,/epaper/EPD_VGH*%
X147250000Y-78750000D02*
X147250000Y-77226000D01*
X160850000Y-70500000D02*
X160076300Y-69726300D01*
X146976900Y-76952900D02*
X145424900Y-75400900D01*
X145424900Y-75400900D02*
X144625900Y-75400900D01*
X147250000Y-77226000D02*
X146976900Y-76952900D01*
X146976900Y-76952900D02*
X147012300Y-76917500D01*
X160076300Y-69726300D02*
X159391600Y-69726300D01*
X144625900Y-75400900D02*
X142725000Y-73500000D01*
%TO.N,/epaper/EPD_SW*%
X163058900Y-71591100D02*
X157641100Y-71591100D01*
X164500000Y-76000000D02*
X164500000Y-73718300D01*
X164150000Y-70500000D02*
X163058900Y-71591100D01*
X164500000Y-76000000D02*
X168437500Y-76000000D01*
X163058900Y-72693900D02*
X164083300Y-73718300D01*
X157641100Y-71591100D02*
X156550000Y-70500000D01*
X163058900Y-71591100D02*
X163058900Y-72693900D01*
X164083300Y-73718300D02*
X164500000Y-73718300D01*
%TO.N,Net-(D402-A)*%
D58*
X180500000Y-53000000D02*
X178937500Y-54562500D01*
X190362700Y-61750000D02*
X188705600Y-60092900D01*
X178937500Y-54562500D02*
X178937500Y-57000000D01*
X188705600Y-60092900D02*
X188705600Y-58981900D01*
X186723700Y-57000000D02*
X178937500Y-57000000D01*
X191300000Y-61750000D02*
X190362700Y-61750000D01*
X188705600Y-58981900D02*
X186723700Y-57000000D01*
%TO.N,/mcu/LED_R*%
X124622100Y-77609100D02*
X124622100Y-73658400D01*
X122250000Y-72785000D02*
X123231700Y-72785000D01*
X141372000Y-76789100D02*
X129851600Y-76789100D01*
X129851600Y-76789100D02*
X127834200Y-78806500D01*
X123748700Y-72785000D02*
X123231700Y-72785000D01*
X142430000Y-78103500D02*
X142430000Y-77847100D01*
X145826500Y-81500000D02*
X142430000Y-78103500D01*
X124622100Y-73658400D02*
X123748700Y-72785000D01*
X127834200Y-78806500D02*
X125819500Y-78806500D01*
X125819500Y-78806500D02*
X124622100Y-77609100D01*
X147175000Y-81500000D02*
X145826500Y-81500000D01*
X142430000Y-77847100D02*
X141372000Y-76789100D01*
%TO.N,Net-(LED401-A)*%
X148787500Y-84000000D02*
X148787500Y-81537500D01*
X148787500Y-81537500D02*
X148825000Y-81500000D01*
%TO.N,GNSS_RX*%
X118460000Y-69750000D02*
X118460000Y-68768300D01*
X187485900Y-67022300D02*
X187485900Y-61067600D01*
X118460000Y-68768300D02*
X118690000Y-68538300D01*
X186806700Y-60883300D02*
X180855300Y-60883300D01*
X187300000Y-60390000D02*
X186806700Y-60883300D01*
X118690000Y-68538300D02*
X124471000Y-68538300D01*
X187300000Y-59900000D02*
X187300000Y-60390000D01*
X187300000Y-60390000D02*
X187300000Y-60881700D01*
X184808200Y-69700000D02*
X187485900Y-67022300D01*
X187485900Y-61067600D02*
X187300000Y-60881700D01*
X183690000Y-69700000D02*
X184808200Y-69700000D01*
%TO.N,/radio/GNSS_RF*%
D59*
X188785000Y-79050000D02*
X190400000Y-78600000D01*
X194650000Y-78600000D02*
X192500000Y-78600000D01*
X192500000Y-78600000D02*
X192500000Y-79075000D01*
X190400000Y-78600000D02*
X192500000Y-78600000D01*
X194650000Y-76300000D02*
X194650000Y-78600000D01*
X193310000Y-76300000D02*
X194650000Y-76300000D01*
%TO.N,Net-(D401-A)*%
D58*
X175100000Y-89100000D02*
X175100000Y-87668300D01*
X181437500Y-84517700D02*
X181437500Y-86000000D01*
X178250600Y-84517700D02*
X181437500Y-84517700D01*
X175100000Y-87668300D02*
X178250600Y-84517700D01*
X181437500Y-82862500D02*
X181437500Y-84517700D01*
X182500000Y-81800000D02*
X181437500Y-82862500D01*
%TO.N,VBAT_SENSE*%
X159000000Y-97825000D02*
X157943300Y-98881700D01*
X159050000Y-97775000D02*
X159000000Y-97825000D01*
X107400000Y-91000000D02*
X106418300Y-91000000D01*
X151989700Y-98881700D02*
X151214500Y-98106500D01*
X151910400Y-95918600D02*
X155743600Y-95918600D01*
X162000000Y-97775000D02*
X159050000Y-97775000D01*
X106418300Y-91000000D02*
X106262500Y-91000000D01*
X105760000Y-69750000D02*
X105760000Y-70892400D01*
X151214500Y-98106500D02*
X151214500Y-97867400D01*
X157943300Y-98881700D02*
X151989700Y-98881700D01*
X155743600Y-95918600D02*
X156000000Y-96175000D01*
%TO.N,/power/PROG*%
X116375000Y-98900000D02*
X116375000Y-97800000D01*
X116370000Y-97400000D02*
X116370000Y-96910000D01*
X116375000Y-97800000D02*
X116370000Y-97400000D01*
%TO.N,/mcu/BUZ_GATE*%
X115414200Y-84683800D02*
X120339900Y-84683800D01*
X178143300Y-90531700D02*
X173342900Y-90531700D01*
X113380000Y-87250000D02*
X113380000Y-86268300D01*
X113829700Y-86268300D02*
X115414200Y-84683800D01*
X172757500Y-89946300D02*
X169579300Y-89946300D01*
X179675000Y-89000000D02*
X178143300Y-90531700D01*
X173342900Y-90531700D02*
X172757500Y-89946300D01*
X113380000Y-86268300D02*
X113829700Y-86268300D01*
%TO.N,/power/BAT_PLUS*%
D57*
X171581100Y-90528000D02*
X173361500Y-92308400D01*
X121516700Y-90158300D02*
X122175000Y-89500000D01*
X136437500Y-82000000D02*
X136302100Y-82135400D01*
X118910000Y-92021700D02*
X115905800Y-92021700D01*
X124467900Y-87207100D02*
X124557200Y-87207100D01*
X136437500Y-82000000D02*
X136502800Y-82000000D01*
X136302100Y-82135400D02*
X128578700Y-82135400D01*
X118910000Y-91090000D02*
X118910000Y-90158300D01*
X156000000Y-97825000D02*
X158122700Y-97825000D01*
X118910000Y-90158300D02*
X121516700Y-90158300D01*
X173361500Y-92308400D02*
X184341600Y-92308400D01*
X184341600Y-92308400D02*
X187650000Y-89000000D01*
X170332300Y-90528000D02*
X171581100Y-90528000D01*
X118910000Y-91090000D02*
X118910000Y-92021700D01*
X115905800Y-92021700D02*
X115738300Y-91854200D01*
X136502800Y-82000000D02*
X137979700Y-80523100D01*
X115738300Y-89688300D02*
X115550000Y-89500000D01*
X115738300Y-91854200D02*
X115738300Y-89688300D01*
X122175000Y-89500000D02*
X124467900Y-87207100D01*
%TO.N,/mcu/BTN_DOWN*%
D58*
X123943400Y-74055000D02*
X124140400Y-73858000D01*
X122250000Y-74055000D02*
X123943400Y-74055000D01*
X154121000Y-84683800D02*
X155087200Y-85650000D01*
X163000000Y-85650000D02*
X157000000Y-85650000D01*
X155087200Y-85650000D02*
X157000000Y-85650000D01*
%TO.N,/power/USB_DM_RAW*%
D60*
X141337500Y-92550000D02*
X141338000Y-92550000D01*
D58*
X148250000Y-92755000D02*
X148250000Y-95400000D01*
D60*
X140900000Y-93100000D02*
X141337500Y-92550000D01*
X140300000Y-94000000D02*
X140900000Y-93100000D01*
D58*
X147250000Y-92755000D02*
X147250000Y-95400000D01*
%TO.N,/power/USB_DP_RAW*%
D60*
X142300000Y-96400000D02*
X142350000Y-93600000D01*
X148750000Y-94300000D02*
X149400000Y-94300000D01*
X149400000Y-96400000D02*
X142300000Y-96400000D01*
D58*
X148750000Y-92755000D02*
X148750000Y-94300000D01*
D60*
X149400000Y-94300000D02*
X149400000Y-96400000D01*
X149400000Y-94300000D02*
X149400000Y-96400000D01*
X141337500Y-90650000D02*
X141338000Y-90650000D01*
D58*
X147750000Y-92755000D02*
X147750000Y-94300000D01*
D60*
X142350000Y-89900000D02*
X141337500Y-89900000D01*
X149400000Y-94300000D02*
X149400000Y-96400000D01*
X149400000Y-94300000D02*
X149400000Y-96400000D01*
X141337500Y-89900000D02*
X141337500Y-90650000D01*
X142350000Y-93600000D02*
X142350000Y-89900000D01*
X148750000Y-94300000D02*
X149400000Y-94300000D01*
X148750000Y-94300000D02*
X149400000Y-94300000D01*
X148750000Y-94300000D02*
X149400000Y-94300000D01*
%TO.N,USB_DP*%
X139062000Y-90650000D02*
X139062500Y-90650000D01*
X139062500Y-90650000D02*
X138000000Y-90650000D01*
X121000000Y-88600000D02*
X121000000Y-87250000D01*
%TO.N,USB_DM*%
X119730000Y-89300000D02*
X119730000Y-87250000D01*
X139062500Y-92550000D02*
X138000000Y-93000000D01*
X139062500Y-92550000D02*
X139062000Y-92550000D01*
%TO.N,/mcu/EN*%
D58*
X126500000Y-76275000D02*
X125775200Y-75550200D01*
X109096200Y-84202100D02*
X121096100Y-84202100D01*
X107030000Y-87250000D02*
X107030000Y-86268300D01*
X126500000Y-76934000D02*
X126680800Y-77114800D01*
X125775200Y-74248000D02*
X125924200Y-74099000D01*
X125775200Y-71899800D02*
X126500000Y-71175000D01*
X126500000Y-76275000D02*
X126500000Y-76934000D01*
X128060400Y-71175000D02*
X128542200Y-71656800D01*
X126500000Y-71175000D02*
X128060400Y-71175000D01*
X175595400Y-93438700D02*
X174700500Y-93438700D01*
X182000000Y-94450000D02*
X176000000Y-94450000D01*
X125775200Y-73550800D02*
X125775200Y-71899800D01*
X176000000Y-94450000D02*
X176000000Y-93843300D01*
X125924200Y-74099000D02*
X125924200Y-73699800D01*
X125775200Y-75550200D02*
X125775200Y-74248000D01*
X125924200Y-73699800D02*
X125775200Y-73550800D01*
X107030000Y-86268300D02*
X109096200Y-84202100D01*
X176000000Y-93843300D02*
X175595400Y-93438700D01*
%TO.N,/radio/GNSS_VBAT*%
X186500000Y-64450000D02*
X185615700Y-65334300D01*
X179624200Y-66931900D02*
X179899800Y-67207500D01*
X180459400Y-67207500D02*
X181928000Y-68676100D01*
X183690000Y-74100000D02*
X182571800Y-74100000D01*
X179624200Y-65225800D02*
X179624200Y-66931900D01*
X179899800Y-67207500D02*
X180459400Y-67207500D01*
X181928000Y-68676100D02*
X181928000Y-72837400D01*
X180350000Y-64500000D02*
X179624200Y-65225800D01*
X185615700Y-65334300D02*
X185500300Y-65334300D01*
X181928000Y-72837400D02*
X182571800Y-73481200D01*
X182571800Y-73481200D02*
X182571800Y-74100000D01*
%TO.N,/epaper/EPD_PUMP*%
X158450000Y-70500000D02*
X158874200Y-70924200D01*
X158874200Y-70924200D02*
X159350200Y-70924200D01*
X159216700Y-68066700D02*
X159150000Y-68000000D01*
X160000000Y-68066700D02*
X159216700Y-68066700D01*
X160850000Y-68000000D02*
X159150000Y-68000000D01*
%TO.N,/power/DW01_VCC*%
X123206200Y-90118800D02*
X123825000Y-89500000D01*
X125725000Y-92000000D02*
X126500000Y-92775000D01*
X123870000Y-92000000D02*
X123206200Y-91336200D01*
X124137500Y-92000000D02*
X125725000Y-92000000D01*
X124137500Y-92000000D02*
X123870000Y-92000000D01*
X123206200Y-91336200D02*
X123206200Y-90118800D01*
%TO.N,/epaper/EPD_VSH2*%
X155250000Y-74975000D02*
X156725000Y-73500000D01*
X155250000Y-78750000D02*
X155250000Y-74975000D01*
%TO.N,/epaper/EPD_VDD*%
X148750000Y-78750000D02*
X148750000Y-74475000D01*
X148750000Y-74475000D02*
X149725000Y-73500000D01*
%TO.N,/radio/GNSS_ONOFF*%
X182571800Y-68638600D02*
X180433200Y-66500000D01*
X180433200Y-66500000D02*
X180325000Y-66500000D01*
X183690000Y-73000000D02*
X182571800Y-73000000D01*
X182571800Y-73000000D02*
X182571800Y-68638600D01*
%TO.N,/power/CHRG_LED*%
X110500000Y-93700000D02*
X109687500Y-93700000D01*
X111600000Y-93400000D02*
X110500000Y-93700000D01*
X113600000Y-91500000D02*
X111600000Y-93400000D01*
%TO.N,Net-(LED101-A)*%
X106425000Y-93700000D02*
X108112500Y-93700000D01*
%TO.N,/epaper/EPD_RESE*%
X166562500Y-76950000D02*
X170462500Y-76950000D01*
X159574100Y-77629300D02*
X156639000Y-77629300D01*
X156639000Y-77629300D02*
X156250000Y-78018300D01*
X166562500Y-76950000D02*
X166562500Y-77048900D01*
X165429700Y-78181700D02*
X160126500Y-78181700D01*
X160126500Y-78181700D02*
X159574100Y-77629300D01*
X156250000Y-78750000D02*
X156250000Y-78018300D01*
X170462500Y-76950000D02*
X170500000Y-76912500D01*
X166562500Y-77048900D02*
X165429700Y-78181700D01*
%TO.N,/power/DW01_OD*%
X122781500Y-92805900D02*
X123499200Y-93523600D01*
X123499200Y-93523600D02*
X127794700Y-93523600D01*
X122163600Y-91050000D02*
X122781500Y-91667900D01*
X129150000Y-92950000D02*
X128368300Y-92950000D01*
X121862500Y-91050000D02*
X122163600Y-91050000D01*
X122781500Y-91667900D02*
X122781500Y-92805900D01*
X127794700Y-93523600D02*
X128368300Y-92950000D01*
%TO.N,/power/DW01_OC*%
X121522200Y-93682300D02*
X121862500Y-93342000D01*
X128368300Y-91434300D02*
X128212000Y-91590600D01*
X121862500Y-93342000D02*
X121862500Y-92950000D01*
X129150000Y-91050000D02*
X128368300Y-91050000D01*
X128368300Y-91050000D02*
X128368300Y-91434300D01*
%TO.N,/power/BAT_MINUS*%
D57*
X183622500Y-80369800D02*
X176438900Y-80369800D01*
X132105100Y-93646300D02*
X131850000Y-93391200D01*
X129102000Y-88623000D02*
X145890000Y-88623000D01*
X124137500Y-91050000D02*
X126325000Y-91050000D01*
X126325000Y-91050000D02*
X126500000Y-91225000D01*
X126500000Y-91225000D02*
X129102000Y-88623000D01*
X152403400Y-87239000D02*
X147274000Y-87239000D01*
X187650000Y-87000000D02*
X187650000Y-84397300D01*
X147274000Y-87239000D02*
X145890000Y-88623000D01*
X176438900Y-80369800D02*
X176381700Y-80312600D01*
X187650000Y-84397300D02*
X183622500Y-80369800D01*
X131850000Y-93391200D02*
X131850000Y-92950000D01*
X145890000Y-88623000D02*
X145890000Y-89084400D01*
X176381700Y-80312600D02*
X159220600Y-80312600D01*
%TO.N,Net-(Q402-G)*%
D58*
X177062500Y-56050000D02*
X174875000Y-56050000D01*
X174875000Y-56050000D02*
X173675000Y-57250000D01*
X173675000Y-57250000D02*
X173675000Y-59500000D01*
X174875000Y-56050000D02*
X173825000Y-55000000D01*
%TO.N,/mcu/BTN_UP*%
X123952200Y-76045500D02*
X123952200Y-77422500D01*
X144099700Y-85481400D02*
X144268300Y-85650000D01*
X145000000Y-85650000D02*
X144268300Y-85650000D01*
X151000000Y-85650000D02*
X150268300Y-85650000D01*
X123231700Y-75325000D02*
X123952200Y-76045500D01*
X143762300Y-85481400D02*
X144099700Y-85481400D01*
X122250000Y-75325000D02*
X123231700Y-75325000D01*
X125708000Y-79178300D02*
X131185200Y-79178300D01*
X150268300Y-85650000D02*
X145731700Y-85650000D01*
X131185200Y-79178300D02*
X133560600Y-81553700D01*
X145000000Y-85650000D02*
X145731700Y-85650000D01*
X123952200Y-77422500D02*
X125708000Y-79178300D01*
%TO.N,/power/STDBY_LED*%
X131412800Y-97832700D02*
X130745500Y-98500000D01*
X130745500Y-98500000D02*
X130712500Y-98500000D01*
X118351500Y-90378500D02*
X118351500Y-89865600D01*
X117640000Y-91090000D02*
X118351500Y-90378500D01*
%TO.N,/power/CC1*%
X143286000Y-95742300D02*
X144764500Y-95742300D01*
X144764500Y-95742300D02*
X146750000Y-93756800D01*
X137000000Y-96325000D02*
X137632500Y-95692500D01*
X137632500Y-95692500D02*
X140739400Y-95692500D01*
X140739400Y-95692500D02*
X141821900Y-94610000D01*
X146750000Y-93756800D02*
X146750000Y-92755000D01*
%TO.N,/epaper/EPD_GDR*%
X165675000Y-72661900D02*
X165675000Y-70500000D01*
X166562500Y-73549400D02*
X165675000Y-72661900D01*
X159281800Y-78018300D02*
X159374500Y-78111000D01*
X165675000Y-72661900D02*
X163849500Y-72661900D01*
X156750000Y-78750000D02*
X156750000Y-78018300D01*
X166562500Y-75050000D02*
X166562500Y-73549400D01*
X156750000Y-78018300D02*
X159281800Y-78018300D01*
%TO.N,/mcu/BOOT*%
X124051800Y-81873300D02*
X123388400Y-81209900D01*
X125442500Y-70347400D02*
X124387200Y-69292100D01*
X121457900Y-69292100D02*
X121000000Y-69750000D01*
X139000000Y-85650000D02*
X133731700Y-85650000D01*
X124387200Y-69292100D02*
X121457900Y-69292100D01*
X133000000Y-85650000D02*
X125740000Y-85650000D01*
X124051800Y-83961800D02*
X124051800Y-81873300D01*
X125740000Y-85650000D02*
X124051800Y-83961800D01*
X133000000Y-85650000D02*
X133731700Y-85650000D01*
X125442500Y-73899400D02*
X125442500Y-70347400D01*
%TO.N,/epaper/EPD_VGL*%
D57*
X142008500Y-67216500D02*
X152934100Y-67216500D01*
X146250000Y-78750000D02*
X146250000Y-77585800D01*
X135725000Y-73500000D02*
X142008500Y-67216500D01*
X152934100Y-67216500D02*
X153095400Y-67055200D01*
X163205200Y-67055200D02*
X164150000Y-68000000D01*
X146250000Y-77585800D02*
X146283200Y-77552600D01*
X153095400Y-67055200D02*
X163205200Y-67055200D01*
%TO.N,/epaper/EPD_VCOM*%
D58*
X145750000Y-78750000D02*
X145750000Y-78018300D01*
X134508400Y-75783400D02*
X142783400Y-75783400D01*
X132225000Y-73500000D02*
X134508400Y-75783400D01*
X142783400Y-75783400D02*
X145018300Y-78018300D01*
X145018300Y-78018300D02*
X145750000Y-78018300D01*
%TO.N,Net-(U104-D1/D2-Pad2)*%
X129150000Y-92000000D02*
X131850000Y-92000000D01*
%TO.N,/radio/GNSS_VCCRF*%
D61*
X186000000Y-73000000D02*
X193310000Y-73000000D01*
X186000000Y-78550000D02*
X186000000Y-73000000D01*
X187815000Y-79050000D02*
X187400000Y-79050000D01*
X187400000Y-79050000D02*
X187400000Y-78550000D01*
X187400000Y-78550000D02*
X186000000Y-78550000D01*
X186000000Y-73000000D02*
X193310000Y-73000000D01*
X186000000Y-78550000D02*
X186000000Y-73000000D01*
X187400000Y-79050000D02*
X187400000Y-78550000D01*
X187400000Y-78550000D02*
X186000000Y-78550000D01*
X187815000Y-79050000D02*
X187400000Y-79050000D01*
%TO.N,/epaper/EPD_VSL*%
D58*
X146750000Y-78750000D02*
X146750000Y-79481700D01*
X139225000Y-73500000D02*
X140324100Y-74599100D01*
X144524500Y-79481700D02*
X144514300Y-79491900D01*
X140324100Y-74599100D02*
X140324100Y-75301700D01*
X146750000Y-79481700D02*
X144524500Y-79481700D01*
%TO.N,SPI_MOSI*%
X146752900Y-86104800D02*
X146601000Y-86256700D01*
X152521200Y-82466400D02*
X152521200Y-85387800D01*
X122250000Y-81675000D02*
X121268300Y-81675000D01*
X146601000Y-86256700D02*
X125877000Y-86256700D01*
X148254900Y-86256700D02*
X148103000Y-86104800D01*
X106500000Y-57500000D02*
X105268300Y-57500000D01*
X150750000Y-80695200D02*
X152521200Y-82466400D01*
X122550900Y-81675000D02*
X122250000Y-81675000D01*
X105268300Y-58200500D02*
X105567800Y-58500000D01*
X152521200Y-85387800D02*
X151652300Y-86256700D01*
X125877000Y-86256700D02*
X123692600Y-84072300D01*
X121186100Y-81757200D02*
X117328800Y-81757200D01*
X150750000Y-78750000D02*
X150750000Y-80695200D01*
X123692600Y-84072300D02*
X123692600Y-82816700D01*
X148103000Y-86104800D02*
X146752900Y-86104800D01*
X121268300Y-81675000D02*
X121186100Y-81757200D01*
X151652300Y-86256700D02*
X148254900Y-86256700D01*
X123692600Y-82816700D02*
X122550900Y-81675000D01*
X105268300Y-57500000D02*
X105268300Y-58200500D01*
%TO.N,SPI_SCK*%
X122250000Y-82945000D02*
X121268300Y-82945000D01*
X118680100Y-82945000D02*
X118680100Y-82865500D01*
X151020600Y-78018300D02*
X151250000Y-78018300D01*
X150870100Y-77867800D02*
X151020600Y-78018300D01*
X118660200Y-82964900D02*
X118680100Y-82945000D01*
X106500000Y-59500000D02*
X105268300Y-59500000D01*
X118680100Y-82945000D02*
X121268300Y-82945000D01*
X151250000Y-78750000D02*
X151250000Y-78018300D01*
X111306900Y-82964900D02*
X118660200Y-82964900D01*
X105268300Y-59500000D02*
X105079000Y-59500000D01*
%TO.N,EPD_CS*%
X108300000Y-87250000D02*
X108300000Y-86268300D01*
X151885000Y-80022000D02*
X151885000Y-79616700D01*
X151750000Y-78750000D02*
X151750000Y-79481700D01*
X132408600Y-70436300D02*
X133993100Y-72020800D01*
X133993100Y-72020800D02*
X136353300Y-72020800D01*
X109712000Y-84856300D02*
X112471800Y-84856300D01*
X132408600Y-70263400D02*
X132408600Y-70436300D01*
X108300000Y-86268300D02*
X109712000Y-84856300D01*
X151885000Y-79616700D02*
X151750000Y-79481700D01*
%TO.N,EPD_DC*%
X152250000Y-78018300D02*
X151956300Y-78018300D01*
X111495100Y-85202000D02*
X111096000Y-85202000D01*
X110327800Y-85510500D02*
X109570000Y-86268300D01*
X110787600Y-85510400D02*
X110787600Y-85510500D01*
X113892600Y-85510500D02*
X111803600Y-85510500D01*
X110787600Y-85510500D02*
X110327800Y-85510500D01*
X152250000Y-78750000D02*
X152250000Y-78018300D01*
X109570000Y-87250000D02*
X109570000Y-86268300D01*
X111803600Y-85510500D02*
X111495100Y-85202000D01*
X111096000Y-85202000D02*
X110787600Y-85510400D01*
X151956300Y-78018300D02*
X151801100Y-77863100D01*
%TO.N,EPD_RST*%
X112543500Y-82407400D02*
X115771900Y-82407400D01*
X152750000Y-77840000D02*
X152750000Y-78750000D01*
X110840000Y-86139200D02*
X111295500Y-85683700D01*
X115771900Y-82407400D02*
X116903800Y-81275500D01*
X116903800Y-81275500D02*
X120233200Y-81275500D01*
X110840000Y-87250000D02*
X110840000Y-86139200D01*
%TO.N,EPD_BUSY*%
X153250000Y-78750000D02*
X153250000Y-79481700D01*
X112110000Y-87250000D02*
X112110000Y-86268300D01*
X112110000Y-86268300D02*
X111974400Y-86268300D01*
X111974400Y-86268300D02*
X111823100Y-86117000D01*
X151256500Y-80453100D02*
X151307100Y-80503700D01*
X151307100Y-80503700D02*
X152228000Y-80503700D01*
X152228000Y-80503700D02*
X153250000Y-79481700D01*
%TO.N,GNSS_TX*%
X188165400Y-58910900D02*
X188325700Y-59071200D01*
X177955600Y-57405600D02*
X176306500Y-57405600D01*
X185281700Y-59900000D02*
X186270800Y-58910900D01*
X188325700Y-67282500D02*
X184808200Y-70800000D01*
X188325700Y-59071200D02*
X188325700Y-67282500D01*
X174692500Y-61261400D02*
X174739200Y-61308100D01*
X176306500Y-57405600D02*
X174692500Y-59019600D01*
X119730000Y-69750000D02*
X119730000Y-70731700D01*
X183690000Y-70800000D02*
X184808200Y-70800000D01*
X119730000Y-70731700D02*
X123177800Y-70731700D01*
X184300000Y-59900000D02*
X180450000Y-59900000D01*
X174692500Y-59019600D02*
X174692500Y-61261400D01*
X123177800Y-70731700D02*
X124135700Y-69773800D01*
X186270800Y-58910900D02*
X188165400Y-58910900D01*
X180450000Y-59900000D02*
X177955600Y-57405600D01*
X184300000Y-59900000D02*
X185281700Y-59900000D01*
%TO.N,/radio/RF_ANT*%
D62*
X122500000Y-67500000D02*
X124300000Y-67500000D01*
%TO.N,/mcu/VIB_GATE*%
D58*
X114650000Y-87250000D02*
X114650000Y-86268300D01*
X114960300Y-86268300D02*
X115116400Y-86112200D01*
X114650000Y-86268300D02*
X114960300Y-86268300D01*
X172175000Y-55000000D02*
X142297700Y-55000000D01*
X142297700Y-55000000D02*
X130111700Y-67186000D01*
%TO.N,RADIO_NSS*%
X118460000Y-86268300D02*
X117966500Y-86268300D01*
X117966500Y-86268300D02*
X117595300Y-85897100D01*
X105268300Y-61500000D02*
X105268300Y-62200600D01*
X105566100Y-62498400D02*
X106382800Y-62498400D01*
X106500000Y-61500000D02*
X105268300Y-61500000D01*
X105268300Y-62200600D02*
X105566100Y-62498400D01*
X118460000Y-87250000D02*
X118460000Y-86268300D01*
%TO.N,SPI_MISO*%
X106500000Y-55500000D02*
X105268300Y-55500000D01*
X105567700Y-56500000D02*
X106066800Y-56500000D01*
X105268300Y-56200600D02*
X105567700Y-56500000D01*
X105268300Y-55500000D02*
X105268300Y-56200600D01*
X117075500Y-80405000D02*
X122250000Y-80405000D01*
%TO.N,RADIO_NRESET*%
X106500000Y-63500000D02*
X105268300Y-63500000D01*
X105268300Y-63500000D02*
X103806800Y-64961500D01*
X108317200Y-75129600D02*
X116478300Y-75129600D01*
X116478300Y-75129600D02*
X120483700Y-79135000D01*
X103806800Y-70619200D02*
X108317200Y-75129600D01*
X120483700Y-79135000D02*
X122250000Y-79135000D01*
X103806800Y-64961500D02*
X103806800Y-70619200D01*
%TO.N,RADIO_BUSY*%
X121253500Y-53485200D02*
X121268300Y-53500000D01*
X122250000Y-77865000D02*
X121268300Y-77865000D01*
X122500000Y-53500000D02*
X121268300Y-53500000D01*
X120566800Y-53485200D02*
X121253500Y-53485200D01*
X121268300Y-77865000D02*
X121115300Y-77865000D01*
%TO.N,RADIO_DIO1*%
X123731700Y-56227800D02*
X123459600Y-56499900D01*
X122250000Y-76595000D02*
X123231700Y-76595000D01*
X123731700Y-55500000D02*
X123731700Y-56227800D01*
X123252500Y-76595000D02*
X123390600Y-76733100D01*
X122500000Y-55500000D02*
X123731700Y-55500000D01*
X123231700Y-76595000D02*
X123252500Y-76595000D01*
%TD*%
M02*
