%TF.GenerationSoftware,KiCad,Pcbnew,10.0.4*%
%TF.CreationDate,2026-07-10T22:34:03-07:00*%
%TF.ProjectId,pager,70616765-722e-46b6-9963-61645f706362,rev?*%
%TF.SameCoordinates,Original*%
%TF.FileFunction,Other,Comment*%
%FSLAX46Y46*%
G04 Gerber Fmt 4.6, Leading zero omitted, Abs format (unit mm)*
G04 Created by KiCad (PCBNEW 10.0.4) date 2026-07-10 22:34:03*
%MOMM*%
%LPD*%
G01*
G04 APERTURE LIST*
%ADD10C,0.150000*%
%ADD11C,0.300000*%
%ADD12C,0.200000*%
%ADD13C,0.500000*%
%ADD14C,0.600000*%
G04 APERTURE END LIST*
D10*
X122000000Y-51000000D02*
X181200000Y-51000000D01*
X122000000Y-80200000D02*
X122000000Y-51000000D01*
X181200000Y-51000000D02*
X181200000Y-80200000D01*
X181200000Y-80200000D02*
X122000000Y-80200000D01*
X91747438Y-90642857D02*
X89747438Y-90642857D01*
X91747438Y-89500000D02*
X90604580Y-90357143D01*
X89747438Y-89500000D02*
X90890295Y-90642857D01*
X90699819Y-88642857D02*
X90699819Y-87976190D01*
X91747438Y-87690476D02*
X91747438Y-88642857D01*
X91747438Y-88642857D02*
X89747438Y-88642857D01*
X89747438Y-88642857D02*
X89747438Y-87690476D01*
X90699819Y-86833333D02*
X90699819Y-86166666D01*
X91747438Y-85880952D02*
X91747438Y-86833333D01*
X91747438Y-86833333D02*
X89747438Y-86833333D01*
X89747438Y-86833333D02*
X89747438Y-85880952D01*
X91747438Y-85023809D02*
X89747438Y-85023809D01*
X89747438Y-85023809D02*
X89747438Y-84261904D01*
X89747438Y-84261904D02*
X89842676Y-84071428D01*
X89842676Y-84071428D02*
X89937914Y-83976190D01*
X89937914Y-83976190D02*
X90128390Y-83880952D01*
X90128390Y-83880952D02*
X90414104Y-83880952D01*
X90414104Y-83880952D02*
X90604580Y-83976190D01*
X90604580Y-83976190D02*
X90699819Y-84071428D01*
X90699819Y-84071428D02*
X90795057Y-84261904D01*
X90795057Y-84261904D02*
X90795057Y-85023809D01*
X90985533Y-83023809D02*
X90985533Y-81500000D01*
X89747438Y-80166667D02*
X89747438Y-79785714D01*
X89747438Y-79785714D02*
X89842676Y-79595238D01*
X89842676Y-79595238D02*
X90033152Y-79404762D01*
X90033152Y-79404762D02*
X90414104Y-79309524D01*
X90414104Y-79309524D02*
X91080771Y-79309524D01*
X91080771Y-79309524D02*
X91461723Y-79404762D01*
X91461723Y-79404762D02*
X91652200Y-79595238D01*
X91652200Y-79595238D02*
X91747438Y-79785714D01*
X91747438Y-79785714D02*
X91747438Y-80166667D01*
X91747438Y-80166667D02*
X91652200Y-80357143D01*
X91652200Y-80357143D02*
X91461723Y-80547619D01*
X91461723Y-80547619D02*
X91080771Y-80642857D01*
X91080771Y-80642857D02*
X90414104Y-80642857D01*
X90414104Y-80642857D02*
X90033152Y-80547619D01*
X90033152Y-80547619D02*
X89842676Y-80357143D01*
X89842676Y-80357143D02*
X89747438Y-80166667D01*
X89747438Y-78452381D02*
X91366485Y-78452381D01*
X91366485Y-78452381D02*
X91556961Y-78357143D01*
X91556961Y-78357143D02*
X91652200Y-78261905D01*
X91652200Y-78261905D02*
X91747438Y-78071429D01*
X91747438Y-78071429D02*
X91747438Y-77690476D01*
X91747438Y-77690476D02*
X91652200Y-77500000D01*
X91652200Y-77500000D02*
X91556961Y-77404762D01*
X91556961Y-77404762D02*
X91366485Y-77309524D01*
X91366485Y-77309524D02*
X89747438Y-77309524D01*
X89747438Y-76642857D02*
X89747438Y-75500000D01*
X91747438Y-76071429D02*
X89747438Y-76071429D01*
X89747438Y-73499999D02*
X89747438Y-72166666D01*
X89747438Y-72166666D02*
X91747438Y-73499999D01*
X91747438Y-73499999D02*
X91747438Y-72166666D01*
X89747438Y-71023809D02*
X89747438Y-70642856D01*
X89747438Y-70642856D02*
X89842676Y-70452380D01*
X89842676Y-70452380D02*
X90033152Y-70261904D01*
X90033152Y-70261904D02*
X90414104Y-70166666D01*
X90414104Y-70166666D02*
X91080771Y-70166666D01*
X91080771Y-70166666D02*
X91461723Y-70261904D01*
X91461723Y-70261904D02*
X91652200Y-70452380D01*
X91652200Y-70452380D02*
X91747438Y-70642856D01*
X91747438Y-70642856D02*
X91747438Y-71023809D01*
X91747438Y-71023809D02*
X91652200Y-71214285D01*
X91652200Y-71214285D02*
X91461723Y-71404761D01*
X91461723Y-71404761D02*
X91080771Y-71499999D01*
X91080771Y-71499999D02*
X90414104Y-71499999D01*
X90414104Y-71499999D02*
X90033152Y-71404761D01*
X90033152Y-71404761D02*
X89842676Y-71214285D01*
X89842676Y-71214285D02*
X89747438Y-71023809D01*
X91747438Y-69309523D02*
X89747438Y-69309523D01*
X89747438Y-69309523D02*
X91747438Y-68166666D01*
X91747438Y-68166666D02*
X89747438Y-68166666D01*
X90699819Y-67214285D02*
X90699819Y-66547618D01*
X91747438Y-66261904D02*
X91747438Y-67214285D01*
X91747438Y-67214285D02*
X89747438Y-67214285D01*
X89747438Y-67214285D02*
X89747438Y-66261904D01*
X100479104Y-81311904D02*
X100479104Y-80835714D01*
X100764819Y-81407142D02*
X99764819Y-81073809D01*
X99764819Y-81073809D02*
X100764819Y-80740476D01*
X100098152Y-80407142D02*
X100764819Y-80407142D01*
X100193390Y-80407142D02*
X100145771Y-80359523D01*
X100145771Y-80359523D02*
X100098152Y-80264285D01*
X100098152Y-80264285D02*
X100098152Y-80121428D01*
X100098152Y-80121428D02*
X100145771Y-80026190D01*
X100145771Y-80026190D02*
X100241009Y-79978571D01*
X100241009Y-79978571D02*
X100764819Y-79978571D01*
X100098152Y-79645237D02*
X100098152Y-79264285D01*
X99764819Y-79502380D02*
X100621961Y-79502380D01*
X100621961Y-79502380D02*
X100717200Y-79454761D01*
X100717200Y-79454761D02*
X100764819Y-79359523D01*
X100764819Y-79359523D02*
X100764819Y-79264285D01*
X100717200Y-78549999D02*
X100764819Y-78645237D01*
X100764819Y-78645237D02*
X100764819Y-78835713D01*
X100764819Y-78835713D02*
X100717200Y-78930951D01*
X100717200Y-78930951D02*
X100621961Y-78978570D01*
X100621961Y-78978570D02*
X100241009Y-78978570D01*
X100241009Y-78978570D02*
X100145771Y-78930951D01*
X100145771Y-78930951D02*
X100098152Y-78835713D01*
X100098152Y-78835713D02*
X100098152Y-78645237D01*
X100098152Y-78645237D02*
X100145771Y-78549999D01*
X100145771Y-78549999D02*
X100241009Y-78502380D01*
X100241009Y-78502380D02*
X100336247Y-78502380D01*
X100336247Y-78502380D02*
X100431485Y-78978570D01*
X100098152Y-78073808D02*
X100764819Y-78073808D01*
X100193390Y-78073808D02*
X100145771Y-78026189D01*
X100145771Y-78026189D02*
X100098152Y-77930951D01*
X100098152Y-77930951D02*
X100098152Y-77788094D01*
X100098152Y-77788094D02*
X100145771Y-77692856D01*
X100145771Y-77692856D02*
X100241009Y-77645237D01*
X100241009Y-77645237D02*
X100764819Y-77645237D01*
X100098152Y-77169046D02*
X100764819Y-77169046D01*
X100193390Y-77169046D02*
X100145771Y-77121427D01*
X100145771Y-77121427D02*
X100098152Y-77026189D01*
X100098152Y-77026189D02*
X100098152Y-76883332D01*
X100098152Y-76883332D02*
X100145771Y-76788094D01*
X100145771Y-76788094D02*
X100241009Y-76740475D01*
X100241009Y-76740475D02*
X100764819Y-76740475D01*
X100764819Y-75835713D02*
X100241009Y-75835713D01*
X100241009Y-75835713D02*
X100145771Y-75883332D01*
X100145771Y-75883332D02*
X100098152Y-75978570D01*
X100098152Y-75978570D02*
X100098152Y-76169046D01*
X100098152Y-76169046D02*
X100145771Y-76264284D01*
X100717200Y-75835713D02*
X100764819Y-75930951D01*
X100764819Y-75930951D02*
X100764819Y-76169046D01*
X100764819Y-76169046D02*
X100717200Y-76264284D01*
X100717200Y-76264284D02*
X100621961Y-76311903D01*
X100621961Y-76311903D02*
X100526723Y-76311903D01*
X100526723Y-76311903D02*
X100431485Y-76264284D01*
X100431485Y-76264284D02*
X100383866Y-76169046D01*
X100383866Y-76169046D02*
X100383866Y-75930951D01*
X100383866Y-75930951D02*
X100336247Y-75835713D01*
%TO.C,H2*%
X194200000Y-54000000D02*
G75*
G02*
X189800000Y-54000000I-2200000J0D01*
G01*
X189800000Y-54000000D02*
G75*
G02*
X194200000Y-54000000I2200000J0D01*
G01*
%TO.C,H4*%
X194200000Y-96000000D02*
G75*
G02*
X189800000Y-96000000I-2200000J0D01*
G01*
X189800000Y-96000000D02*
G75*
G02*
X194200000Y-96000000I2200000J0D01*
G01*
%TO.C,U102*%
D11*
X115190000Y-97280000D02*
G75*
G02*
X114890000Y-97280000I-150000J0D01*
G01*
X114890000Y-97280000D02*
G75*
G02*
X115190000Y-97280000I150000J0D01*
G01*
%TO.C,U104*%
D12*
X132000000Y-92950000D02*
G75*
G02*
X131800000Y-92950000I-100000J0D01*
G01*
X131800000Y-92950000D02*
G75*
G02*
X132000000Y-92950000I100000J0D01*
G01*
%TO.C,H3*%
D10*
X112200000Y-97000000D02*
G75*
G02*
X107800000Y-97000000I-2200000J0D01*
G01*
X107800000Y-97000000D02*
G75*
G02*
X112200000Y-97000000I2200000J0D01*
G01*
%TO.C,U202*%
D13*
X183600000Y-68600000D02*
G75*
G02*
X183100000Y-68600000I-250000J0D01*
G01*
X183100000Y-68600000D02*
G75*
G02*
X183600000Y-68600000I250000J0D01*
G01*
%TO.C,H1*%
D10*
X127200000Y-54000000D02*
G75*
G02*
X122800000Y-54000000I-2200000J0D01*
G01*
X122800000Y-54000000D02*
G75*
G02*
X127200000Y-54000000I2200000J0D01*
G01*
%TO.C,U201*%
D14*
X105550000Y-53480000D02*
G75*
G02*
X104950000Y-53480000I-300000J0D01*
G01*
X104950000Y-53480000D02*
G75*
G02*
X105550000Y-53480000I300000J0D01*
G01*
%TD*%
M02*
